<mxfile>
    <diagram id="BpyQabNScMtnVzvaREqg" name="Page-1">
        <mxGraphModel dx="3178" dy="728" grid="0" gridSize="10" guides="1" tooltips="1" connect="1" arrows="1" fold="1" page="0" pageScale="1" pageWidth="827" pageHeight="1169" background="#FFFFFF" math="0" shadow="0">
            <root>
                <mxCell id="0"/>
                <mxCell id="1" parent="0"/>
                <mxCell id="89" value="" style="rounded=1;whiteSpace=wrap;html=1;strokeWidth=3;strokeColor=#666666;fontColor=#333333;fillColor=#f5f5f5;" parent="1" vertex="1">
                    <mxGeometry x="-127.5" y="1401" width="402" height="253" as="geometry"/>
                </mxCell>
                <mxCell id="5" value="" style="rounded=1;whiteSpace=wrap;html=1;strokeWidth=3;strokeColor=#666666;fillColor=#f5f5f5;fontColor=#333333;" parent="1" vertex="1">
                    <mxGeometry x="1026.6" y="1358.51" width="707.5" height="457" as="geometry"/>
                </mxCell>
                <mxCell id="2" value="" style="rounded=0;whiteSpace=wrap;html=1;fillColor=none;strokeColor=none;" parent="1" vertex="1">
                    <mxGeometry x="1986" y="905" width="1945" height="1284" as="geometry"/>
                </mxCell>
                <mxCell id="_NW8zd-T-IjyW-bk6Yj5-118" style="edgeStyle=orthogonalEdgeStyle;rounded=0;orthogonalLoop=1;jettySize=auto;html=1;exitX=0.5;exitY=1;exitDx=0;exitDy=0;entryX=0.5;entryY=0;entryDx=0;entryDy=0;strokeColor=#7EA6E0;strokeWidth=2;" parent="1" edge="1">
                    <mxGeometry relative="1" as="geometry">
                        <mxPoint x="387.5" y="1282.5299999999997" as="targetPoint"/>
                    </mxGeometry>
                </mxCell>
                <mxCell id="_NW8zd-T-IjyW-bk6Yj5-104" style="edgeStyle=orthogonalEdgeStyle;rounded=0;orthogonalLoop=1;jettySize=auto;html=1;exitX=0.5;exitY=1;exitDx=0;exitDy=0;" parent="1" target="_NW8zd-T-IjyW-bk6Yj5-42" edge="1">
                    <mxGeometry relative="1" as="geometry">
                        <mxPoint x="570" y="1420" as="sourcePoint"/>
                        <mxPoint x="529.0833333333335" y="1090" as="targetPoint"/>
                    </mxGeometry>
                </mxCell>
                <mxCell id="_NW8zd-T-IjyW-bk6Yj5-34" value="Buy into Pool" style="text;html=1;strokeColor=none;fillColor=none;align=center;verticalAlign=middle;whiteSpace=wrap;rounded=0;" parent="1" vertex="1">
                    <mxGeometry x="1191.7" y="1037" width="140" height="20" as="geometry"/>
                </mxCell>
                <mxCell id="_NW8zd-T-IjyW-bk6Yj5-85" style="edgeStyle=orthogonalEdgeStyle;rounded=0;orthogonalLoop=1;jettySize=auto;html=1;strokeColor=#67AB9F;strokeWidth=2;" parent="1" source="_NW8zd-T-IjyW-bk6Yj5-42" target="_NW8zd-T-IjyW-bk6Yj5-78" edge="1">
                    <mxGeometry relative="1" as="geometry">
                        <mxPoint x="349" y="1756" as="sourcePoint"/>
                        <Array as="points">
                            <mxPoint x="395" y="1827"/>
                            <mxPoint x="395" y="1827"/>
                        </Array>
                    </mxGeometry>
                </mxCell>
                <mxCell id="_NW8zd-T-IjyW-bk6Yj5-94" style="edgeStyle=orthogonalEdgeStyle;rounded=0;orthogonalLoop=1;jettySize=auto;html=1;exitX=-0.002;exitY=0.774;exitDx=0;exitDy=0;strokeColor=#B5739D;strokeWidth=2;exitPerimeter=0;entryX=0.5;entryY=0;entryDx=0;entryDy=0;" parent="1" source="_NW8zd-T-IjyW-bk6Yj5-42" target="_NW8zd-T-IjyW-bk6Yj5-95" edge="1">
                    <mxGeometry relative="1" as="geometry">
                        <mxPoint x="-170" y="1950" as="targetPoint"/>
                        <Array as="points">
                            <mxPoint x="-77" y="1702"/>
                        </Array>
                    </mxGeometry>
                </mxCell>
                <mxCell id="_NW8zd-T-IjyW-bk6Yj5-42" value="" style="rounded=0;whiteSpace=wrap;html=1;fillColor=#d5e8d4;strokeColor=#82b366;" parent="1" vertex="1">
                    <mxGeometry x="350" y="1400" width="400" height="390" as="geometry"/>
                </mxCell>
                <mxCell id="_NW8zd-T-IjyW-bk6Yj5-46" value="&amp;nbsp; &amp;nbsp; Data:&lt;br&gt;&lt;ol&gt;&lt;li&gt;Account FIDA&lt;/li&gt;&lt;li&gt;&lt;span&gt;PubKey of signal provider&lt;/span&gt;&lt;br&gt;&lt;/li&gt;&lt;li&gt;&lt;span&gt;Pubkey of Serum dex&lt;/span&gt;&lt;/li&gt;&lt;li&gt;&lt;span&gt;Pubkeys of available markets&lt;/span&gt;&lt;/li&gt;&lt;li&gt;&lt;span&gt;Fee collection schedule&lt;/span&gt;&lt;/li&gt;&lt;li&gt;&lt;span&gt;Asset X (Mint key &amp;amp; Amount)&lt;/span&gt;&lt;/li&gt;&lt;li&gt;&lt;span&gt;Asset Y&lt;/span&gt;&lt;/li&gt;&lt;li&gt;&lt;span&gt;...&lt;/span&gt;&lt;/li&gt;&lt;/ol&gt;" style="shape=card;whiteSpace=wrap;html=1;align=left;" parent="1" vertex="1">
                    <mxGeometry x="440" y="1462" width="220" height="260" as="geometry"/>
                </mxCell>
                <mxCell id="_NW8zd-T-IjyW-bk6Yj5-86" style="edgeStyle=orthogonalEdgeStyle;rounded=0;orthogonalLoop=1;jettySize=auto;html=1;exitX=0.75;exitY=0;exitDx=0;exitDy=0;strokeColor=#67AB9F;strokeWidth=2;" parent="1" source="_NW8zd-T-IjyW-bk6Yj5-78" edge="1">
                    <mxGeometry relative="1" as="geometry">
                        <Array as="points">
                            <mxPoint x="473" y="1790"/>
                        </Array>
                        <mxPoint x="473" y="1790" as="targetPoint"/>
                    </mxGeometry>
                </mxCell>
                <mxCell id="_NW8zd-T-IjyW-bk6Yj5-100" style="edgeStyle=orthogonalEdgeStyle;rounded=0;orthogonalLoop=1;jettySize=auto;html=1;exitX=0.5;exitY=1;exitDx=0;exitDy=0;entryX=1;entryY=0.5;entryDx=0;entryDy=0;dashed=1;strokeColor=#B5739D;strokeWidth=2;" parent="1" source="_NW8zd-T-IjyW-bk6Yj5-78" target="_NW8zd-T-IjyW-bk6Yj5-97" edge="1">
                    <mxGeometry relative="1" as="geometry">
                        <Array as="points">
                            <mxPoint x="438" y="2123"/>
                        </Array>
                    </mxGeometry>
                </mxCell>
                <mxCell id="_NW8zd-T-IjyW-bk6Yj5-78" value="" style="shape=image;verticalLabelPosition=bottom;labelBackgroundColor=#ffffff;verticalAlign=top;aspect=fixed;imageAspect=0;image=data:image/png,iVBORw0KGgoAAAANSUhEUgAAAdoAAAISCAMAAABcaf7ZAAAAIVBMVEVHcEw/xthGyts9xNk4wtcVsst34+9AyNtd1+YFqsUpvNJceMTYAAAABXRSTlMAVR2Qwi5t4IQAADdjSURBVHja7F2BcuM6CCyI0fD/X/zmtdeskdNAjWllV7TXKHOnVGJhWcm27m16I+n/W+MpRsMfwxHit2U5o/4wmcCbDcNpC9y0K2G/7sxubGGbQnYmZ3LvC9uTkYXxXMN5W5ass7C2hnNtA//NlLbS90Zvy3LIwmiN5/rWn5r8Nh8vKXWyZoH94oAWtpU50mU6aOVtWQLZibJ2yeSsZJnKj4i2JaXKkO3tVwe1ym3W2pRelIVtAbKT7EYtbO/qQul9SalkTZtVsPS+pFSV/1bUZW2x3iq31RLK2tIBS0IVWltS6pjx/EnRF7any5Ql847Zyoiw8Sq359axpQeWhPqhEFwXb88iurX2XhJqSam1v7ik1JJQS0rVuWrOAa9y+yMEx0R8ImrEa8dxCmTpn5OFzhjJ48PWBb7qxQR9o6/wmRWflpSql1Bx/3KaPBa2P6RI5EcfZt4xxpJS9YU23vVU8uAlpVKWoDU506V8YACLkvMSKp40iaRd2M6y9Cc/HvLsEU/1ddBFTkL5Xdu5Jb8tKfXjhZZPdigd/Ly2di5qkK2HttMqtwnlknBoPbSd187FT0ooOZ8FXwC0yu2JexUVD+CWESutcmuNS3zZK6qDLCmVdmUeWaq5C3pJKWNVLMb9aH6VRQyv21dhXJIinYt4pNOSUsWF1ke2Clte5bb6NJeWQjZDCOt8muxeRaogVmLrdF0XChKVqQxZGB+XybzKrasn856vkslr58IzqSA9idQBLsW2/fly28rEsf+LOSmTV7n9flpoKivimHGCVNzu3PUvl1sGmnjB9AuRxb8so33aTEn/XLnd5SqMS4ogkE1gezT8FHPkv1Bo9Tkjc5k4tj7nyse45ctq0/9KodXdzCmZSfGU50qZ/JiP3rzc+umgsYmLrz7jUHGhTOY/urrtXR8aQ01cS6WEop0YKsSWEK/DHDv/rRWtfvz5HjZZem2VUkows20Q653LLWHKY4uysiaObD22j3jdaeV8uZ230Oo2V8FZrRBZdtBJ/Fa/p9693NpgVoCL2lcmjvlwT0qUW93XW71vuW1dbSyjeVzRJHKPCrFtCN4R3tsWWkvICjcltGqGVauCCnuNYxi3OxZaNXGM+VKdOOb+yqhMStlfjInrHcutDFoRiSuFaddfG9cdL0hdMVWbvHy7FS2mqoaripBF55K09+sIgEXB/fhxNzoGnJaOue4gkNZd4zopZfZkzMTbfQutfsaw9k4JCZVFNv0p/jIewOKNdrpXoTXTC65oKYlJNbYtMnqAe8NrtzQmLbK28OjGHjPhsvVTw7QBMqTjDYwxKfyIAJSRUNSj1uqevLV4KkC+CyUjcnWotFR2wj/1uLUymcwmaUFW6HeTdQ8QzhZaOQJGUaC4q1tF1ioAvgO2ZKusbhgqJaHyyMKoQkqho9qcvc31PSONDUFxmYTq3zUqO24Q9cck7R3KrQDN97mBn1qBLHX6VvCAH6I6pu3FKPlrWjXaUIP1sqUybAps4QFbbBHjF1/3KEBFmc0U2paoiw62NapOulqFfIsNR5bhUg/mRYkUKUC28lzrdzy1q+OEa1mDIOwa14d8bnLBXv6lVEkpttcyt564xR2Male1BT70keXXCqtV7Uphw3Fc28uVCy0iFS11PFEkjslbF7WqkwcFvIUl4GUpGfoBP/WzRaHE012j5ZD1/4m//XIsLCCgRv7iy9Kx2niNFlp40MCbRDaPbTNDimNLiO+Bv+Si13vUrmpVA5E6IBotaHGypYxMFgC0FRJ+uYUjUHavugLCNCAJI4XWeg2mfkq5yOax5a7Hyi08Ydb4V6TkZq9VYr3uFVrEAzql/hMA6/Y8tuBWNH25y4qln5qb4ISveWOFzVrfASMbIygkteyJR0H891iR6JdbhDqS9oKUbECFnPLo2CgNa3lk49wdv06ncRUmYKABYrraugdjR9ubvRUnaKjLk9/kWElgK4AG7OILRN74As2rrYAIIx+QbWEWt7xHeWStZZZAdmy6xdelZEwRrxdaAUEy2K+uwhFOBSt75SixVs1JKZO20U2V9twteiFKlmeo+rSKJBjLmBQcP84JbGmkYtROijsGX5ehZLKsgy+30EJxWbmRW9Aewdb/jUhaG4ccpDPrHLkQHT+bgnjeGnMhpjLooCSixBLIPNyi5p0f9fDJxShZMOIB3ZeFFliOlEyJZU9JTGCnG2oe79ohStYLUHLTDtqJ0zG8M6z7UhKq8L8IwSABbkDN61fYygXouB8YOwrtfrcmteypw7YNT0ME7x6nL6CdflPKRuW28VoLNTjIEJ2vHfEvR/UVkp27i23xwBAjCABRd6aqxjN46Tw/HT++8eoWWuMhCJNA7mjuSETTAzDHD2NEOKLRXtOa8REcpRPjinHbb7diwkHmIc348cPjgji+M8s71YY3wvEHeuwrOT6yyP5rz03JavMV7ySyca77pA1cX4I5+0KO1kVoRWUyjdmKF44xm1pO5guoY9VuRt05Qqr7pA2ggl567PBhwgcYiGIHbaLI2peX3VBrjb+6zE7HD0TBNuQXWnu9K3gUoho48Fb7wfNedQgxij4cYV79covgB8wzq+Qn9SOw7hmQATqKiTod960jh+arLdxBKaW22IYuwpL10Lt9tGlWOn6MeMha9grt/jt2+jUgASIHihY+wtaErtHDGNV0DlKyTds5VTJCEX9QRF4HMNwygsuRVAMImZMi0He3AhJvGLoHV71taFaFm4ygapMWWvAMqq6qeIz2/JuiG30A9vCxTGwexvEXqTCWxxDQ3+9I2hH9RnrS7HT8bt2lYxYwGH5GPLrfu0rd2cuDFtpiRLGo2LMIOZQMWDc5LLOqY7Oi9dVxQ64M6lSi5xUBU7+nv//Q91kb4w+MQdEMUDKyd1qVLI+RooJ0LwrJrFgMJ3Jk//Zp2iZunAaowCd20OZ2DFD7ElfJHW95NjrG6GzSvs50i0s0UXDVZX/QWPKUdaAaDhcWwzxRLheFIDFpIXPRMUYIcF06lm5x+Wx7OpHgwmGHIRXy+MhNzITKg72XPnrylxFQ/wwyI261hqizKasSokA1xBwutKYX0uSwmZz7jjQjhOh4YqFHyYbrPhHmuej4gSaC0ZkZUmNssI8s3I6+2XhnVMox5vwzBzGD8I3XDVQHj821l8xAc6i4HL07Ln6nDYuhYDTT633IOugz0DJHH9aKT4a3wG4V8zyULOCSzUAdV8vBO0na9gkiRVVEZUtYszoI/OBia0CNUhCbXMDW4zSUTNhSGcrG6079eaRLGNnxOfPzzgoFsBieuDXp+ZdHyciIzRuZho6RtttXijNY9FE+MjtFj8YBcexujxmR50spOfTUh3ZkxLbdaQ46NlmL1xgdbxt+oYWjbeM0Z/BuGRPd1X4KrBesNGQt2jzHBZ/nWcsh+oopSuTUtsN+Mz5vbMZjcHYI5UtsNUDkuxCXSS74YMkDoCkgOpC10UJrN3iRVich+x8756KkuA4D0fGjcIr//+BbNbd2Du1k3YIE8pgVDLBVSbAldatlh/3mfLm61N5wudU4FdddgAg+7E7JhXwDsG7tuFsWZ0aBQnsDrbyxq7qJlFpGrYVSpUGgTXDlNrHcyIcjqOTUlQlEsr3LGhqCW12hBeYa223dULV/Ca+JZDp7bfKH3qi4TT/s3NxOKu5AYDLVGSaegnf0ZW02xeXbJniuXF2eTkolOlMiayUEweTD/pRc4FLVd9VWZ6ZPUrjugjMUt+ntP+vnC3P4xxOM11HyPKy7/+g2z0Hr6biSz/JnIlQkmPJxe+ZKi6ugvqrnKpF9nF02lAyJ8V5233+fW4qTFkEuhusW/Lx5cvtOxlSNZUp2KlkVMvHNu7a0MiR6Mj8NzWvvMrMisI35hUNbbgkPTYClZLwoPFb3o2NixIwc+SgTcwFDdFpm+ef2mc03zh/+PvCqzTozdZR8M83tXhqKKDGeJUtMFReECy1niZ83N+hl/nStVga08ue4TKNKwu+54YP5XYtMVDuZXK3wXI5teec6m35nsHYkEMiJjpLLtGz7NLeaXWDWEs/P0Y+IN07WXOAK9b252/MLbapdoEPn8mIKFfmwDyX7PHPokxcKpo0sDz58aBGVvArsT2XpYuTeGEPJGIRed9BQ5KWWljw6h5ACQ9fA1b4OcWp+7xwr45UIU27NPGVB1aU9U8T2+PFenYXUq2NmKbGyhbbfrjZ6bdtyK0HlPa4NhKJyCLYa4fxpDbVsN5uX+IjliuwrHvOFFctHpsmNhuSWK7d14eZO16gmfKOQKXu0tL0ZOlYtxNST/yYkBp6qH0lhvlm97kYtG51QTvFEOINv+vgurSLJjqLq9gaSqLr8l+4fN+WPzJRv1K/n+836Emcu534AL/usQ6lV6yOJr9dChSM5/5M71bkSmK4xqdlRMvOEzKvNh9uezW2Vr4+mpHZ7oV3J9HOoCNVPCscs0oDgun15BS3J4SmZLCL7d9JQWAkLCz5U3yFyEv8on1SM0AVO91mp5MS8PSXvB9sXNFQh9TtKth2W0hq7pp8yWhleKQqhXVitRfWFdaC08zpUDt/3yIfkO1o8hOWd7rTm1TfkzLSj5vI8bOu+jU8dOYf8ZZ7M0t5+zUkkxOdsErxGu9uksBUF6Oa8z5pUfZWOIdUQ+nK/CrXfdkjSKhvtbksXHgN2490dNVSyW5h9H3NztWoZtbe6108kFIZ+ClO/QAkGj6ikXqTjxbwvDilaa30Cv73c3mb0U/06pdlDiSqZg4GWlMcIcw7unihs09cOxnD62lk8JWtna4DwMSW1ni/yKz9Gy6hSup5dCi2VX4PK5+TdNQdvWg+e/RufqnPCTLrrZqHtCj9IV/0NatkJML9Vt7+Syiaj3N4JKPQeUQnCr2f2srrMPdHfvffSuhxCSfmEqquWrvzkbiaHPrdRgLwPNp0zLmYmR1FSkFKbHt5afJiK3OIzCD/ssHRsEo4hWQLSo3nJETg0ge2RGp8sMwpmYAEWEPJnC60vnIzRdNoFoFt+JR2ahre9GbZJUmk7SeAlNWftapXWtLMSAvsqt7U3NkCZqGqIi8lYTEREmBv2K7R+aDc/tPQi2YFWLH2k8aHkbpSwfA1sbKGxf7mlcnoMhpvboozMx3dOq83e0tN0HM9x/a8897f017yr225wf5S4iiQRVlcykcfFzfhhr+52PSUXd0oTFLX3eCERVPkQzzzMuO6AhdZP6gVKdozXTDZsm65a3JvRUCvp+FCFlhFGuSgkOmLtSMPt28M2QQ6K2+yns94Fe3e0PmO3p+S62Ge27XOc7+DrjIbaiLgOVGj9IDf0RlaxCrLyG2gI2Laf9+3y1ANif/PUsiGHFcqfBLe+A7RzTk6foOP9+564INhSeQhq25vyvIBX+aq6qYaqRmwcudx6Sn5NSanbt4dtFo3W+DMainGF8vr4hdbTi8U6MfIu4Ug9Kb0lSwksg/JdGadk46/D9j3rx1qIUDBzk0a0/QBsu4lQzAmsGdOrdKxrpyDhYFZEVLpmEDeqWYKtwEL7ko0rrbJrGzPJMiHXIB23PqkPYn7b7eYpuU+HoRgFTVIRt6y0jIgU8mGSMz0d64ybzPuolNyeoOQq2Ig3QBrYjZzC5b8f0tImu9v47Kzn1nanY1sHtfF8Uk40E6kMHWvq503yU7HHe1RDsQjq00dPgxrOQcm+6mgXg2XfdoKtTZYbGU5DRJFpdj9Kg5Vs+nAWguGw1i0VQZoDty/QWXMNkCqdDZcbs14aovSgBeuu064cS44ep+/xKawhy/6cBloMbMX7QLdsJvO1mnvQElZGb2SXCgXWRA5rZVlfhpOYk0anqB+lpK/vaWEePlSrp0kxl2ZZc4G/I0dWVb1+8HNV1eKggh8JxHrYFh2Br4FFj4ZNbCYzYSrQsS1LJgIux1B6VjOqlAs3d1PyM5bBqjyLmS2H+vtsUjdZ5vB1dCuzkfuWjekJAgxsTQxWlROVRtnpaU5wtSQTS/6g40NbrpqWRoqQyUqwBum1K86b+CcTnD9v1M3BCXQx4TvlmSx0fHzLmpZWJlB/8I7VvGlq4v1Gb7t+FVxJdphgCjzIw9INYxdOOwsl847ONEVOlyGsV3lywkp5LNVzHKikgWUUUcXYjkvHHoO8+l8v4lbRvPEOuq3jtSIiKgZaZgjhjKYpovjYixUeg7JVl8dKqkkqe9h2MSAQa7R9r+eKvaMV8xpKFzEPTcceg8zBFKEZaoeTTlxdHFZWVVoe35nTRn2MNLPSgYVrM3LxNFbxD3MYYwq4BjduK2QvpW5VpcWaA20hC6TcFtvS8mLE38HXkjWjqz1FzhzDtumh63ZPCogVwvT37BGqsSDKC7KPan4qSp4Dqtlf9DQBr4GtoJbgbnFrFyXEzJCn7U8recgfyXAWy7M5s7gaTWpCZXsPaaXT+kpLdg0LiM6M0Q7FQSOodMFnsqQhbcgcI77UVRa2iDQQ/+JOs369B21PGW3MSn0Kcv/G2azMy4q9URtZIh/9+qR+RXo5E9v38wG72fB3j/RqaEGWUhva4ETG5NX1dvaggDMHsG3iXddYmg2KvhQ0C1rMDTVrwiIpGOy5KLnpgruTsErIBNh8xeyZXxkrp+P5bDqlJnOL3YfJFE+njlUR+t/OKMMq/jxsp/V7e4jt/kpGHreuOPuZ8aA2n9EyIcJreGzJNKv9on/qIuK2/f1leJhKK+LJNz4UGlM7zmGoSMIah62veYhkHub4war9PLpldDz0ynnZCD7oCwI7qVXR+wS3up1qbelNteXBx/xkE84jJI8VtR60jasyVirHOZVUvMJoqEjyMQyJpzzSy2uMjLL647UW5PEJcwprpwUtTNf7bQBbvIUvfLWdfckzo2wtnB5aabXElxAr6Dec2OYOM316xmfykp76hqe8lpYHWV2+ahM8KAJ1uWicUUN5t00tQl7y/tfjl69fV6SfAS3DkmcJ+4Bafmqry6gastdcU+PpGJ1GtSeen9Olzz19hFzAR1xwVsvxlMV1ve9CsNXYtvJ08ukV0lbCLen1eZ47sHhep2V+RvOcquGafAGUH849vUQzmRcHLVc18zmdZSbmpobzFh8meV50XXlMuABbckwctHPEktpntvQzHWYmc4tyeDLH9+CLDY9BfZ/351N+UhP5zGb6LKqc3WqXtR62T3YjtT2mTPsTpBRMPPKCj8XcVBunIEIqz5NpKO89YjyE7YD0DOcRpKACrY94BVvpKdC2AWiZ+XU0FFZxGX8GtkvRrYP6x5MY57CIIq6eIPpYWdDOj+eEs1tmelp2LGz1OeURL0hJj/oP1/9E14B2KVYOtEr4nHABK/hbYjBKdhKAE4rRKlrTI6wnrie8rgfunkPQysiQARexL2hYuS97Xamy0jG4Un8KywC8jsaJDqv5aXQqr35dx5LQHugoptrqcwBbpQRQ7sU7uhjU5ufkbvFspRUpf13IGveCSgZnW571OYgR4PAoB1XkGrCtz8jd53paSOFSsO2a9nF7VxedaJoSDqSYWzIRTh6ujSSm4CMFaKVUwN9XMUKF54fTTL0TTS/843V5VM/HilpAazRXsNLK4aaqXGi50cF2MbjZLAWLGUbOuiPjSmciBeKVVnIH3X4pQ4LIXAewnSNk4MissLVCitZk1pRlt1zBy1guMFmOvhhotffE92ZfFI9E6K8+HkSY7T1RcIjZksmalhxuQNuf8nU9K/iQqQ74KTVcifMnq3HUocnUiPlJyYWK5+jwTEijqxVnNXpPQOtgO/EkzHbLWxxa7CJjr1+HwyET4qDlheFfD7bMkA/NVWdqqEMVoCLIgUVGKYrF6UDO8aA1jdV1THQOn5JdIRC0DIUUzocUDIN3wc1WsfvmDdAyJkB+TdhiEx+rZUzFVx6jsEuH8uVQLvWwDlAomeB6NzBL+3PJSovzCRSwNTqnk1JGSKlPbe3UJZEpjdKMUfvWjaEwdAZzOSsCWg/bihLhxXUnvQpPg0QgdWxvRUYyCTPybjAk8RVtEbSTyX3VyK61Zd91rItKo2t2C5kkgo58yDd3YWL2Ha4NW7VBPcSVONatBLYGaAcamQNsG0wi6MUHoOW4q4LW79XZlWE8ypu9y9WvdyVdKXI7tdTZx/diOh8D2kvD1m2+ZYGrXTCqXJTXVtytLYS4mD1DLmszUgdBabg0bEEss3bMpmJzUBGXblAcLXWBK5Mz0pEbFD4G9M4HDrg+bHFBMvs/IpAMb87wkpZSDPRRGcZMr4N2W/YcrZRwfdjqUtBopQC+BItusVF/KFKWDgR9uL+Yjllha6kGaqLBvrJV5oqNyhagBYyuRxGb6pDoie+IjycFolvxVLs+aJVi1Yq7M01hm82SvzzmR2e44DG+2f7MEwUeEVG8c/jlYYtPY+s6UwfbZLhQLS2iW8nAcAHG0eOCfycfr9j5eEfd24T7re6iNhtO0EddLrW9MErmlj1pU93KN9qY+V3cKEXqgGKFlAAyD4/ubQlYwskjls8qjDk6wEoG41feksdGrrrL2o5TPKq+l47OwBA1bflYo1v/iajI5M3d44SJj46RtZoXu3HsSwK6yDe1njeuL6QwDwOFruFvpdtqxNY0YlhR6J5kfjFoSew4I4MYMBZ27bxR+V/Aooi+/1F9+zW1+//vYT5mtL8atsn0iUqyZbD9Ntc8aUbaU0+x5amNyLSmUfpl27YxIMSaUC3MSoj69RzqhRnH3qd/fPwca2Xv3ECrAlTvRLga95t2yvbVfmb/GHlwH41gzKOMnrlXqApozwIcCwz/8fFqDwCFKXh06Xd3SRsupzfPjGs3FtbHd5OzF7bcz/4eYmT18WswYyUw5v62aGZev4+PsUo8Ca/RyFGHKcZoVkar0s2Xbo4f8TGZev954+jfxcj3SL0Tz7p6V+Xg+X2NVS7z0q5PWqEhLm9dYO+O5xbCUV7EuAJ2Wncxte95dC/39vW7rBDVP4G9P4sGA7RpGTppfq+hx2EQ4oSU19+jj9ULd3j5vh12hrdxpJcK9/N8cb88H/ve/v7OisdW0ThNtvriu/DQ9yN//TKrf7wgmnJz8GCGYjcrtcwmzsf/sXc2ypHaQBC2fijX6v0fOCkK8l0LPC1MrsqLLDC7vsO+lXq6pyUNybNaYggacW6IeAsPHyX3U23bT1xEmg7aTGAjzZaI91U0X9f2cbXAPhGv+WO6VmUI1iMixH3v89ddVIWrzcTfBDt7zRLx/+Za+nsuaotPDdg6IbRp678S16B1w0dV83cO2vHwa1xnTLU6EniP4qFt3/RR342R1uFVg1iVYJ0u1YIWOZZZoEGr3SZb/b5Bbj4O2p/wzrjKiKHETm7fDKPVImkMrNK1pM3+zUgcNMDd39VJoUW4ttcALZkvBpAY/Iwf87+nhWtRG6hAXKaENkGIxpmHt4quW+TrxohP51fMMIP/aRC2cLIGW0HWoiXcLd+EtgkPh+Y+zWcB3YInUif1UT1rXSaDPX7xqt9cAy0QMHasz7PeIENd8suE0DISnH4eMoBJATl+ogI6rcW/RrfVWwwtdN1e/t6CxbusR3GGFhlc/RTzhJpA22TDyU5nuDFWCpIswTodtKB1nAiGaMEfvwdzpCdZWFH3um7yOxTvzzIttECFofJocbv1P0I5oNXWgvyuKyr+Zj2nhTbvcMoZ+WmG2rgU0h5WCmh1x9y6ciTFWXj6wc1ztm0wNgi2V1MDCb52Fkzj5ooxwiEl48pFMKKb9fhs80K7DwLgBoEOCdHHeBmpdZkywVpaDK2IxDBroe7c0CKd66tDS0Y7uBkFlZt7iTW/RVSihazdIpRjUmhhhR0NVUfBzGZJxTGRsSXVjgjF0EroL7SKFqSwgtcOS3nZVOcAo7IWbCO0UFdefY1F42fmZm2fb0PWooz25t4q7awlD8LfyOYRIQYt+kKXPvPErJXxMEQE2LHNBG5DSgEbaQdax1pj83TnZ3rW6ng0w9oeLnOz0m5lLePOl2Et3q0FaMmC+G+u3ccBRba5ltFzgqz0xEb1iNsdWPgdeS4CdD3Xo00LrUiYrWkUwro40OVpKA6iwG6IuF55Zz6fsjbPvmTx2YAhyrVdKDjWoruQE8s8nj65203O+mNi1l4Zjarj7BwyuOrkB4xA2EWTmrFfaC+wVtg4Xm7jKU4oaK7VUohhjfVeoO9QmRVahoEj3szpTz8JbtA2dVtvg7NjDb1rgjzzpt4x0B1rB+sfBUAK+etxpjqYA9xUuuz/0C+0VFm0b7PWqTfEhLVNTPJQruUSFdD8stZAWy+x1u8Ec/OXrLUayyWqy2sNu09vJoX2BNm43EkVz7NWI0GIaEv80VhiIbo5ASvnrNCWtf96NvscnLDOeu+e4lVXFbzGdhO0IPYapAXfWaFlFDhLwNrGmvP65rOaJzqOibmcGKyQta332jVgLaRd754X2roNhhwRtD24ptwbRYa1pWNtrLHIxHaJ0ueGK3E68SJy3Qejcf1yLApkRWyNen/JWnVGYX6XW8N9IljLOSu0aBfKbKAVFgV0YzGKs0r65G99hKjtDSJ1Q5dz0tlPlqFwClYBFtY6JZV0W9F1ycMmZQttw8VNegK4c0KbGAOxlHfX8TBLWm9TBXQBbGBriptT5ArJtxj+GaEFWMh7qdgmDT9atVM8Cei+zEJZa6DdmoA777RWbJR4XrcB6Mu9QRfvnRV0s/JRj8IeZIFGoNKnPKlBlkH42nYACRbK1aoqgDyPh+kd2/blVveIVm50iLdpSoPcjrQNjBHYgpmtp4O2O37ARBo1wk4o4bRNhyBwmdIgAymDkUY9bzP2hxvZaIXQmmzjjbo+C1QjQ9rqlC4KUGnZrFiIlLrErNsAO7RHkY2Wo7i1uYXr0uDstNAyV+jhjSVWd8xaDRLzkW38IiF/vPTBz/si+NJo+Kk8pYsiyO00sALq6Hpzv8PzH/1B3adP4qDZWrbUaFP7qHbWii96A5IwMQOJpsgC/XhgO4CWw0SU6dJEbTzEkdieuMbYqpBWhV0T7rU1sF8fZVLtWctOYuWIADlVb36THl+nT1/j4/s0Z6rt28eVIR5cb+5k9Ow3mTJFjpjj5TfZnuel2EX5MioaQqzoXV+xTCfm7Wse5t9k+1WqjbLYYM7z6FWojNMqQenE8UwuXrX9ptrIRbFZ5keYCjlBMB+f/OQ1tsjb6S1y/U22V1NtOrjjeFES6HglfcpqtNH2SvUWGNffZCvNZqVoyBhYqjKc5wI6sbVJlzMw27aglq32qFvL+sU52/QnMQacNtVyClj2IWZ4KaWRsndg6gU4w2K2vVONtkymyJUxoC0pMjP9EMfQgh5lVN+Z/eRT1obJlojdeZtm1GNVro/x8XUGGT6KQdbNXG6yFpnYCiU2rYDuXduVqU6lxwQ1wxAN2BHbltxOnICbgp0G46NAdSjZtq1rgDuTIte1zzoMS0uR8Twq8vee7dQNAm4wm7DrCcA5yjQ9a2dS5Axb99cwtnVgd5T9/z9ISyMU+h7dHJbUdjuxURQSrRjFOp0e6zAsIzMlwC3GRakiC7RntE5RITyHS7Z57Qvd2r6ZRpH3aN6O7VI+7EIuwAbEaW4jTrC6tMJEcEV9U3+8fpVZSAukjEGgx+WEtcEavZ3c1Ls7dZ+hIhOxHMs868cgy9uPKNX24LaLLirbHUKjGZLuAxpmQAXfxxspOn/W/RKm2r4wP2BZaJBZtuyPfHNNFEWmY7zUSfQYWDnG9Bh006X9v9qb3uOZbm7nqCKb7j3WRJ0eH9d8TL6xctX4C2quShRadsGElpdlacuhe2UG0i6nyKbwMVzOvTk7reglDRYw5altsxY2rsh169F64ZyAtnXvLUfY83TgLDQM9v8Uvaz3EC3cYpKtV2Ril25NRVs6Lmcd12Ofao9bgMHjkjD77idAkdsqyvB2jvlPobcAix7f5ozOU3BRXT4Wypr5TBr0yHRReTsJbbPSFRN1f1x16xzGgpr6qM/96opo8sVqtqyYQtvHk5YDhMtFPS6+4IXLUWsrjxlB8EAJLpY81d0kq0CVeUjLueS7egxocJVLZKNJuOlaNVu1fqK3ivOQlu4Ho3RRDNFiLoCgsq209cl2vAh1WRphSwyXJ5OWPovVSHf1WDHraVtOzdaRth+3FRkjxWLj1uX2VNqShLZuSkB/XNTjFKZape3p7RVImSu3fF+RoS0n78oUc1pDWqPHbgFZaXuELKmL6oz0fUUuwlrO/GDSAux2hbTjSliu1WPU+EkTWFujz7HIF8UDZv4js4ELG0DvSFryrJ/L530UdVzTYD1GYI8akA5t51xSD7ItPWap/IEta56l0/6hLymADPWYBmbJ3MnaRhQzFA3wmiLabr6CY235uROfvbsrrsZbZNQPXGFhrN/gG2znaPlG8JuXi0aKbLsAMhL1QNISvnTbPxkEvusl+1qXT1fqn8nGf4IcF/0cy56yy7ZC2qc6qSqZFk0u4aY9QkjZ9jce2r2/nUOU/fmu+Gy7bLzdO1+f6KHwx/TVkJZRBGGjx5Ax3Ict3MtLM2vZO12hcHbZliDeL+lxcgygdDPOPaVRp026jfQYkHhXw+KNHl1fYYtXx0hF2Xa/PlaSK4AyGyDThmWfypdq9VjdURm3XF6Rd+3gYqJZWfvEyW0CUFXlKOrhBpX4kZ4xUe2KwUcSs1XkolOf9TS0ha+66JgeJccCKN00pO3KeZ0/Pm03b+d+ggxw4wLjLddKTD9NkqtELz01pOWZKLO4Z2h4Z+eBBl3lSKZ4UzPR5pIfg22R6OUbE/LQlTeQ9n4txEVFTiohO8zV7XS110Lb8C1PSrRbJ5v0MsczH8X1e5v2+cYPmAwBbcPixpc45LU9Jt2y+CRzvDh215sOQ3mZhITCDUXGSJ0dNdQrIFWbkR8z7zltEdO7tOYqH70e3w+G3InIEG2RqCaSXPMjEi2ahDc2oiQjyHtrory8ekV2+819qWJ1yaiB75p5V5muD0i0dE0MRTwiFFHJaN6noFfkEuLEQWIJpQFU5d3r7a1UXl6rkViZq5Pb6MfUqpCcbyXO+xvsVaLNG33KpATe9ggrtbSVrZJufccK4i1HvqHH44qcxoq7jEnmZ7rJDy2/M2eroDkqx/mMsZ60Xlu99VriBSY+0LgC9WPwAGy1V8iSH4xCppVLQCfdkVH+ub0lTj8XPsc2/ofOQG2v9tY2uRxk6NXWayzHGa0TatTQRAEqUH3vv90bVgd88cxHDiX5tL3+PWt+d2Ql3dha60KiHcxoGVRVj12jdEMW/QOYxLLzOV2HvkK3vum05+sW/pwgy9tqhHUHly9PiSTAjgg5rMXFu9WlHKTb8jBkc5yg0eB2hbSL4mQZ0Zc8sUBS427x+SBvtSV/fXvb6W0SGdaW7BqH0PUqaeGeb1UqONp+TXbK3dXJ2059DW55O2TBVXvilth02ri+uKGrC6RrXSWpV2TCgozrabuCK4bA+Y51QLjiQsobq7H2yI2Bri3utI0GWyv7B00UJARWgiPbPan1Qhw6hKqMwvvyNh0BpeUrj82P6F0FTtgLOqO0hfNxXCQtKUCeTceOU59NxZjfvpEaAytvkwtuSMuDJDFpEWGMFJpqjZRuC3vaVlkqG61UzBLoGvtvM78tx3TyGhSfpKPG2xySFtqCURr9tGRYyp4NbVmHETuVho3lqwP5TbDFMVyZoqNagqqvx0gAQr6EdrZlgOXXmGCC4/ph82jIi6y91uMNsK3rB93dsCQVgtONGQ+32fxcpJY1eCLOsB7eWtpm4k89QR1YUmd0hMWvH7/HlyufvM8pNjQTnN1Pi1MGExAeJy0GmwjxtC0y5eYb4AkHhxQF0D8e27wJDB+bb61gZXinCXcxqbIrWQr4ExcYSw25oS3J4t/Gd9lii5Ztr/xRyT9+CQpA9eMnr1daauILVDKgmspHW8zO4TNn2mHtd6iqC310WAL/9cM3gsr2Cfm8pJSXLRgp/X7ZToZ6ibQkveEmmOLHigtD2f7ZLsViS6xv7wD5x4kyagNBAXY7LbK5S7PAnA1pOQxp/ZNaw7TNaqGgre0mwc8FiX6Vn7lOQQDuB3FpLWtnOWFt8VoKLH4P3geIzG198XgP8YfXZD3l7Q8U5cIn5ONyscgW5K3jQowJTLNF387x7sfYPBWqdvjWMQ6Qu9YLxyv9uDmPHoqtRTaRrmSgXJFvj4mpfLTyquiWD7+UfCRusn3ttRharEfNP0uMO53Rz13s2KLGAq96KF87aspzjGYcAM4urk7xzVeH66WToR9D3H62duSsR7aixtfKQBsUAxHuuENbGyREo5yohtNk5ewPJG5Zs4VGoMJbBkgDVeUrGUkkEngp33y4m4M3KRaN16Uia1rWzPUS9/lTiJsqYBKDkj3sUCfQfF0YIxDQ41vdgHXCxOrjgWktSaF4bKHrNmTQeCPuP+yd7ZKjug5FS5LvD8/7P/Cp6ZqudbdxtQyGxKQRdAKcj9hsb0nYkngvuB5QloZ9N5SZisGp482LRPIpju0eh1NF2Xm2zYLHAVWSemyAt9y6CnmhcK3hb6TstlXSQFz5xM7JneHMMlPX2w8OUtXIUHAgDZEPJEelKJrs3Mu3gWu0g71tbY5sAU++c3Uc8Eu2OOwyoI0l0Wg486WKPve84y0LWo68y+QaLZNG6VUfrn8NqvAvzR6ZJi3isow4Wnkcv75NRiw+MpqAFQumrmi1NwBbK2Ouwl+2we5BVr0/NhSI3iAbJ7zNJM1aQJwCLFVrVtQyODm7IQS38Q3gWvnByKJMio9HteIif1UFAKT8fZqSoTFdt4zR8n1gydCk/Soxhq16UvCWC7Wav5Kx/eULPga7prqMdL6ELBrksGvJJ7feSt/RPJYqMSLMwWUGFy58q+bG3uItvwxYmtE94S7n6kzsLC5m+uCzKbE81TX1n9I4K55iyJlVsbHHR92gbeMt2/XPsZgDtm1TfLDQxaG8IGab1euxSZcf7c53NsyMmZYdvUCsdhzQznapXrZSa4WdPzSmliFkW+EWxWggOiCcUCFcq3Zhd0uiyDElf7e92HoXSbbLqetRAXaz6elYjwqWVQoB1Pxewig8a0g7RVtyyHDB05SHyXIVpc/TDpXPR9etj2rLWiibih+5IbAd1qJE45TKdNj94UjF/01gi1Lu7Px9X6inoutRas9TYtfvmEbWRldptPy7n1a4Wbc8n2caWy+KacfI4UP/lWI+TdeotQ4gy8/bWFcwrBuJTGtCKMKBz3mHaPD4AnHzmBybxBbiwldhLTdYyOvHYS31S8Dw3wlX2kvFh1fvjyHr0Il8Kh58ZqU7E5IDFPPYelFF3Kpj5P/Pym58zYL/XAbLlrSgDmUntHHx0UKt+lRr59aU5Jv5xquwhbhAJ+CinKGX4ms+BGrpjRB0Ql+wsjPIpuQzmQOEVKeV6Sn8gDriMZzPg9Sdla0LipgjBQFgWyklImwDsplZRClVREcM1/pbtZmUr/G8IJ0vIkLtHHENlh2sH0ReAF981mFsrc9aVZLAsFv0f/7zYEFiR5YBqLbJxJZxaltuYGLFJ6n9qc9BJccWqc2xDf+8osCB4sN3TyD+VtQ94l9DTbDviwdwRVPG+kheEGSS8JXTXySGehgNzTFWSDoIx/jYqitJsfEb15M61n9rJgLzvKDJEDgwHsnnMe0PQvTfqK+8jNjeCibCXI6y3guJsIf8h2d6Ur0MJE+xRSRNemedGSu3Apa+a2b14GMPhpa/q16vL0ExeewqEm1aJSgzAXsbcMN35nx1tBWFLkYNLfryiveGGsjKnquH6CkjAPZd62z3AdaLELYlbcm1HWwC4JRL81HJ+YQjEpJWSYdZErsHuLY7NQgs29TwdETL5JME3kyhmAc58/X93J3wllELzscKqXqs5xXnKUzth6dE0jfzjRNpOlFEVUTe0LpFl/C24quDG3awzkWrrSrI5oZWszCa9baLvOQ2uSGG7E6V1Ce6TWjRono5/EiepjgWVY49d61hrX5f+SZAFZK5c2xVKaGxmHFbkbqxv2mdhGoGNZxNZoiSZfvLvGS4W78+c2wZtVCW7yPZsxYvsLAHmoWG6hXnqDmy36RhZz3mKgl+pX1Fq4+ZH83wYEMp7xG/VjGbHzJbINotrOOjC231axeL6xe/paj++frDwvPW6B1VW+rmFsRETOkCfBXPmK/dyEbzGihOL0QWK6DJoYP5PNH0UqHGU36/Zg7zyQpwPVjpYh74AKbyntQrxQiF5W900joU2bolsc0GrM1LCZ+sYLJJMuCk5MiCKryV554rVfJx783kOW9jeo8SF3jLrBaeIUZIh+glfc1756QEiWJkVeBCAUqdmxrDVsez0vaUxGiLQ/gSKzdFWdHFzTai1xwokwTcC4Ro9nokls0USjmbraWq/C07QLWT6qwqpA19a+yIkIO3TAtdL8avV4zt6PK/A6MaJUrN1LN68S+4rfTw/BcQd24Fk36puvFYsMLtFM6y3nOxBD95gLde+hlvl9dkdDPzPIJ13n3qbzZ0Y6sqQ6YO/IVvV+7DW4awBU2OOGFy6h4SUg+BI1HMPqbTKQ7x5y1vbHateEQrBi1l0P9+TjJBg+uLASybljIbvCtCVk09t/e8agwZ5psJlhxQ5Q1feW3xoh3Rk2SeLQkiQ+KlQ3Wrk5mWysXbYc55BeeyNLhU9tvYVSAeXtYytB8FfCgW9voy3pr7Xv9I1ES+Oq8jfDPsAXdZYOX5DTDlw4+9JhV5+WupJl8bHZtcVShLLtXSbwzRtguBuVB8jLNJ5tvlktdTGeetdZ1JcUpYC1+SsTSUg+1bCGY5a294NdUkb3FBGuLygVpeD9if6iBwaoODfBVkadAcb5lQ7/iXHAPuUja222qlcfFZZK9yjq9vkjc6uO9nEvKwgFhpKUpbm/OYvo21vM2RQPY/31LSoL+Jol5gEoOInW1Du+e+LzGoJpN7r5Vo28P5sG9rO6p/vb1APdm4aWPDdz9FIkSiv02KhtoqvGVXLZJsIyb43YSFnT9sPkwOxVPSSXyJd/Oq7AuZMMp78ccVdBwBaa8WKShFgzjUFscuZCHFEpwFW22apmv5cGJ0v96XHkFde4Mi/rH0m14Y7raQoT16n/Vhaf0PQ+/oTIrBCCkqIUeimO3lBpZdPjasjWFk4YLgCrLvx1aztGTfVYukw1GOuExI6Yv0MMpDwe39o+KTxozgzhWwVanHZlOsUPaFMlENpnxcYHfz+Fd+nXN4uysJ18WOQY4FOIu4ZGgldVaymowCoN7IBtzryKsFG9m0ahijb3dOH+/+BFfuHsGPa/FWG7w3tjhAECbUzq1FgPdsWPs15aAqh/vXlwMSwAd80RWQZRHnhzEItuO+MneTE+VNEkk8jWrHe+qpZM7GgfVQ9dvGtsZaAULNfBkt3fkqf9vWreUCXOkXyKTq5l6xPqp91uJIpbo4d42Fv2jjZcRo5Cb9fe84tBPydoYRdrOI8traNE2qvIY+guxq2IIu9nZ3Fl60XDkkBJKbAG1fEpFlGChVJ4FFrE2qVt6uhCy+FLiqh0C+x7JFGa9nLGYWWDWXr4LsYuIoY9Zgj2dYxgcCi5nVZ0WwXg9ZfQjXFh9Oe49PARYxbJXQ9vt02dhrR790nKoD4Yn2WcCSNN9/fduyyJLOs+0A6WqXV6pYv5wUd6etT7MustSHahHmQvjpBaKWL+yHMm6wle2FyB7GFpaq0qGI0O3BDT806LGx4Cm1aRYW7ImqHXYC/e6rl80PuiEkwICwVIZeXKLjJswnz7rdk7DMGYNpL355QWTzgrE6OidqkXjc0MJCWR3e6obcKZu4tbOta1X80uJfKxWA86Dzm6NkQWDtB9wmh5as94mY0fUNLOJ0nAAvhRcldgcptJ4P2Sb8Bos78BXKbrP4uMDj7G0k8ojxGQPj8QLyzkdwGCnhSlq2dV3jPPhHP9hniwj5GvWQ87UADFHv6G7IUppFP9ja0m7rWd4SdlYBuCr2Vra4H7DMOuqHUhitPBfQ9FYlnBcdgrxcY6HzlhJdznJyXhEhA995svopwxoLq9utzSxiXXvbjt9i54WZlilQ7ezaNJC1s4oXN0WW0dsrNQPAp9eZcduJcCkR5icrq24mOMDiQ95XPHousmirq1Lev2PbSumgyavGL3AfZUWnXdrEgby9mI5bTvgG3NuLSUe1z7jKn9JbIqp/KHL9Gd21fnVVLqGMP0Tix6oefNwcXMM/rO03+70947wWCYcfw1xr+5a8g+BjpHQLkCqV78xcw/fdbtJPKPupxNWbgOa6I7geJJclJbDo3CdJafrdh5kCUfcClk7NvoLg/sRNSkTZ8qObiLy8V8w/fah4JGOag3voZTc0cQIrjvGHirXls3p55+vq5bzuEF2QP0KGPliCe9At/sXxutRlqVgLq+oB28mUXVa8dCmr1K2AW8zXtLAQVqvRKG+T8NyP1co99rZzy+spZg8FlWNhbfI499Faua1mALjbYi9hS+GKAG63rApLlr9FvGBS1bp2gAXdpXCl0TRWtQ0vCPxVYgqjKLMtERawu4Q/b9FTcOkLfvFvAxcIf2Stohv+Jn+YxnGkrFWgMbK/UIKbpLaWi5iyt5FXA55x88C3x1qM7O8UD+6SsoH7xVWReA28FkVdpp9YyyF+/W8G973hwpcEOD/AAm6Pm+lV4oavIeuUPMDOM5eqm6dy9QF2AXCRuXhiNwH1UcVrgUvIuPk4ovZdifMB9iI5D1wNJA8zb/f4KwVAz5J4gO2L1XvKr5+guHfhvlzsAXapEkKPiX2luD2a+HPF4k6EfTTx3qWWh7CP1R2X51nnUcyPIn4Jug+uD7oPrg+6D65riUd5/KaPFbd46Po88J4r5aHry9j7wPrR8L6AvvEo4c/Dt5QH1iXwLSdr4EcFrwXwNIPLA+rC4gSx7YuT+69dOzYCAAZBAFho4/4Lp0jBDJ7/K3BQYX13yFWxqr9JkJ0/nJICAMAVD9v6OsMlfFL/AAAAAElFTkSuQmCC;" parent="1" vertex="1">
                    <mxGeometry x="366" y="1873" width="143.09" height="160" as="geometry"/>
                </mxCell>
                <mxCell id="73" style="edgeStyle=orthogonalEdgeStyle;rounded=0;orthogonalLoop=1;jettySize=auto;html=1;entryX=0;entryY=0.5;entryDx=0;entryDy=0;strokeWidth=2;fillColor=#d5e8d4;strokeColor=#67AB9F;exitX=1;exitY=0;exitDx=0;exitDy=47.5;exitPerimeter=0;" parent="1" source="_NW8zd-T-IjyW-bk6Yj5-79" target="72" edge="1">
                    <mxGeometry relative="1" as="geometry">
                        <Array as="points">
                            <mxPoint x="-238" y="1494"/>
                        </Array>
                    </mxGeometry>
                </mxCell>
                <mxCell id="95" style="edgeStyle=orthogonalEdgeStyle;rounded=0;orthogonalLoop=1;jettySize=auto;html=1;exitX=1;exitY=0;exitDx=0;exitDy=112.5;exitPerimeter=0;strokeWidth=2;fillColor=#d5e8d4;strokeColor=#67AB9F;" parent="1" source="_NW8zd-T-IjyW-bk6Yj5-79" target="68" edge="1">
                    <mxGeometry relative="1" as="geometry">
                        <Array as="points">
                            <mxPoint x="-238" y="1575"/>
                        </Array>
                    </mxGeometry>
                </mxCell>
                <mxCell id="_NW8zd-T-IjyW-bk6Yj5-79" value="Signal provider" style="shape=cylinder3;whiteSpace=wrap;html=1;boundedLbl=1;backgroundOutline=1;size=15;fillColor=none;align=center;" parent="1" vertex="1">
                    <mxGeometry x="-358" y="1452" width="120" height="160" as="geometry"/>
                </mxCell>
                <mxCell id="_NW8zd-T-IjyW-bk6Yj5-88" style="edgeStyle=orthogonalEdgeStyle;rounded=0;orthogonalLoop=1;jettySize=auto;html=1;exitX=1;exitY=0.5;exitDx=0;exitDy=0;strokeColor=#67AB9F;strokeWidth=2;" parent="1" source="68" edge="1">
                    <mxGeometry relative="1" as="geometry">
                        <mxPoint x="350" y="1575" as="targetPoint"/>
                        <Array as="points">
                            <mxPoint x="350" y="1575"/>
                        </Array>
                    </mxGeometry>
                </mxCell>
                <mxCell id="_NW8zd-T-IjyW-bk6Yj5-87" value="&lt;font style=&quot;font-size: 30px&quot;&gt;Trade&lt;/font&gt;" style="text;html=1;strokeColor=none;fillColor=none;align=center;verticalAlign=middle;whiteSpace=wrap;rounded=0;" parent="1" vertex="1">
                    <mxGeometry x="214" y="1906" width="174.45" height="102" as="geometry"/>
                </mxCell>
                <mxCell id="_NW8zd-T-IjyW-bk6Yj5-93" value="&lt;ol&gt;&lt;li&gt;Order sizes&lt;br&gt;&lt;/li&gt;&lt;li&gt;Serum Market addresses&lt;/li&gt;&lt;li&gt;Side (buy, sell)&lt;/li&gt;&lt;/ol&gt;" style="text;html=1;strokeColor=none;fillColor=none;align=left;verticalAlign=middle;whiteSpace=wrap;rounded=0;" parent="1" vertex="1">
                    <mxGeometry x="-383" y="1346" width="210" height="110" as="geometry"/>
                </mxCell>
                <mxCell id="_NW8zd-T-IjyW-bk6Yj5-96" style="edgeStyle=orthogonalEdgeStyle;rounded=0;orthogonalLoop=1;jettySize=auto;html=1;exitX=0.5;exitY=1;exitDx=0;exitDy=0;strokeColor=#B5739D;strokeWidth=2;entryX=0.5;entryY=0;entryDx=0;entryDy=0;" parent="1" source="_NW8zd-T-IjyW-bk6Yj5-95" target="_NW8zd-T-IjyW-bk6Yj5-97" edge="1">
                    <mxGeometry relative="1" as="geometry">
                        <mxPoint x="-170.19047619047637" y="2090" as="targetPoint"/>
                    </mxGeometry>
                </mxCell>
                <mxCell id="_NW8zd-T-IjyW-bk6Yj5-99" style="edgeStyle=orthogonalEdgeStyle;rounded=0;orthogonalLoop=1;jettySize=auto;html=1;exitX=0;exitY=0.5;exitDx=0;exitDy=0;strokeColor=#B5739D;strokeWidth=2;entryX=0.5;entryY=1;entryDx=0;entryDy=0;entryPerimeter=0;" parent="1" source="_NW8zd-T-IjyW-bk6Yj5-95" target="_NW8zd-T-IjyW-bk6Yj5-79" edge="1">
                    <mxGeometry relative="1" as="geometry">
                        <Array as="points">
                            <mxPoint x="-298" y="1953"/>
                        </Array>
                        <mxPoint x="-263" y="1559" as="targetPoint"/>
                    </mxGeometry>
                </mxCell>
                <mxCell id="94" style="edgeStyle=orthogonalEdgeStyle;rounded=0;orthogonalLoop=1;jettySize=auto;html=1;entryX=0;entryY=0.5;entryDx=0;entryDy=0;entryPerimeter=0;strokeWidth=2;fillColor=#e1d5e7;strokeColor=#B5739D;" parent="1" source="_NW8zd-T-IjyW-bk6Yj5-95" target="90" edge="1">
                    <mxGeometry relative="1" as="geometry">
                        <Array as="points">
                            <mxPoint x="-172" y="1953"/>
                            <mxPoint x="-172" y="1228"/>
                        </Array>
                    </mxGeometry>
                </mxCell>
                <mxCell id="_NW8zd-T-IjyW-bk6Yj5-95" value="Fees" style="ellipse;whiteSpace=wrap;html=1;aspect=fixed;" parent="1" vertex="1">
                    <mxGeometry x="-117" y="1913" width="80" height="80" as="geometry"/>
                </mxCell>
                <mxCell id="_NW8zd-T-IjyW-bk6Yj5-97" value="Bonfida" style="rounded=0;whiteSpace=wrap;html=1;align=center;" parent="1" vertex="1">
                    <mxGeometry x="-137" y="2093" width="120" height="60" as="geometry"/>
                </mxCell>
                <mxCell id="_NW8zd-T-IjyW-bk6Yj5-101" value="Referrer Fees" style="text;html=1;strokeColor=none;fillColor=none;align=center;verticalAlign=middle;whiteSpace=wrap;rounded=0;" parent="1" vertex="1">
                    <mxGeometry x="384" y="2093" width="40" height="20" as="geometry"/>
                </mxCell>
                <mxCell id="_NW8zd-T-IjyW-bk6Yj5-102" value="Periodic fee collection&lt;br&gt;(permissionless crank)" style="text;html=1;strokeColor=none;fillColor=none;align=center;verticalAlign=middle;whiteSpace=wrap;rounded=0;" parent="1" vertex="1">
                    <mxGeometry x="70.23" y="1718" width="120.77" height="20" as="geometry"/>
                </mxCell>
                <mxCell id="30" style="edgeStyle=orthogonalEdgeStyle;rounded=0;orthogonalLoop=1;jettySize=auto;html=1;strokeWidth=2;fillColor=#fff2cc;strokeColor=#FFB570;" parent="1" source="_NW8zd-T-IjyW-bk6Yj5-111" target="29" edge="1">
                    <mxGeometry relative="1" as="geometry"/>
                </mxCell>
                <mxCell id="_NW8zd-T-IjyW-bk6Yj5-111" value="" style="html=1;verticalLabelPosition=bottom;align=center;labelBackgroundColor=#ffffff;verticalAlign=top;strokeWidth=2;strokeColor=#0080F0;shadow=0;dashed=0;shape=mxgraph.ios7.icons.wallet;fillColor=none;" parent="1" vertex="1">
                    <mxGeometry x="1351.5" y="1124" width="75" height="60" as="geometry"/>
                </mxCell>
                <mxCell id="_NW8zd-T-IjyW-bk6Yj5-112" value="User" style="shape=umlActor;verticalLabelPosition=bottom;verticalAlign=top;html=1;outlineConnect=0;" parent="1" vertex="1">
                    <mxGeometry x="1371.7" y="1008" width="30" height="60" as="geometry"/>
                </mxCell>
                <mxCell id="37" style="edgeStyle=orthogonalEdgeStyle;rounded=0;orthogonalLoop=1;jettySize=auto;html=1;strokeWidth=2;fillColor=#fff2cc;strokeColor=#FFB570;" parent="1" source="_NW8zd-T-IjyW-bk6Yj5-147" edge="1">
                    <mxGeometry relative="1" as="geometry">
                        <mxPoint x="750" y="1491" as="targetPoint"/>
                        <Array as="points">
                            <mxPoint x="750" y="1491"/>
                        </Array>
                    </mxGeometry>
                </mxCell>
                <mxCell id="_NW8zd-T-IjyW-bk6Yj5-147" value="" style="rounded=0;whiteSpace=wrap;html=1;fillColor=none;align=center;dashed=1;" parent="1" vertex="1">
                    <mxGeometry x="1159" y="1387" width="460" height="120" as="geometry"/>
                </mxCell>
                <mxCell id="_NW8zd-T-IjyW-bk6Yj5-151" style="edgeStyle=orthogonalEdgeStyle;rounded=0;orthogonalLoop=1;jettySize=auto;html=1;exitX=0.25;exitY=1;exitDx=0;exitDy=0;entryX=0.458;entryY=-0.017;entryDx=0;entryDy=0;entryPerimeter=0;strokeColor=#FFB570;strokeWidth=2;" parent="1" source="_NW8zd-T-IjyW-bk6Yj5-149" target="_NW8zd-T-IjyW-bk6Yj5-150" edge="1">
                    <mxGeometry relative="1" as="geometry">
                        <Array as="points">
                            <mxPoint x="1370" y="1622"/>
                            <mxPoint x="1370" y="1622"/>
                        </Array>
                    </mxGeometry>
                </mxCell>
                <mxCell id="_NW8zd-T-IjyW-bk6Yj5-154" style="edgeStyle=orthogonalEdgeStyle;rounded=0;orthogonalLoop=1;jettySize=auto;html=1;exitX=0.25;exitY=0;exitDx=0;exitDy=0;entryX=0.458;entryY=1;entryDx=0;entryDy=0;entryPerimeter=0;strokeWidth=2;strokeColor=#FFB570;" parent="1" source="_NW8zd-T-IjyW-bk6Yj5-149" target="_NW8zd-T-IjyW-bk6Yj5-147" edge="1">
                    <mxGeometry relative="1" as="geometry"/>
                </mxCell>
                <mxCell id="_NW8zd-T-IjyW-bk6Yj5-179" style="edgeStyle=orthogonalEdgeStyle;rounded=0;orthogonalLoop=1;jettySize=auto;html=1;exitX=0;exitY=0.5;exitDx=0;exitDy=0;entryX=0.5;entryY=1;entryDx=0;entryDy=0;strokeColor=#B5739D;strokeWidth=2;dashed=1;" parent="1" source="_NW8zd-T-IjyW-bk6Yj5-149" target="_NW8zd-T-IjyW-bk6Yj5-97" edge="1">
                    <mxGeometry relative="1" as="geometry">
                        <Array as="points">
                            <mxPoint x="874" y="1587"/>
                            <mxPoint x="874" y="2200"/>
                            <mxPoint x="-77" y="2200"/>
                        </Array>
                    </mxGeometry>
                </mxCell>
                <mxCell id="_NW8zd-T-IjyW-bk6Yj5-149" value="" style="shape=image;verticalLabelPosition=bottom;labelBackgroundColor=#ffffff;verticalAlign=top;aspect=fixed;imageAspect=0;image=data:image/png,iVBORw0KGgoAAAANSUhEUgAAAdoAAAISCAMAAABcaf7ZAAAAIVBMVEVHcEw/xthGyts9xNk4wtcVsst34+9AyNtd1+YFqsUpvNJceMTYAAAABXRSTlMAVR2Qwi5t4IQAADdjSURBVHja7F2BcuM6CCyI0fD/X/zmtdeskdNAjWllV7TXKHOnVGJhWcm27m16I+n/W+MpRsMfwxHit2U5o/4wmcCbDcNpC9y0K2G/7sxubGGbQnYmZ3LvC9uTkYXxXMN5W5ass7C2hnNtA//NlLbS90Zvy3LIwmiN5/rWn5r8Nh8vKXWyZoH94oAWtpU50mU6aOVtWQLZibJ2yeSsZJnKj4i2JaXKkO3tVwe1ym3W2pRelIVtAbKT7EYtbO/qQul9SalkTZtVsPS+pFSV/1bUZW2x3iq31RLK2tIBS0IVWltS6pjx/EnRF7any5Ql847Zyoiw8Sq359axpQeWhPqhEFwXb88iurX2XhJqSam1v7ik1JJQS0rVuWrOAa9y+yMEx0R8ImrEa8dxCmTpn5OFzhjJ48PWBb7qxQR9o6/wmRWflpSql1Bx/3KaPBa2P6RI5EcfZt4xxpJS9YU23vVU8uAlpVKWoDU506V8YACLkvMSKp40iaRd2M6y9Cc/HvLsEU/1ddBFTkL5Xdu5Jb8tKfXjhZZPdigd/Ly2di5qkK2HttMqtwnlknBoPbSd187FT0ooOZ8FXwC0yu2JexUVD+CWESutcmuNS3zZK6qDLCmVdmUeWaq5C3pJKWNVLMb9aH6VRQyv21dhXJIinYt4pNOSUsWF1ke2Clte5bb6NJeWQjZDCOt8muxeRaogVmLrdF0XChKVqQxZGB+XybzKrasn856vkslr58IzqSA9idQBLsW2/fly28rEsf+LOSmTV7n9flpoKivimHGCVNzu3PUvl1sGmnjB9AuRxb8so33aTEn/XLnd5SqMS4ogkE1gezT8FHPkv1Bo9Tkjc5k4tj7nyse45ctq0/9KodXdzCmZSfGU50qZ/JiP3rzc+umgsYmLrz7jUHGhTOY/urrtXR8aQ01cS6WEop0YKsSWEK/DHDv/rRWtfvz5HjZZem2VUkows20Q653LLWHKY4uysiaObD22j3jdaeV8uZ230Oo2V8FZrRBZdtBJ/Fa/p9693NpgVoCL2lcmjvlwT0qUW93XW71vuW1dbSyjeVzRJHKPCrFtCN4R3tsWWkvICjcltGqGVauCCnuNYxi3OxZaNXGM+VKdOOb+yqhMStlfjInrHcutDFoRiSuFaddfG9cdL0hdMVWbvHy7FS2mqoaripBF55K09+sIgEXB/fhxNzoGnJaOue4gkNZd4zopZfZkzMTbfQutfsaw9k4JCZVFNv0p/jIewOKNdrpXoTXTC65oKYlJNbYtMnqAe8NrtzQmLbK28OjGHjPhsvVTw7QBMqTjDYwxKfyIAJSRUNSj1uqevLV4KkC+CyUjcnWotFR2wj/1uLUymcwmaUFW6HeTdQ8QzhZaOQJGUaC4q1tF1ioAvgO2ZKusbhgqJaHyyMKoQkqho9qcvc31PSONDUFxmYTq3zUqO24Q9cck7R3KrQDN97mBn1qBLHX6VvCAH6I6pu3FKPlrWjXaUIP1sqUybAps4QFbbBHjF1/3KEBFmc0U2paoiw62NapOulqFfIsNR5bhUg/mRYkUKUC28lzrdzy1q+OEa1mDIOwa14d8bnLBXv6lVEkpttcyt564xR2Male1BT70keXXCqtV7Uphw3Fc28uVCy0iFS11PFEkjslbF7WqkwcFvIUl4GUpGfoBP/WzRaHE012j5ZD1/4m//XIsLCCgRv7iy9Kx2niNFlp40MCbRDaPbTNDimNLiO+Bv+Si13vUrmpVA5E6IBotaHGypYxMFgC0FRJ+uYUjUHavugLCNCAJI4XWeg2mfkq5yOax5a7Hyi08Ydb4V6TkZq9VYr3uFVrEAzql/hMA6/Y8tuBWNH25y4qln5qb4ISveWOFzVrfASMbIygkteyJR0H891iR6JdbhDqS9oKUbECFnPLo2CgNa3lk49wdv06ncRUmYKABYrraugdjR9ubvRUnaKjLk9/kWElgK4AG7OILRN74As2rrYAIIx+QbWEWt7xHeWStZZZAdmy6xdelZEwRrxdaAUEy2K+uwhFOBSt75SixVs1JKZO20U2V9twteiFKlmeo+rSKJBjLmBQcP84JbGmkYtROijsGX5ehZLKsgy+30EJxWbmRW9Aewdb/jUhaG4ccpDPrHLkQHT+bgnjeGnMhpjLooCSixBLIPNyi5p0f9fDJxShZMOIB3ZeFFliOlEyJZU9JTGCnG2oe79ohStYLUHLTDtqJ0zG8M6z7UhKq8L8IwSABbkDN61fYygXouB8YOwrtfrcmteypw7YNT0ME7x6nL6CdflPKRuW28VoLNTjIEJ2vHfEvR/UVkp27i23xwBAjCABRd6aqxjN46Tw/HT++8eoWWuMhCJNA7mjuSETTAzDHD2NEOKLRXtOa8REcpRPjinHbb7diwkHmIc348cPjgji+M8s71YY3wvEHeuwrOT6yyP5rz03JavMV7ySyca77pA1cX4I5+0KO1kVoRWUyjdmKF44xm1pO5guoY9VuRt05Qqr7pA2ggl567PBhwgcYiGIHbaLI2peX3VBrjb+6zE7HD0TBNuQXWnu9K3gUoho48Fb7wfNedQgxij4cYV79covgB8wzq+Qn9SOw7hmQATqKiTod960jh+arLdxBKaW22IYuwpL10Lt9tGlWOn6MeMha9grt/jt2+jUgASIHihY+wtaErtHDGNV0DlKyTds5VTJCEX9QRF4HMNwygsuRVAMImZMi0He3AhJvGLoHV71taFaFm4ygapMWWvAMqq6qeIz2/JuiG30A9vCxTGwexvEXqTCWxxDQ3+9I2hH9RnrS7HT8bt2lYxYwGH5GPLrfu0rd2cuDFtpiRLGo2LMIOZQMWDc5LLOqY7Oi9dVxQ64M6lSi5xUBU7+nv//Q91kb4w+MQdEMUDKyd1qVLI+RooJ0LwrJrFgMJ3Jk//Zp2iZunAaowCd20OZ2DFD7ElfJHW95NjrG6GzSvs50i0s0UXDVZX/QWPKUdaAaDhcWwzxRLheFIDFpIXPRMUYIcF06lm5x+Wx7OpHgwmGHIRXy+MhNzITKg72XPnrylxFQ/wwyI261hqizKasSokA1xBwutKYX0uSwmZz7jjQjhOh4YqFHyYbrPhHmuej4gSaC0ZkZUmNssI8s3I6+2XhnVMox5vwzBzGD8I3XDVQHj821l8xAc6i4HL07Ln6nDYuhYDTT633IOugz0DJHH9aKT4a3wG4V8zyULOCSzUAdV8vBO0na9gkiRVVEZUtYszoI/OBia0CNUhCbXMDW4zSUTNhSGcrG6079eaRLGNnxOfPzzgoFsBieuDXp+ZdHyciIzRuZho6RtttXijNY9FE+MjtFj8YBcexujxmR50spOfTUh3ZkxLbdaQ46NlmL1xgdbxt+oYWjbeM0Z/BuGRPd1X4KrBesNGQt2jzHBZ/nWcsh+oopSuTUtsN+Mz5vbMZjcHYI5UtsNUDkuxCXSS74YMkDoCkgOpC10UJrN3iRVich+x8756KkuA4D0fGjcIr//+BbNbd2Du1k3YIE8pgVDLBVSbAldatlh/3mfLm61N5wudU4FdddgAg+7E7JhXwDsG7tuFsWZ0aBQnsDrbyxq7qJlFpGrYVSpUGgTXDlNrHcyIcjqOTUlQlEsr3LGhqCW12hBeYa223dULV/Ca+JZDp7bfKH3qi4TT/s3NxOKu5AYDLVGSaegnf0ZW02xeXbJniuXF2eTkolOlMiayUEweTD/pRc4FLVd9VWZ6ZPUrjugjMUt+ntP+vnC3P4xxOM11HyPKy7/+g2z0Hr6biSz/JnIlQkmPJxe+ZKi6ugvqrnKpF9nF02lAyJ8V5233+fW4qTFkEuhusW/Lx5cvtOxlSNZUp2KlkVMvHNu7a0MiR6Mj8NzWvvMrMisI35hUNbbgkPTYClZLwoPFb3o2NixIwc+SgTcwFDdFpm+ef2mc03zh/+PvCqzTozdZR8M83tXhqKKDGeJUtMFReECy1niZ83N+hl/nStVga08ue4TKNKwu+54YP5XYtMVDuZXK3wXI5teec6m35nsHYkEMiJjpLLtGz7NLeaXWDWEs/P0Y+IN07WXOAK9b252/MLbapdoEPn8mIKFfmwDyX7PHPokxcKpo0sDz58aBGVvArsT2XpYuTeGEPJGIRed9BQ5KWWljw6h5ACQ9fA1b4OcWp+7xwr45UIU27NPGVB1aU9U8T2+PFenYXUq2NmKbGyhbbfrjZ6bdtyK0HlPa4NhKJyCLYa4fxpDbVsN5uX+IjliuwrHvOFFctHpsmNhuSWK7d14eZO16gmfKOQKXu0tL0ZOlYtxNST/yYkBp6qH0lhvlm97kYtG51QTvFEOINv+vgurSLJjqLq9gaSqLr8l+4fN+WPzJRv1K/n+836Emcu534AL/usQ6lV6yOJr9dChSM5/5M71bkSmK4xqdlRMvOEzKvNh9uezW2Vr4+mpHZ7oV3J9HOoCNVPCscs0oDgun15BS3J4SmZLCL7d9JQWAkLCz5U3yFyEv8on1SM0AVO91mp5MS8PSXvB9sXNFQh9TtKth2W0hq7pp8yWhleKQqhXVitRfWFdaC08zpUDt/3yIfkO1o8hOWd7rTm1TfkzLSj5vI8bOu+jU8dOYf8ZZ7M0t5+zUkkxOdsErxGu9uksBUF6Oa8z5pUfZWOIdUQ+nK/CrXfdkjSKhvtbksXHgN2490dNVSyW5h9H3NztWoZtbe6108kFIZ+ClO/QAkGj6ikXqTjxbwvDilaa30Cv73c3mb0U/06pdlDiSqZg4GWlMcIcw7unihs09cOxnD62lk8JWtna4DwMSW1ni/yKz9Gy6hSup5dCi2VX4PK5+TdNQdvWg+e/RufqnPCTLrrZqHtCj9IV/0NatkJML9Vt7+Syiaj3N4JKPQeUQnCr2f2srrMPdHfvffSuhxCSfmEqquWrvzkbiaHPrdRgLwPNp0zLmYmR1FSkFKbHt5afJiK3OIzCD/ssHRsEo4hWQLSo3nJETg0ge2RGp8sMwpmYAEWEPJnC60vnIzRdNoFoFt+JR2ahre9GbZJUmk7SeAlNWftapXWtLMSAvsqt7U3NkCZqGqIi8lYTEREmBv2K7R+aDc/tPQi2YFWLH2k8aHkbpSwfA1sbKGxf7mlcnoMhpvboozMx3dOq83e0tN0HM9x/a8897f017yr225wf5S4iiQRVlcykcfFzfhhr+52PSUXd0oTFLX3eCERVPkQzzzMuO6AhdZP6gVKdozXTDZsm65a3JvRUCvp+FCFlhFGuSgkOmLtSMPt28M2QQ6K2+yns94Fe3e0PmO3p+S62Ge27XOc7+DrjIbaiLgOVGj9IDf0RlaxCrLyG2gI2Laf9+3y1ANif/PUsiGHFcqfBLe+A7RzTk6foOP9+564INhSeQhq25vyvIBX+aq6qYaqRmwcudx6Sn5NSanbt4dtFo3W+DMainGF8vr4hdbTi8U6MfIu4Ug9Kb0lSwksg/JdGadk46/D9j3rx1qIUDBzk0a0/QBsu4lQzAmsGdOrdKxrpyDhYFZEVLpmEDeqWYKtwEL7ko0rrbJrGzPJMiHXIB23PqkPYn7b7eYpuU+HoRgFTVIRt6y0jIgU8mGSMz0d64ybzPuolNyeoOQq2Ig3QBrYjZzC5b8f0tImu9v47Kzn1nanY1sHtfF8Uk40E6kMHWvq503yU7HHe1RDsQjq00dPgxrOQcm+6mgXg2XfdoKtTZYbGU5DRJFpdj9Kg5Vs+nAWguGw1i0VQZoDty/QWXMNkCqdDZcbs14aovSgBeuu064cS44ep+/xKawhy/6cBloMbMX7QLdsJvO1mnvQElZGb2SXCgXWRA5rZVlfhpOYk0anqB+lpK/vaWEePlSrp0kxl2ZZc4G/I0dWVb1+8HNV1eKggh8JxHrYFh2Br4FFj4ZNbCYzYSrQsS1LJgIux1B6VjOqlAs3d1PyM5bBqjyLmS2H+vtsUjdZ5vB1dCuzkfuWjekJAgxsTQxWlROVRtnpaU5wtSQTS/6g40NbrpqWRoqQyUqwBum1K86b+CcTnD9v1M3BCXQx4TvlmSx0fHzLmpZWJlB/8I7VvGlq4v1Gb7t+FVxJdphgCjzIw9INYxdOOwsl847ONEVOlyGsV3lywkp5LNVzHKikgWUUUcXYjkvHHoO8+l8v4lbRvPEOuq3jtSIiKgZaZgjhjKYpovjYixUeg7JVl8dKqkkqe9h2MSAQa7R9r+eKvaMV8xpKFzEPTcceg8zBFKEZaoeTTlxdHFZWVVoe35nTRn2MNLPSgYVrM3LxNFbxD3MYYwq4BjduK2QvpW5VpcWaA20hC6TcFtvS8mLE38HXkjWjqz1FzhzDtumh63ZPCogVwvT37BGqsSDKC7KPan4qSp4Dqtlf9DQBr4GtoJbgbnFrFyXEzJCn7U8recgfyXAWy7M5s7gaTWpCZXsPaaXT+kpLdg0LiM6M0Q7FQSOodMFnsqQhbcgcI77UVRa2iDQQ/+JOs369B21PGW3MSn0Kcv/G2azMy4q9URtZIh/9+qR+RXo5E9v38wG72fB3j/RqaEGWUhva4ETG5NX1dvaggDMHsG3iXddYmg2KvhQ0C1rMDTVrwiIpGOy5KLnpgruTsErIBNh8xeyZXxkrp+P5bDqlJnOL3YfJFE+njlUR+t/OKMMq/jxsp/V7e4jt/kpGHreuOPuZ8aA2n9EyIcJreGzJNKv9on/qIuK2/f1leJhKK+LJNz4UGlM7zmGoSMIah62veYhkHub4war9PLpldDz0ynnZCD7oCwI7qVXR+wS3up1qbelNteXBx/xkE84jJI8VtR60jasyVirHOZVUvMJoqEjyMQyJpzzSy2uMjLL647UW5PEJcwprpwUtTNf7bQBbvIUvfLWdfckzo2wtnB5aabXElxAr6Dec2OYOM316xmfykp76hqe8lpYHWV2+ahM8KAJ1uWicUUN5t00tQl7y/tfjl69fV6SfAS3DkmcJ+4Bafmqry6gastdcU+PpGJ1GtSeen9Olzz19hFzAR1xwVsvxlMV1ve9CsNXYtvJ08ukV0lbCLen1eZ47sHhep2V+RvOcquGafAGUH849vUQzmRcHLVc18zmdZSbmpobzFh8meV50XXlMuABbckwctHPEktpntvQzHWYmc4tyeDLH9+CLDY9BfZ/351N+UhP5zGb6LKqc3WqXtR62T3YjtT2mTPsTpBRMPPKCj8XcVBunIEIqz5NpKO89YjyE7YD0DOcRpKACrY94BVvpKdC2AWiZ+XU0FFZxGX8GtkvRrYP6x5MY57CIIq6eIPpYWdDOj+eEs1tmelp2LGz1OeURL0hJj/oP1/9E14B2KVYOtEr4nHABK/hbYjBKdhKAE4rRKlrTI6wnrie8rgfunkPQysiQARexL2hYuS97Xamy0jG4Un8KywC8jsaJDqv5aXQqr35dx5LQHugoptrqcwBbpQRQ7sU7uhjU5ufkbvFspRUpf13IGveCSgZnW571OYgR4PAoB1XkGrCtz8jd53paSOFSsO2a9nF7VxedaJoSDqSYWzIRTh6ujSSm4CMFaKVUwN9XMUKF54fTTL0TTS/843V5VM/HilpAazRXsNLK4aaqXGi50cF2MbjZLAWLGUbOuiPjSmciBeKVVnIH3X4pQ4LIXAewnSNk4MissLVCitZk1pRlt1zBy1guMFmOvhhotffE92ZfFI9E6K8+HkSY7T1RcIjZksmalhxuQNuf8nU9K/iQqQ74KTVcifMnq3HUocnUiPlJyYWK5+jwTEijqxVnNXpPQOtgO/EkzHbLWxxa7CJjr1+HwyET4qDlheFfD7bMkA/NVWdqqEMVoCLIgUVGKYrF6UDO8aA1jdV1THQOn5JdIRC0DIUUzocUDIN3wc1WsfvmDdAyJkB+TdhiEx+rZUzFVx6jsEuH8uVQLvWwDlAomeB6NzBL+3PJSovzCRSwNTqnk1JGSKlPbe3UJZEpjdKMUfvWjaEwdAZzOSsCWg/bihLhxXUnvQpPg0QgdWxvRUYyCTPybjAk8RVtEbSTyX3VyK61Zd91rItKo2t2C5kkgo58yDd3YWL2Ha4NW7VBPcSVONatBLYGaAcamQNsG0wi6MUHoOW4q4LW79XZlWE8ypu9y9WvdyVdKXI7tdTZx/diOh8D2kvD1m2+ZYGrXTCqXJTXVtytLYS4mD1DLmszUgdBabg0bEEss3bMpmJzUBGXblAcLXWBK5Mz0pEbFD4G9M4HDrg+bHFBMvs/IpAMb87wkpZSDPRRGcZMr4N2W/YcrZRwfdjqUtBopQC+BItusVF/KFKWDgR9uL+Yjllha6kGaqLBvrJV5oqNyhagBYyuRxGb6pDoie+IjycFolvxVLs+aJVi1Yq7M01hm82SvzzmR2e44DG+2f7MEwUeEVG8c/jlYYtPY+s6UwfbZLhQLS2iW8nAcAHG0eOCfycfr9j5eEfd24T7re6iNhtO0EddLrW9MErmlj1pU93KN9qY+V3cKEXqgGKFlAAyD4/ubQlYwskjls8qjDk6wEoG41feksdGrrrL2o5TPKq+l47OwBA1bflYo1v/iajI5M3d44SJj46RtZoXu3HsSwK6yDe1njeuL6QwDwOFruFvpdtqxNY0YlhR6J5kfjFoSew4I4MYMBZ27bxR+V/Aooi+/1F9+zW1+//vYT5mtL8atsn0iUqyZbD9Ntc8aUbaU0+x5amNyLSmUfpl27YxIMSaUC3MSoj69RzqhRnH3qd/fPwca2Xv3ECrAlTvRLga95t2yvbVfmb/GHlwH41gzKOMnrlXqApozwIcCwz/8fFqDwCFKXh06Xd3SRsupzfPjGs3FtbHd5OzF7bcz/4eYmT18WswYyUw5v62aGZev4+PsUo8Ca/RyFGHKcZoVkar0s2Xbo4f8TGZev954+jfxcj3SL0Tz7p6V+Xg+X2NVS7z0q5PWqEhLm9dYO+O5xbCUV7EuAJ2Wncxte95dC/39vW7rBDVP4G9P4sGA7RpGTppfq+hx2EQ4oSU19+jj9ULd3j5vh12hrdxpJcK9/N8cb88H/ve/v7OisdW0ThNtvriu/DQ9yN//TKrf7wgmnJz8GCGYjcrtcwmzsf/sXc2ypHaQBC2fijX6v0fOCkK8l0LPC1MrsqLLDC7vsO+lXq6pyUNybNaYggacW6IeAsPHyX3U23bT1xEmg7aTGAjzZaI91U0X9f2cbXAPhGv+WO6VmUI1iMixH3v89ddVIWrzcTfBDt7zRLx/+Za+nsuaotPDdg6IbRp678S16B1w0dV83cO2vHwa1xnTLU6EniP4qFt3/RR342R1uFVg1iVYJ0u1YIWOZZZoEGr3SZb/b5Bbj4O2p/wzrjKiKHETm7fDKPVImkMrNK1pM3+zUgcNMDd39VJoUW4ttcALZkvBpAY/Iwf87+nhWtRG6hAXKaENkGIxpmHt4quW+TrxohP51fMMIP/aRC2cLIGW0HWoiXcLd+EtgkPh+Y+zWcB3YInUif1UT1rXSaDPX7xqt9cAy0QMHasz7PeIENd8suE0DISnH4eMoBJATl+ogI6rcW/RrfVWwwtdN1e/t6CxbusR3GGFhlc/RTzhJpA22TDyU5nuDFWCpIswTodtKB1nAiGaMEfvwdzpCdZWFH3um7yOxTvzzIttECFofJocbv1P0I5oNXWgvyuKyr+Zj2nhTbvcMoZ+WmG2rgU0h5WCmh1x9y6ciTFWXj6wc1ztm0wNgi2V1MDCb52Fkzj5ooxwiEl48pFMKKb9fhs80K7DwLgBoEOCdHHeBmpdZkywVpaDK2IxDBroe7c0CKd66tDS0Y7uBkFlZt7iTW/RVSihazdIpRjUmhhhR0NVUfBzGZJxTGRsSXVjgjF0EroL7SKFqSwgtcOS3nZVOcAo7IWbCO0UFdefY1F42fmZm2fb0PWooz25t4q7awlD8LfyOYRIQYt+kKXPvPErJXxMEQE2LHNBG5DSgEbaQdax1pj83TnZ3rW6ng0w9oeLnOz0m5lLePOl2Et3q0FaMmC+G+u3ccBRba5ltFzgqz0xEb1iNsdWPgdeS4CdD3Xo00LrUiYrWkUwro40OVpKA6iwG6IuF55Zz6fsjbPvmTx2YAhyrVdKDjWoruQE8s8nj65203O+mNi1l4Zjarj7BwyuOrkB4xA2EWTmrFfaC+wVtg4Xm7jKU4oaK7VUohhjfVeoO9QmRVahoEj3szpTz8JbtA2dVtvg7NjDb1rgjzzpt4x0B1rB+sfBUAK+etxpjqYA9xUuuz/0C+0VFm0b7PWqTfEhLVNTPJQruUSFdD8stZAWy+x1u8Ec/OXrLUayyWqy2sNu09vJoX2BNm43EkVz7NWI0GIaEv80VhiIbo5ASvnrNCWtf96NvscnLDOeu+e4lVXFbzGdhO0IPYapAXfWaFlFDhLwNrGmvP65rOaJzqOibmcGKyQta332jVgLaRd754X2roNhhwRtD24ptwbRYa1pWNtrLHIxHaJ0ueGK3E68SJy3Qejcf1yLApkRWyNen/JWnVGYX6XW8N9IljLOSu0aBfKbKAVFgV0YzGKs0r65G99hKjtDSJ1Q5dz0tlPlqFwClYBFtY6JZV0W9F1ycMmZQttw8VNegK4c0KbGAOxlHfX8TBLWm9TBXQBbGBriptT5ArJtxj+GaEFWMh7qdgmDT9atVM8Cei+zEJZa6DdmoA777RWbJR4XrcB6Mu9QRfvnRV0s/JRj8IeZIFGoNKnPKlBlkH42nYACRbK1aoqgDyPh+kd2/blVveIVm50iLdpSoPcjrQNjBHYgpmtp4O2O37ARBo1wk4o4bRNhyBwmdIgAymDkUY9bzP2hxvZaIXQmmzjjbo+C1QjQ9rqlC4KUGnZrFiIlLrErNsAO7RHkY2Wo7i1uYXr0uDstNAyV+jhjSVWd8xaDRLzkW38IiF/vPTBz/si+NJo+Kk8pYsiyO00sALq6Hpzv8PzH/1B3adP4qDZWrbUaFP7qHbWii96A5IwMQOJpsgC/XhgO4CWw0SU6dJEbTzEkdieuMbYqpBWhV0T7rU1sF8fZVLtWctOYuWIADlVb36THl+nT1/j4/s0Z6rt28eVIR5cb+5k9Ow3mTJFjpjj5TfZnuel2EX5MioaQqzoXV+xTCfm7Wse5t9k+1WqjbLYYM7z6FWojNMqQenE8UwuXrX9ptrIRbFZ5keYCjlBMB+f/OQ1tsjb6S1y/U22V1NtOrjjeFES6HglfcpqtNH2SvUWGNffZCvNZqVoyBhYqjKc5wI6sbVJlzMw27aglq32qFvL+sU52/QnMQacNtVyClj2IWZ4KaWRsndg6gU4w2K2vVONtkymyJUxoC0pMjP9EMfQgh5lVN+Z/eRT1obJlojdeZtm1GNVro/x8XUGGT6KQdbNXG6yFpnYCiU2rYDuXduVqU6lxwQ1wxAN2BHbltxOnICbgp0G46NAdSjZtq1rgDuTIte1zzoMS0uR8Twq8vee7dQNAm4wm7DrCcA5yjQ9a2dS5Axb99cwtnVgd5T9/z9ISyMU+h7dHJbUdjuxURQSrRjFOp0e6zAsIzMlwC3GRakiC7RntE5RITyHS7Z57Qvd2r6ZRpH3aN6O7VI+7EIuwAbEaW4jTrC6tMJEcEV9U3+8fpVZSAukjEGgx+WEtcEavZ3c1Ls7dZ+hIhOxHMs868cgy9uPKNX24LaLLirbHUKjGZLuAxpmQAXfxxspOn/W/RKm2r4wP2BZaJBZtuyPfHNNFEWmY7zUSfQYWDnG9Bh006X9v9qb3uOZbm7nqCKb7j3WRJ0eH9d8TL6xctX4C2quShRadsGElpdlacuhe2UG0i6nyKbwMVzOvTk7reglDRYw5altsxY2rsh169F64ZyAtnXvLUfY83TgLDQM9v8Uvaz3EC3cYpKtV2Ril25NRVs6Lmcd12Ofao9bgMHjkjD77idAkdsqyvB2jvlPobcAix7f5ozOU3BRXT4Wypr5TBr0yHRReTsJbbPSFRN1f1x16xzGgpr6qM/96opo8sVqtqyYQtvHk5YDhMtFPS6+4IXLUWsrjxlB8EAJLpY81d0kq0CVeUjLueS7egxocJVLZKNJuOlaNVu1fqK3ivOQlu4Ho3RRDNFiLoCgsq209cl2vAh1WRphSwyXJ5OWPovVSHf1WDHraVtOzdaRth+3FRkjxWLj1uX2VNqShLZuSkB/XNTjFKZape3p7RVImSu3fF+RoS0n78oUc1pDWqPHbgFZaXuELKmL6oz0fUUuwlrO/GDSAux2hbTjSliu1WPU+EkTWFujz7HIF8UDZv4js4ELG0DvSFryrJ/L530UdVzTYD1GYI8akA5t51xSD7ItPWap/IEta56l0/6hLymADPWYBmbJ3MnaRhQzFA3wmiLabr6CY235uROfvbsrrsZbZNQPXGFhrN/gG2znaPlG8JuXi0aKbLsAMhL1QNISvnTbPxkEvusl+1qXT1fqn8nGf4IcF/0cy56yy7ZC2qc6qSqZFk0u4aY9QkjZ9jce2r2/nUOU/fmu+Gy7bLzdO1+f6KHwx/TVkJZRBGGjx5Ax3Ict3MtLM2vZO12hcHbZliDeL+lxcgygdDPOPaVRp026jfQYkHhXw+KNHl1fYYtXx0hF2Xa/PlaSK4AyGyDThmWfypdq9VjdURm3XF6Rd+3gYqJZWfvEyW0CUFXlKOrhBpX4kZ4xUe2KwUcSs1XkolOf9TS0ha+66JgeJccCKN00pO3KeZ0/Pm03b+d+ggxw4wLjLddKTD9NkqtELz01pOWZKLO4Z2h4Z+eBBl3lSKZ4UzPR5pIfg22R6OUbE/LQlTeQ9n4txEVFTiohO8zV7XS110Lb8C1PSrRbJ5v0MsczH8X1e5v2+cYPmAwBbcPixpc45LU9Jt2y+CRzvDh215sOQ3mZhITCDUXGSJ0dNdQrIFWbkR8z7zltEdO7tOYqH70e3w+G3InIEG2RqCaSXPMjEi2ahDc2oiQjyHtrory8ekV2+819qWJ1yaiB75p5V5muD0i0dE0MRTwiFFHJaN6noFfkEuLEQWIJpQFU5d3r7a1UXl6rkViZq5Pb6MfUqpCcbyXO+xvsVaLNG33KpATe9ggrtbSVrZJufccK4i1HvqHH44qcxoq7jEnmZ7rJDy2/M2eroDkqx/mMsZ60Xlu99VriBSY+0LgC9WPwAGy1V8iSH4xCppVLQCfdkVH+ub0lTj8XPsc2/ofOQG2v9tY2uRxk6NXWayzHGa0TatTQRAEqUH3vv90bVgd88cxHDiX5tL3+PWt+d2Ql3dha60KiHcxoGVRVj12jdEMW/QOYxLLzOV2HvkK3vum05+sW/pwgy9tqhHUHly9PiSTAjgg5rMXFu9WlHKTb8jBkc5yg0eB2hbSL4mQZ0Zc8sUBS427x+SBvtSV/fXvb6W0SGdaW7BqH0PUqaeGeb1UqONp+TXbK3dXJ2059DW55O2TBVXvilth02ri+uKGrC6RrXSWpV2TCgozrabuCK4bA+Y51QLjiQsobq7H2yI2Bri3utI0GWyv7B00UJARWgiPbPan1Qhw6hKqMwvvyNh0BpeUrj82P6F0FTtgLOqO0hfNxXCQtKUCeTceOU59NxZjfvpEaAytvkwtuSMuDJDFpEWGMFJpqjZRuC3vaVlkqG61UzBLoGvtvM78tx3TyGhSfpKPG2xySFtqCURr9tGRYyp4NbVmHETuVho3lqwP5TbDFMVyZoqNagqqvx0gAQr6EdrZlgOXXmGCC4/ph82jIi6y91uMNsK3rB93dsCQVgtONGQ+32fxcpJY1eCLOsB7eWtpm4k89QR1YUmd0hMWvH7/HlyufvM8pNjQTnN1Pi1MGExAeJy0GmwjxtC0y5eYb4AkHhxQF0D8e27wJDB+bb61gZXinCXcxqbIrWQr4ExcYSw25oS3J4t/Gd9lii5Ztr/xRyT9+CQpA9eMnr1daauILVDKgmspHW8zO4TNn2mHtd6iqC310WAL/9cM3gsr2Cfm8pJSXLRgp/X7ZToZ6ibQkveEmmOLHigtD2f7ZLsViS6xv7wD5x4kyagNBAXY7LbK5S7PAnA1pOQxp/ZNaw7TNaqGgre0mwc8FiX6Vn7lOQQDuB3FpLWtnOWFt8VoKLH4P3geIzG198XgP8YfXZD3l7Q8U5cIn5ONyscgW5K3jQowJTLNF387x7sfYPBWqdvjWMQ6Qu9YLxyv9uDmPHoqtRTaRrmSgXJFvj4mpfLTyquiWD7+UfCRusn3ttRharEfNP0uMO53Rz13s2KLGAq96KF87aspzjGYcAM4urk7xzVeH66WToR9D3H62duSsR7aixtfKQBsUAxHuuENbGyREo5yohtNk5ewPJG5Zs4VGoMJbBkgDVeUrGUkkEngp33y4m4M3KRaN16Uia1rWzPUS9/lTiJsqYBKDkj3sUCfQfF0YIxDQ41vdgHXCxOrjgWktSaF4bKHrNmTQeCPuP+yd7ZKjug5FS5LvD8/7P/Cp6ZqudbdxtQyGxKQRdAKcj9hsb0nYkngvuB5QloZ9N5SZisGp482LRPIpju0eh1NF2Xm2zYLHAVWSemyAt9y6CnmhcK3hb6TstlXSQFz5xM7JneHMMlPX2w8OUtXIUHAgDZEPJEelKJrs3Mu3gWu0g71tbY5sAU++c3Uc8Eu2OOwyoI0l0Wg486WKPve84y0LWo68y+QaLZNG6VUfrn8NqvAvzR6ZJi3isow4Wnkcv75NRiw+MpqAFQumrmi1NwBbK2Ouwl+2we5BVr0/NhSI3iAbJ7zNJM1aQJwCLFVrVtQyODm7IQS38Q3gWvnByKJMio9HteIif1UFAKT8fZqSoTFdt4zR8n1gydCk/Soxhq16UvCWC7Wav5Kx/eULPga7prqMdL6ELBrksGvJJ7feSt/RPJYqMSLMwWUGFy58q+bG3uItvwxYmtE94S7n6kzsLC5m+uCzKbE81TX1n9I4K55iyJlVsbHHR92gbeMt2/XPsZgDtm1TfLDQxaG8IGab1euxSZcf7c53NsyMmZYdvUCsdhzQznapXrZSa4WdPzSmliFkW+EWxWggOiCcUCFcq3Zhd0uiyDElf7e92HoXSbbLqetRAXaz6elYjwqWVQoB1Pxewig8a0g7RVtyyHDB05SHyXIVpc/TDpXPR9etj2rLWiibih+5IbAd1qJE45TKdNj94UjF/01gi1Lu7Px9X6inoutRas9TYtfvmEbWRldptPy7n1a4Wbc8n2caWy+KacfI4UP/lWI+TdeotQ4gy8/bWFcwrBuJTGtCKMKBz3mHaPD4AnHzmBybxBbiwldhLTdYyOvHYS31S8Dw3wlX2kvFh1fvjyHr0Il8Kh58ZqU7E5IDFPPYelFF3Kpj5P/Pym58zYL/XAbLlrSgDmUntHHx0UKt+lRr59aU5Jv5xquwhbhAJ+CinKGX4ms+BGrpjRB0Ql+wsjPIpuQzmQOEVKeV6Sn8gDriMZzPg9Sdla0LipgjBQFgWyklImwDsplZRClVREcM1/pbtZmUr/G8IJ0vIkLtHHENlh2sH0ReAF981mFsrc9aVZLAsFv0f/7zYEFiR5YBqLbJxJZxaltuYGLFJ6n9qc9BJccWqc2xDf+8osCB4sN3TyD+VtQ94l9DTbDviwdwRVPG+kheEGSS8JXTXySGehgNzTFWSDoIx/jYqitJsfEb15M61n9rJgLzvKDJEDgwHsnnMe0PQvTfqK+8jNjeCibCXI6y3guJsIf8h2d6Ur0MJE+xRSRNemedGSu3Apa+a2b14GMPhpa/q16vL0ExeewqEm1aJSgzAXsbcMN35nx1tBWFLkYNLfryiveGGsjKnquH6CkjAPZd62z3AdaLELYlbcm1HWwC4JRL81HJ+YQjEpJWSYdZErsHuLY7NQgs29TwdETL5JME3kyhmAc58/X93J3wllELzscKqXqs5xXnKUzth6dE0jfzjRNpOlFEVUTe0LpFl/C24quDG3awzkWrrSrI5oZWszCa9baLvOQ2uSGG7E6V1Ce6TWjRono5/EiepjgWVY49d61hrX5f+SZAFZK5c2xVKaGxmHFbkbqxv2mdhGoGNZxNZoiSZfvLvGS4W78+c2wZtVCW7yPZsxYvsLAHmoWG6hXnqDmy36RhZz3mKgl+pX1Fq4+ZH83wYEMp7xG/VjGbHzJbINotrOOjC231axeL6xe/paj++frDwvPW6B1VW+rmFsRETOkCfBXPmK/dyEbzGihOL0QWK6DJoYP5PNH0UqHGU36/Zg7zyQpwPVjpYh74AKbyntQrxQiF5W900joU2bolsc0GrM1LCZ+sYLJJMuCk5MiCKryV554rVfJx783kOW9jeo8SF3jLrBaeIUZIh+glfc1756QEiWJkVeBCAUqdmxrDVsez0vaUxGiLQ/gSKzdFWdHFzTai1xwokwTcC4Ro9nokls0USjmbraWq/C07QLWT6qwqpA19a+yIkIO3TAtdL8avV4zt6PK/A6MaJUrN1LN68S+4rfTw/BcQd24Fk36puvFYsMLtFM6y3nOxBD95gLde+hlvl9dkdDPzPIJ13n3qbzZ0Y6sqQ6YO/IVvV+7DW4awBU2OOGFy6h4SUg+BI1HMPqbTKQ7x5y1vbHateEQrBi1l0P9+TjJBg+uLASybljIbvCtCVk09t/e8agwZ5psJlhxQ5Q1feW3xoh3Rk2SeLQkiQ+KlQ3Wrk5mWysXbYc55BeeyNLhU9tvYVSAeXtYytB8FfCgW9voy3pr7Xv9I1ES+Oq8jfDPsAXdZYOX5DTDlw4+9JhV5+WupJl8bHZtcVShLLtXSbwzRtguBuVB8jLNJ5tvlktdTGeetdZ1JcUpYC1+SsTSUg+1bCGY5a294NdUkb3FBGuLygVpeD9if6iBwaoODfBVkadAcb5lQ7/iXHAPuUja222qlcfFZZK9yjq9vkjc6uO9nEvKwgFhpKUpbm/OYvo21vM2RQPY/31LSoL+Jol5gEoOInW1Du+e+LzGoJpN7r5Vo28P5sG9rO6p/vb1APdm4aWPDdz9FIkSiv02KhtoqvGVXLZJsIyb43YSFnT9sPkwOxVPSSXyJd/Oq7AuZMMp78ccVdBwBaa8WKShFgzjUFscuZCHFEpwFW22apmv5cGJ0v96XHkFde4Mi/rH0m14Y7raQoT16n/Vhaf0PQ+/oTIrBCCkqIUeimO3lBpZdPjasjWFk4YLgCrLvx1aztGTfVYukw1GOuExI6Yv0MMpDwe39o+KTxozgzhWwVanHZlOsUPaFMlENpnxcYHfz+Fd+nXN4uysJ18WOQY4FOIu4ZGgldVaymowCoN7IBtzryKsFG9m0ahijb3dOH+/+BFfuHsGPa/FWG7w3tjhAECbUzq1FgPdsWPs15aAqh/vXlwMSwAd80RWQZRHnhzEItuO+MneTE+VNEkk8jWrHe+qpZM7GgfVQ9dvGtsZaAULNfBkt3fkqf9vWreUCXOkXyKTq5l6xPqp91uJIpbo4d42Fv2jjZcRo5Cb9fe84tBPydoYRdrOI8traNE2qvIY+guxq2IIu9nZ3Fl60XDkkBJKbAG1fEpFlGChVJ4FFrE2qVt6uhCy+FLiqh0C+x7JFGa9nLGYWWDWXr4LsYuIoY9Zgj2dYxgcCi5nVZ0WwXg9ZfQjXFh9Oe49PARYxbJXQ9vt02dhrR790nKoD4Yn2WcCSNN9/fduyyJLOs+0A6WqXV6pYv5wUd6etT7MustSHahHmQvjpBaKWL+yHMm6wle2FyB7GFpaq0qGI0O3BDT806LGx4Cm1aRYW7ImqHXYC/e6rl80PuiEkwICwVIZeXKLjJswnz7rdk7DMGYNpL355QWTzgrE6OidqkXjc0MJCWR3e6obcKZu4tbOta1X80uJfKxWA86Dzm6NkQWDtB9wmh5as94mY0fUNLOJ0nAAvhRcldgcptJ4P2Sb8Bos78BXKbrP4uMDj7G0k8ojxGQPj8QLyzkdwGCnhSlq2dV3jPPhHP9hniwj5GvWQ87UADFHv6G7IUppFP9ja0m7rWd4SdlYBuCr2Vra4H7DMOuqHUhitPBfQ9FYlnBcdgrxcY6HzlhJdznJyXhEhA995svopwxoLq9utzSxiXXvbjt9i54WZlilQ7ezaNJC1s4oXN0WW0dsrNQPAp9eZcduJcCkR5icrq24mOMDiQ95XPHousmirq1Lev2PbSumgyavGL3AfZUWnXdrEgby9mI5bTvgG3NuLSUe1z7jKn9JbIqp/KHL9Gd21fnVVLqGMP0Tix6oefNwcXMM/rO03+70947wWCYcfw1xr+5a8g+BjpHQLkCqV78xcw/fdbtJPKPupxNWbgOa6I7geJJclJbDo3CdJafrdh5kCUfcClk7NvoLg/sRNSkTZ8qObiLy8V8w/fah4JGOag3voZTc0cQIrjvGHirXls3p55+vq5bzuEF2QP0KGPliCe9At/sXxutRlqVgLq+oB28mUXVa8dCmr1K2AW8zXtLAQVqvRKG+T8NyP1co99rZzy+spZg8FlWNhbfI499Faua1mALjbYi9hS+GKAG63rApLlr9FvGBS1bp2gAXdpXCl0TRWtQ0vCPxVYgqjKLMtERawu4Q/b9FTcOkLfvFvAxcIf2Stohv+Jn+YxnGkrFWgMbK/UIKbpLaWi5iyt5FXA55x88C3x1qM7O8UD+6SsoH7xVWReA28FkVdpp9YyyF+/W8G973hwpcEOD/AAm6Pm+lV4oavIeuUPMDOM5eqm6dy9QF2AXCRuXhiNwH1UcVrgUvIuPk4ovZdifMB9iI5D1wNJA8zb/f4KwVAz5J4gO2L1XvKr5+guHfhvlzsAXapEkKPiX2luD2a+HPF4k6EfTTx3qWWh7CP1R2X51nnUcyPIn4Jug+uD7oPrg+6D65riUd5/KaPFbd46Po88J4r5aHry9j7wPrR8L6AvvEo4c/Dt5QH1iXwLSdr4EcFrwXwNIPLA+rC4gSx7YuT+69dOzYCAAZBAFho4/4Lp0jBDJ7/K3BQYX13yFWxqr9JkJ0/nJICAMAVD9v6OsMlfFL/AAAAAElFTkSuQmCC;" parent="1" vertex="1">
                    <mxGeometry x="1359" y="1563.13" width="42.7" height="47.75" as="geometry"/>
                </mxCell>
                <mxCell id="53" style="edgeStyle=orthogonalEdgeStyle;rounded=0;orthogonalLoop=1;jettySize=auto;html=1;strokeColor=#FFB570;strokeWidth=2;" parent="1" source="_NW8zd-T-IjyW-bk6Yj5-150" target="45" edge="1">
                    <mxGeometry relative="1" as="geometry"/>
                </mxCell>
                <mxCell id="_NW8zd-T-IjyW-bk6Yj5-150" value="" style="rounded=0;whiteSpace=wrap;html=1;fillColor=none;align=center;dashed=1;" parent="1" vertex="1">
                    <mxGeometry x="1159" y="1654" width="460" height="120" as="geometry"/>
                </mxCell>
                <mxCell id="_NW8zd-T-IjyW-bk6Yj5-152" style="edgeStyle=orthogonalEdgeStyle;rounded=0;orthogonalLoop=1;jettySize=auto;html=1;exitX=0.25;exitY=1;exitDx=0;exitDy=0;entryX=0.458;entryY=-0.017;entryDx=0;entryDy=0;entryPerimeter=0;strokeColor=#FFB570;strokeWidth=2;" parent="1" edge="1">
                    <mxGeometry relative="1" as="geometry">
                        <mxPoint x="1388.87" y="1651.96" as="sourcePoint"/>
                        <mxPoint x="1388.8650000000002" y="1610.88" as="targetPoint"/>
                    </mxGeometry>
                </mxCell>
                <mxCell id="_NW8zd-T-IjyW-bk6Yj5-155" style="edgeStyle=orthogonalEdgeStyle;rounded=0;orthogonalLoop=1;jettySize=auto;html=1;exitX=0.25;exitY=0;exitDx=0;exitDy=0;entryX=0.458;entryY=1;entryDx=0;entryDy=0;entryPerimeter=0;strokeWidth=2;strokeColor=#FFB570;" parent="1" edge="1">
                    <mxGeometry relative="1" as="geometry">
                        <mxPoint x="1388.7999999999997" y="1512" as="sourcePoint"/>
                        <mxPoint x="1388.7949999999996" y="1563.13" as="targetPoint"/>
                    </mxGeometry>
                </mxCell>
                <mxCell id="_NW8zd-T-IjyW-bk6Yj5-159" style="edgeStyle=orthogonalEdgeStyle;rounded=0;orthogonalLoop=1;jettySize=auto;html=1;strokeWidth=2;strokeColor=#FFB570;" parent="1" edge="1">
                    <mxGeometry relative="1" as="geometry">
                        <mxPoint x="750" y="1665" as="sourcePoint"/>
                        <mxPoint x="1156" y="1665" as="targetPoint"/>
                        <Array as="points">
                            <mxPoint x="1156" y="1665"/>
                        </Array>
                    </mxGeometry>
                </mxCell>
                <mxCell id="_NW8zd-T-IjyW-bk6Yj5-160" value="" style="rounded=0;whiteSpace=wrap;html=1;align=center;fillColor=#7EA6E0;strokeColor=#7EA6E0;" parent="1" vertex="1">
                    <mxGeometry x="590" y="1883" width="50" height="20" as="geometry"/>
                </mxCell>
                <mxCell id="_NW8zd-T-IjyW-bk6Yj5-162" value="Create Operations" style="text;html=1;strokeColor=none;fillColor=none;align=center;verticalAlign=middle;whiteSpace=wrap;rounded=0;dashed=1;" parent="1" vertex="1">
                    <mxGeometry x="660" y="1883" width="90" height="20" as="geometry"/>
                </mxCell>
                <mxCell id="_NW8zd-T-IjyW-bk6Yj5-163" value="" style="rounded=0;whiteSpace=wrap;html=1;align=center;fillColor=#FFB570;strokeColor=#FFB570;" parent="1" vertex="1">
                    <mxGeometry x="590" y="1933" width="50" height="20" as="geometry"/>
                </mxCell>
                <mxCell id="_NW8zd-T-IjyW-bk6Yj5-164" value="Deposit/Withdraw&lt;br&gt;Operations" style="text;html=1;strokeColor=none;fillColor=none;align=center;verticalAlign=middle;whiteSpace=wrap;rounded=0;dashed=1;" parent="1" vertex="1">
                    <mxGeometry x="660" y="1933" width="90" height="20" as="geometry"/>
                </mxCell>
                <mxCell id="_NW8zd-T-IjyW-bk6Yj5-166" value="" style="rounded=0;whiteSpace=wrap;html=1;align=center;fillColor=#67AB9F;strokeColor=#67AB9F;" parent="1" vertex="1">
                    <mxGeometry x="590" y="1983" width="50" height="20" as="geometry"/>
                </mxCell>
                <mxCell id="_NW8zd-T-IjyW-bk6Yj5-168" value="Trade Operations" style="text;html=1;strokeColor=none;fillColor=none;align=center;verticalAlign=middle;whiteSpace=wrap;rounded=0;dashed=1;" parent="1" vertex="1">
                    <mxGeometry x="660" y="1983" width="90" height="20" as="geometry"/>
                </mxCell>
                <mxCell id="_NW8zd-T-IjyW-bk6Yj5-169" value="Pool" style="text;strokeColor=none;fillColor=none;html=1;fontSize=24;fontStyle=1;verticalAlign=middle;align=center;" parent="1" vertex="1">
                    <mxGeometry x="360" y="1420" width="100" height="40" as="geometry"/>
                </mxCell>
                <mxCell id="_NW8zd-T-IjyW-bk6Yj5-173" value="" style="rounded=0;whiteSpace=wrap;html=1;align=center;fillColor=#B5739D;strokeColor=#B5739D;" parent="1" vertex="1">
                    <mxGeometry x="590" y="2043" width="50" height="20" as="geometry"/>
                </mxCell>
                <mxCell id="_NW8zd-T-IjyW-bk6Yj5-174" value="Fees Operations" style="text;html=1;strokeColor=none;fillColor=none;align=center;verticalAlign=middle;whiteSpace=wrap;rounded=0;dashed=1;" parent="1" vertex="1">
                    <mxGeometry x="660" y="2043" width="90" height="20" as="geometry"/>
                </mxCell>
                <mxCell id="_NW8zd-T-IjyW-bk6Yj5-175" value="Takes the SPL token X deposited by the user and goes to Serum to trade it in order to obtain the basket of tokens in the right pool proportions" style="text;html=1;strokeColor=none;fillColor=none;align=left;verticalAlign=middle;whiteSpace=wrap;rounded=0;" parent="1" vertex="1">
                    <mxGeometry x="1189" y="1407" width="420" height="70" as="geometry"/>
                </mxCell>
                <mxCell id="_NW8zd-T-IjyW-bk6Yj5-176" value="Takes the basket of tokens in the pool and goes to Serum to trades it for the redeem currency" style="text;html=1;strokeColor=none;fillColor=none;align=left;verticalAlign=middle;whiteSpace=wrap;rounded=0;" parent="1" vertex="1">
                    <mxGeometry x="1179" y="1674" width="420" height="70" as="geometry"/>
                </mxCell>
                <mxCell id="_NW8zd-T-IjyW-bk6Yj5-180" value="Referrer&lt;br&gt;Fees" style="text;html=1;strokeColor=none;fillColor=none;align=center;verticalAlign=middle;whiteSpace=wrap;rounded=0;" parent="1" vertex="1">
                    <mxGeometry x="70.23" y="2170" width="40" height="20" as="geometry"/>
                </mxCell>
                <mxCell id="19" style="edgeStyle=orthogonalEdgeStyle;rounded=0;orthogonalLoop=1;jettySize=auto;html=1;fillColor=#dae8fc;strokeColor=#6c8ebf;" parent="1" source="11" target="14" edge="1">
                    <mxGeometry relative="1" as="geometry"/>
                </mxCell>
                <mxCell id="11" value="" style="html=1;verticalLabelPosition=bottom;align=center;labelBackgroundColor=#ffffff;verticalAlign=top;strokeWidth=2;strokeColor=#0080F0;shadow=0;dashed=0;shape=mxgraph.ios7.icons.wallet;fillColor=none;" parent="1" vertex="1">
                    <mxGeometry x="512.5" y="1058" width="75" height="60" as="geometry"/>
                </mxCell>
                <mxCell id="12" value="Pool creator" style="shape=umlActor;verticalLabelPosition=bottom;verticalAlign=top;html=1;outlineConnect=0;" parent="1" vertex="1">
                    <mxGeometry x="530" y="958" width="30" height="60" as="geometry"/>
                </mxCell>
                <mxCell id="18" style="edgeStyle=orthogonalEdgeStyle;rounded=0;orthogonalLoop=1;jettySize=auto;html=1;entryX=0.25;entryY=0;entryDx=0;entryDy=0;fillColor=#dae8fc;strokeColor=#6c8ebf;" parent="1" source="14" edge="1">
                    <mxGeometry relative="1" as="geometry">
                        <mxPoint x="550" y="1400" as="targetPoint"/>
                    </mxGeometry>
                </mxCell>
                <mxCell id="14" value="- Sets signal provider&lt;br&gt;- Decides of available markets&lt;br&gt;- Deposits initial amounts into pool&amp;nbsp;" style="rounded=0;whiteSpace=wrap;html=1;fillColor=#dae8fc;strokeColor=#6c8ebf;" parent="1" vertex="1">
                    <mxGeometry x="447" y="1214" width="206" height="79" as="geometry"/>
                </mxCell>
                <mxCell id="32" style="edgeStyle=orthogonalEdgeStyle;rounded=0;orthogonalLoop=1;jettySize=auto;html=1;entryX=0.5;entryY=0;entryDx=0;entryDy=0;strokeWidth=2;fillColor=#fff2cc;strokeColor=#FFB570;" parent="1" source="29" target="_NW8zd-T-IjyW-bk6Yj5-147" edge="1">
                    <mxGeometry relative="1" as="geometry"/>
                </mxCell>
                <mxCell id="29" value="X amount of an arbitrary token" style="rounded=0;whiteSpace=wrap;html=1;fillColor=#ffe6cc;strokeColor=#FFB570;" parent="1" vertex="1">
                    <mxGeometry x="1286" y="1229" width="206" height="79" as="geometry"/>
                </mxCell>
                <mxCell id="43" value="Withdraw from pool" style="text;html=1;strokeColor=none;fillColor=none;align=center;verticalAlign=middle;whiteSpace=wrap;rounded=0;" parent="1" vertex="1">
                    <mxGeometry x="1203" y="1980" width="140" height="20" as="geometry"/>
                </mxCell>
                <mxCell id="60" style="edgeStyle=orthogonalEdgeStyle;rounded=0;orthogonalLoop=1;jettySize=auto;html=1;entryX=1;entryY=0.5;entryDx=0;entryDy=0;strokeColor=#FFB570;strokeWidth=2;" parent="1" source="45" target="49" edge="1">
                    <mxGeometry relative="1" as="geometry"/>
                </mxCell>
                <mxCell id="45" value="" style="html=1;verticalLabelPosition=bottom;align=center;labelBackgroundColor=#ffffff;verticalAlign=top;strokeWidth=2;strokeColor=#0080F0;shadow=0;dashed=0;shape=mxgraph.ios7.icons.wallet;fillColor=none;" parent="1" vertex="1">
                    <mxGeometry x="1351.5" y="1870.5" width="75" height="60" as="geometry"/>
                </mxCell>
                <mxCell id="46" value="User" style="shape=umlActor;verticalLabelPosition=bottom;verticalAlign=top;html=1;outlineConnect=0;" parent="1" vertex="1">
                    <mxGeometry x="1374" y="1950" width="30" height="60" as="geometry"/>
                </mxCell>
                <mxCell id="52" style="edgeStyle=orthogonalEdgeStyle;rounded=0;orthogonalLoop=1;jettySize=auto;html=1;entryX=1;entryY=0.75;entryDx=0;entryDy=0;strokeColor=#FFB570;strokeWidth=2;exitX=0;exitY=0.5;exitDx=0;exitDy=0;" parent="1" source="49" target="_NW8zd-T-IjyW-bk6Yj5-42" edge="1">
                    <mxGeometry relative="1" as="geometry">
                        <Array as="points">
                            <mxPoint x="988" y="1911"/>
                            <mxPoint x="988" y="1693"/>
                        </Array>
                    </mxGeometry>
                </mxCell>
                <mxCell id="49" value="X amount of pool tokens" style="rounded=0;whiteSpace=wrap;html=1;fillColor=#ffe6cc;strokeColor=#FFB570;" parent="1" vertex="1">
                    <mxGeometry x="1026.6" y="1861" width="206" height="79" as="geometry"/>
                </mxCell>
                <mxCell id="61" style="edgeStyle=orthogonalEdgeStyle;rounded=0;orthogonalLoop=1;jettySize=auto;html=1;entryX=0.02;entryY=0.583;entryDx=0;entryDy=0;entryPerimeter=0;strokeColor=#FFB570;strokeWidth=2;" parent="1" source="56" target="_NW8zd-T-IjyW-bk6Yj5-111" edge="1">
                    <mxGeometry relative="1" as="geometry">
                        <Array as="points">
                            <mxPoint x="1130" y="1159"/>
                        </Array>
                    </mxGeometry>
                </mxCell>
                <mxCell id="56" value="X amount of pool token" style="rounded=0;whiteSpace=wrap;html=1;fillColor=#ffe6cc;strokeColor=#FFB570;" parent="1" vertex="1">
                    <mxGeometry x="1026.6" y="1229" width="206" height="79" as="geometry"/>
                </mxCell>
                <mxCell id="57" style="edgeStyle=orthogonalEdgeStyle;rounded=0;orthogonalLoop=1;jettySize=auto;html=1;strokeColor=#FFB570;strokeWidth=2;entryX=0;entryY=0.5;entryDx=0;entryDy=0;" parent="1" source="_NW8zd-T-IjyW-bk6Yj5-42" target="56" edge="1">
                    <mxGeometry relative="1" as="geometry">
                        <mxPoint x="750" y="1452.058823529412" as="sourcePoint"/>
                        <mxPoint x="1020" y="1326" as="targetPoint"/>
                        <Array as="points">
                            <mxPoint x="990" y="1460"/>
                            <mxPoint x="990" y="1269"/>
                        </Array>
                    </mxGeometry>
                </mxCell>
                <mxCell id="58" value="JS Bindings" style="text;strokeColor=none;fillColor=none;html=1;fontSize=24;fontStyle=1;verticalAlign=middle;align=center;" parent="1" vertex="1">
                    <mxGeometry x="1476" y="1558.7500000000002" width="143" height="40" as="geometry"/>
                </mxCell>
                <mxCell id="68" value="&lt;span&gt;- Create Order&lt;br&gt;- Cancel Order&lt;br&gt;&lt;/span&gt;(both signed by the signal provider)" style="rounded=0;whiteSpace=wrap;html=1;fillColor=#d5e8d4;strokeColor=#82b366;" parent="1" vertex="1">
                    <mxGeometry x="-72.5" y="1550" width="292" height="49" as="geometry"/>
                </mxCell>
                <mxCell id="74" style="edgeStyle=orthogonalEdgeStyle;rounded=0;orthogonalLoop=1;jettySize=auto;html=1;entryX=0;entryY=0.066;entryDx=0;entryDy=0;strokeWidth=2;fillColor=#d5e8d4;strokeColor=#67AB9F;entryPerimeter=0;" parent="1" source="72" edge="1">
                    <mxGeometry relative="1" as="geometry">
                        <mxPoint x="350" y="1494.7399999999998" as="targetPoint"/>
                        <Array as="points">
                            <mxPoint x="293" y="1494"/>
                            <mxPoint x="350" y="1495"/>
                        </Array>
                    </mxGeometry>
                </mxCell>
                <mxCell id="72" value="Settle funds (unsigned):&lt;br&gt;Retrieve all unlocked funds from the serum openOrder account to the pool asset accounts" style="rounded=0;whiteSpace=wrap;html=1;fillColor=#d5e8d4;strokeColor=#82b366;" parent="1" vertex="1">
                    <mxGeometry x="-72" y="1464" width="291" height="60" as="geometry"/>
                </mxCell>
                <mxCell id="93" style="edgeStyle=orthogonalEdgeStyle;rounded=0;orthogonalLoop=1;jettySize=auto;html=1;entryX=0.172;entryY=0.017;entryDx=0;entryDy=0;entryPerimeter=0;strokeColor=#67AB9F;strokeWidth=2;" parent="1" source="90" target="72" edge="1">
                    <mxGeometry relative="1" as="geometry"/>
                </mxCell>
                <mxCell id="90" value="Cranker" style="shape=cylinder3;whiteSpace=wrap;html=1;boundedLbl=1;backgroundOutline=1;size=15;fillColor=none;align=center;" parent="1" vertex="1">
                    <mxGeometry x="-82" y="1148" width="120" height="160" as="geometry"/>
                </mxCell>
                <mxCell id="91" value="&lt;font style=&quot;font-size: 18px&quot;&gt;JS Bindings&lt;/font&gt;" style="text;strokeColor=none;fillColor=none;html=1;fontSize=24;fontStyle=1;verticalAlign=middle;align=center;" parent="1" vertex="1">
                    <mxGeometry x="2" y="1412.0000000000002" width="143" height="40" as="geometry"/>
                </mxCell>
                <mxCell id="96" value="50 %" style="text;html=1;strokeColor=none;fillColor=none;align=center;verticalAlign=middle;whiteSpace=wrap;rounded=0;" vertex="1" parent="1">
                    <mxGeometry x="-163" y="1926" width="40" height="20" as="geometry"/>
                </mxCell>
                <mxCell id="97" value="25%&lt;br&gt;" style="text;html=1;strokeColor=none;fillColor=none;align=center;verticalAlign=middle;whiteSpace=wrap;rounded=0;" vertex="1" parent="1">
                    <mxGeometry x="-69" y="2030" width="40" height="20" as="geometry"/>
                </mxCell>
                <mxCell id="101" value="25%&lt;br&gt;" style="text;html=1;strokeColor=none;fillColor=none;align=center;verticalAlign=middle;whiteSpace=wrap;rounded=0;" vertex="1" parent="1">
                    <mxGeometry x="-13" y="1926" width="40" height="20" as="geometry"/>
                </mxCell>
                <mxCell id="103" value="" style="shape=image;verticalLabelPosition=bottom;labelBackgroundColor=#ffffff;verticalAlign=top;aspect=fixed;imageAspect=0;image=data:image/png,iVBORw0KGgoAAAANSUhEUgAAAfUAAAKACAYAAACFT+H+AACkG0lEQVR42ux9CZgcZbl1mQCiwgURRZLu+r7q6ewxyySZCS6BhKzT3dXVy0yWCZCQAGETAUFxwQsCAiIgCAESEpIQCBDQ63L9wXvdrrtewesuIAqIK6LIPt31/s/3fVU1ncksPb1WVZ/zPOcJIpBJz3Sfet/3vOfVNAAAQgvq1sbKXxORDKWi/06aNsb9+/Qx9dcAAAAAAARB1Hc5Ip412ijHifLsW5SPHe/9/6dpY0nTXodXCgAAAACCIOyOaFOGf5+6Y0QZJsR9F2VjsVJxxysFAAAAAH4X9bR2gPw1Z1xLGV4odEVfpSwnyvC/U5Z/gNbxN8j/f4s2hrahJQ8AAAAA/hX1s5y5eo6bZDEqdOnFYpdeoBQjKe5p9lPKcrO0akdLHgAAAAD8KOquOS4TO5pS+vOU0qmQ1O1iUrcLQtzTjrjnjb2UiU8pFXe8egAAAADgP2FXc3WLfdep1gt2UidBUbkLSmG32AuU5ZfRukmHaWjJAwAAAIAPRd2dq3cb1wrxLiT0PlfUS8S9IKp4Ke4me5TSsTWlVTta8gAAAADgB1Hf5M7Vjbxwv5dW6vsIu2jJJ/Q+MoVD3iDK8y+TZcwd+HAAAAAAAECzRN3dV+9lbYVE5FVXwAcTdrcl3yda8hnZku8ji32akke/TXNa+a75DgAAAACARou6O1Ofs+BAMqO/dF3wQ4l6aUveToiWvCHE/SnKGad4/83T0ZIHAAAAgOYI+5lOCz6r3yXn6kO04Edsyef4NynPj/X+u2ntAIg7AAAAADRS1JOOWS7Pzx3KLDdC1a5W4GRLnhPl2G3UHdG9//4mtOQBAAAAoDGi7oXQRI+T7ffEyO33oVryhYRuq+Aa/hfq1s+hSe0Hae4K3HaswAEAAABAfUXdu9AWf3shrf/TDaGpRNiluIuWvEily8nI2f+lTGyF93t1oSUPAAAAAPUW9tdJWuzH5ZrlRpy3u6l0oi2f53dRD497vx9a8gAAAABQJ1F3W/B5Y3slc/XhVuC8VLo0+wfl+Ufo+KMO0ZBKBwAAAAB1EvV+s9x5tRT1/VLpcnIF7hdkGnnv90YqHQAAAADUUNT7k+UW16L9Xl4qnfE5svg7BnYLAAAAAACoRtTdZLncBFZIsJeqNcuV1ZJXqXQvU55dRUl+hObO9nehJQ8AAAAAlYu6myzXrh1IJvtVvar1/VryCedQTIb/llbyE72vBy15AAAAAKhC2He499X5F0QVXW6yXG1b8vwh6tbne1+ThUMxAAAAADB6UU84Zrkcv1rsmNfaLFdGS95JpWNFyvGbqMsY531tZ2DeDgAAAADli7rrgM/FTm5UpT70oRgZOfsM9cRO98JxtmLWDgAAAADlibq3qx47RrTD62WUKzuVTrTkuw0xb/8u5WOL5Nd2MmbtAAAAADCyqLsV8SpjXCGhP19PB/zoUum4Y6YzLpdf3x3aGAg7AAAAAAwv6soBv0g7gNKNccCP4lBMUVbt6dgNWkmsLb5rAAAAADCUsLsOeMt4sFlz9cFYTOp2UbTke4SwG3fQbapah7ADAAAAwBB4xnXAdxs31SMutiaz9oxBhZRxr+woKGGHgQ4AAAAA9qvU65wBXzNhz4qKnd9HiyHsAAAAADC4qHsZ8Nz0y0x9RGFXFfsYCDsAAAAAlIq6mwFv6e8opJrnfB+VsKeMe+hmbYw85YoZOwAAAAA4ou464HsmHlVIsr9Tqrn76iOREvprlGkj6jLukF/3RuyxAwAAAMC+or5UrLXx3/i5Bb9PxS5c8VbsM/JrPxXCDgAAAACusLtrbV+nDPPNWtuwK29C2MUeu2V8Qn7tXTgEAwAAAAD9cbE5vtOvDvjB9tgLrrCn9fdD2AEAAABArrVl3WttHw+KqLuxspTS+ygvI2V7IewAAAAARN271mac4qdUuTIjZe1CSi9Shr1KGWOx/HOsgLADAAAArSrq3q56rCsIRrnBbrPLC28We45yfJqGe+wAAABAy4r6Nsco1220+32lbbgjMJSWwv4bSr79rVqJARAAAAAAWkfU3aMuZowXu/SXmn2CtbpwGi6Mc1+l480D6DSsugEAAACtJururvra+OHFVPQZ2cpOBqsFX1Kx91GeEZnR2zQY5wAAAIBWFnfKsF8Eca6+X8UuVt0y/BwIOwAAANCKgq5a8Hn+taAE0Ixwi71AGV4g01ikwTgHAAAAtJSoewE0xh65qx5gUZfCLjoNyhH/R8pO1DUY5wAAAICWEXVvV53fFKQAmhGEvSC6DpSOfuuROQsOFKt7MM4BAAAA4Rf1lJcqdwnlhKhHAi/q3nw9x4lMdq2GYBoAAACgpSr1vPHesFTqXpSsu+qWNXIa5usAAABA6EX9dGemno+tCVpUbFmJcyJK1uJ/p4TepmG+DgAAAIRa1E9zjXL6sqCvtA2ZOCfm6+b4b9O6M8biBjsAAAAQXlF3o2JzxhwRPhPERLmybrDndBFMc6mG+ToAAAAQWlHf6ua/xyaLdTBK6qETducGu9hfL1I6tlD+eU/BfB0AAAAIm6i7+e/ZOCt2RV8Mav572RfdTPYEmbE3023aGLThAQAAgHCJupv/3jvxbYWu6N+Ceq2tTEe8csMn+Hb5Z96Iah0AAAAIo6hbk/+tkIo87czVi2EUdS+YJs+JMrqllbj/AQAAACA8ot654EAy9UelqHeFWNSTerFgMptM/gz1Tn6bWHHDmhsAAAAQPoHPsp+Gca1t0Gpd3V+/G9U6AAAAEM5qPce/E/RLbaPaXxdteJOnNczXAQAAgNCIuuuAzxtfCVuq3DCmOeGGt8liv4cbHgAAAAiPqPcH0Hy+VUTdq9alGz66GdU6AAAAEA5R96JijXtbSdSpP5TGpgx7j4ZQGgAAACDwor7JPepi7AjTpbayq3VL3l5/mGYuOBBteAAAACDYou5easvxLa0m6p6w52Qb/v2lnQsAAAAACByecW+qZ4ybW1LUxe31lDTOPU9rJzBRqWN3HQAAAAhmpZ5yRD1vXN+Kor6Pac7i92jYXQcAAAACL+oZfo1oQ7eiqEvjXMJpw5t8kQY3PAAAABDsSp1f1cqi7pnmzMjDtCB1gDDN4acDAAAACKao54xPKFGPtKSoexGyOUbUxc/QYJoDAAAAglupG5e3vKgn9WJRHnzR/0Sro2+5QMOKGwAAABAoUc86lbp+WauLer9pziCy2NWo1gEAAICgVupXQNSdFbeEXiSLvUhJHpcrbtsxXwcAAACCJOqYqe8fSGOxuzQ44QEAAIDgVeqt7X7fT9hltc7FidZ5WkmcLgAAAAAEQdSvadXwmSGr9Yys1r8sX59TIeoAAACA30XdjYnN8U9D1Aep1oWwZ+IL5Wt0FoQdAAAA8LOoewddjM0Q9cGqdSaq9W8hEx4AAADwv6hv8q60bYWoDyrsRWma644l5Ot0Dqp1AAAAwK+ifpp7T53vgqgPW61/l1QYDap1AAAAwKeivk2JFOX4XjE/FiIGMR+kWs/Laj2pYbYOAAAA+FbUdziinudfgqgPU62nxbEX9n1ap41FtQ4AAAD4U9Q1r1L/qmgzQ9SHqdalEx6zdQAAAMC/ov46p1L/njg9ClEfYbae5v8DJzwAAADgb3G3+M8cUS9CxEeo1lfHFsnX7AxU6wAAAIDfqvQN7QeRqT9GJkS9vJQ5/pB83baiWgcAAAD8JurpKf9GiejTUtSTEPXhqC64cZsyEzs0nGYFAAAAfCfq2djbi8nos5SSom5DvIc9zdon9vkpy+/WcMENAAAA8I2ou+tsad5WTERfpZQOUS/v3rpNFnuFUhMm4d46AAAA4A9Rd4NneqIzIOijOvSiqvWMfoOGFjwAAADgC1E/zct9fw/m6aOr1u2ULsJo/k69k9+mlYwyAAAAAKA5ou5eaMvrFtbZKnDCZ6UT/gL5Gp6Jah0AAABopqh7t9SNUxARO/qddVtExybZo3R2/GAnkAbVOgAAANAkUU9lHVGPfUicF8WFtgrCaCxG1GN0awijAQAAAHxRqeeN63B2teIwGpsy/GvyddwCFzwAAADQLFE/yzPK7ZbzYYh6JU54sd5WoGysXSvZKAAAAACAxoq65p1dxYW2atfbLL5Zw3obAAAA0GRhfx1Z7Odwv1ez3iZvrT9L+ciRGtbbAAAAgGaIufx14+TDCin2B+yp12C9LW2cKV/TlPIqAAAAAEBjRH2X03o3Y7zQpb+ERLkqRd1iNiX4j+gWbQwqdQAAAKCxou6myXXr85wqHYJepWHOTorZeuydWokJEQAAAADqL+pempyRc0xyaL3XJA+ebS19fQEAAACg/qLu7ajzc7GjDsMcAAAAEGRRTyB4pm6GuR5jgwbDHAAAANAwUXeNcnnjc8h9r3HCnMW/Ll/brQiiAQAAABoh6s4BErL4T7CjXjuSSpjrowyfLl/n7RB2AAAAoM6CLn/tib25kIr+Ce73OhjmTONy+Rp3oQUPAAAA1FPUvdZ7bHIhqdruEPUaX25LsV/Teu0gnGQFAAAA6ivqm9x1ttgKtN7rdOTFFOtt+kINO+sAAABAXUUd62wNOvLCtpQ+RAEAAABA7UXdO7lq3AJRr8/OuvApkPArrJt8mIaddQAAAKBuou6eXLXY13FytU4ueJUHT9Qdy2pirp6GYQ4AAACovaAr5/sG/gZK6b+XznfM1OvVgrcpw++Wr/cZaMEDAAAAtRZ11/m+esJESuivwflexxY8YmMBAACAuoq653znKSdJDlV6fRPmiHJGr4bYWAAAAKDmou4633P8Q5SDSa7uLXgRG5vR75ev+Q6kywEAAAC1FHX35Kpp3C2d7zDJ1bkFrwsX/HOUmvpWDS14AAAAoObCvk4bSyn+MwTPNLAF3xNbLV97uOABAACAmoi5Fw87WS90sRdFFQmTXMNc8PdqcMEDAAAANRN11ySX05ehSm+wCz7F/kpJfoSGFjwAAABQE1Hv8kxyFyFJrtFHXjhRN7M0tOABAACAmoi6476mLLvfWWeDSa6RLXiLb9PQggcAAACqFnQ3SW5R/GAy9d8iSa7BlbrMgtefpMTRb9LQggcAAACqEnXXJNfDp1ESFXpzzrEyolzbcRrOsQIAAABViXr/PP1EtN6beY6VX62VhAABAAAAwOhFfZMXOrMZJrlmmeVkFvwjtF4bi/Y7AAAAULmoi/Ofm7UxlGSPYJ2tSUyIip0VqNuYppWMRAAAAACgfEF35+mZWKzQFX3FRuhMc1vweeO98vuxHC14AAAAYLSi7oXOxFZhnu6DyNgM+6L8ftyBSh0AAAAYJR5zL7OZxs2Yp/siXe5ZWhV9i4bVNgAAAGDUlbqYp6/HERffGOYyjMgykhpW2wAAAIBRCbo3T49PoQTrcytGCGyzD7wY12tYbQMAAABGJepd2gGyUs/zTbif7qvVtofvxGobAAAAMCpRP90xyWX4vRB1f8zVxa+UYK+RFZ2oYbUNAAAAKEvQ3bz3lUceSin9GZn3nsQ83RcueLHaljU2aCVpfwAAAAAwtKg7Jizq4UsoDYOc/yJj9d0arrYBAAAAZYm6u8pmGddilc2PV9vYY5Se+noNq20AAADAiKLurrIl+E+xyuY/UjJapFx8poa5OgAAADCsoLurbN36DJk3jjU2f7bgc/x0DXN1AAAAYFhRT3mnVj+E1ruPzXJpvkcr2VIAAAAAgP1FXbTeBTP8e07rHatsfpyrJ6NP0NnxgzXM1QEAAIBBBd1tva+ZMKlgsdcoodtIkfPjTF23JfNGu4a5OgAAADCoqLut93zsPLTeAzBXzxpna5irAwAAAIOKutt6t9h30Hr3caUuRF2cYrX4PRr21QEAAID9BN1tvffw6WSxPtF6h4D6fl/9UeyrAwAAAPuLutPCpYxxMVrvQcmBjxYoG5uiYa4OAAAA7CPq/bfTf4Jo2ICstokWfN44QcNcHQAAAPAE3c16z8ePKZjcLqL1HhyzXEa/ufR7CAAAALS6qLtnVtPRm9F6D1ClLu6rZ/gPXYMjfpIBAABaXdDdM6tdkw+jdPSPOLManLk6pXQqmOwFWmOMc76XmKsDAAC0tKintANkpZfTV4kZLdbYAuaCTzOiXKxLQwseAAAAoK3OKlua/z+IekDn6nnjYg1mOQAAgBYX9O2OoFvxKSRiYZOIhQ2kA97in5ffxx1ovwMAECaROnP8m2gZqpWyXy93N93Sr5YGOVTpwQyhSbPHKYUQGgAAwiRQ2amvJ8tYSpu1MfhgK+P1ciNhV844lEz9aRjkAmqWcyv2lZFJGkJoAAAIvDid4e5YxzKUcg5cnAbD0MgPQU6V3m2sxSw96C14RtTNe8T385kEOlUAAARZnFyjl8UepqyxVv71Joh6GZX6mDM1bYw83pLB8ZbAm+VyxpXy+wpRBwAgsMK0wanSUzxBq9qI8jyllYSpAEO8bm6CXI/xHmm0SqDtHnizXJZ9RYNZDgCAQIvTbdoYWpA6gFLRH1FPzKZuvk7+/SSqlWFft42OqFv8XrTeAz9Xd8xy+tO0qP0QDWY5AAACKUzrHWHqYmvJ0sVaj9jXvVxDC3L41227MhJSN4+TxV4RJ1axxhYGcY/a1MOmaTDLAQAQOGESonSrNoY2xQ8mM/prMpktzUKW/p/y/78DH2pDvnaOiZBMfp2YxfahSg+PWW6l0a3BUwIAQOCE6WRHmBLGGap9HOmTLchU9C904uTDNLQgh3oYUlX6uvjbyYw+RylU6eEyy/GPa0iWAwAgkFV67+TDyGRPiSpdhHB4OdgZIyH/mTQ+2PZ77dJu2Ay7BGEzYUyWY59HpwoAgGAJk9s+TrCLhDAVHWHyqhWL7dZK9teBkochwXzszZSK/kk+DKFKD0+ynDjDKkZRJ7YfhE4VAADBEqb0uLdSiv21mGJ20REm9xQlmdF/Uib+duefRcXivnbuGluWvx9VekjPsCYir1CmjWk4wwoAQCCEyWsf8yspa3hV+n6zRZN9UMMpyv0fhuTNdPYHp0rHbnoYq/Wcvgw/+wAABEGYlMkrNSVKafZ8MaV7VfqAnV2bTPYkrTvqEFfMUKV7e+kXUg5VerjPsPJzNWQ1AADge2E6zROmzXKWntT7hjQNZQ0xWz8HFUtJlb4qfjiZ0T+iSg+9A36LhqwGAAB8LUxuYMrK6CSy9JdFrOlQJq/+aj36R8rF3uxW+KjS9Q+VGgvBkO6qW+x/NDjgAQDwtTB5saZst6jCR2ofF2W1zonS/Aqtha+2eVV67+S3UZr9tVBiLARDGhebYk/RSYiLBQDAr8Kk0rHEKlY7ZVhfOcdHhHDJDzmLvUyZ+BS32m+5165/ZPEpON5b5LZ6Iloga/xEDXGxAAD4UphO9YTp86M5PlL0Ajn4g6XVfsu8bu7IIm20kcVepNTQIwswZA74HiOpIS4WAADfVpoZvoAy3C6M8kSonDPmY2LOeLLWYidZS0YWO1Glt5hZLqO/X4MDHgAA3wnTVqfatNjXKzkR6oRyiOrlWVoVjbZKIA2d5Aj6cr2TLF4o4l56qzngt6JSBwDAX8LkHm1JxhLObnWxclewjI9VF9xS2gFhNxDRWm0skfY6Wsa/KRzRcLy3WAZ8mn9da1EfCQAAfhUmebRFG0sm/5GYE1bTPpYVTHeMyOTnaSG/YuW13ZfrqykRQ9u91WbqwgFvssfpzPjBGhzwAAD4qkpP6KsoU70wOc7gAlnsVUqxefK/fUr4WpPeBbvsjEPJjP7OvWAHwWutDPhiIvoK5cfrGjLgAQDwhTDdpo2hrqmvp1T0l2TVRpg8Z7DFfkO5+OHy9wjZB55XpSf55Qiaadm5ui2r9Rx/j4ZERQAAfFOlm/zUWru2C24oTYLtVS3q8MzXXVMU5fh00ZEQmwIImmnRubp0wPN1GhzwAAD4o3185KGU0n9fj/ZxUc7XDaIs/7D8Pd+lHRiK1+5Ubax8/TLsq8IshSq91Q+7GJdD1AEAaK4wuXvpSeOCcuJgKxJ1kTaXcKoZi6e1EBjn3P17Mvk68cACcxwqdcoZe9B+BwCguVW6jIONHEmm/heRU051uiZW7NKLRfHft9g/KMOmawE2zglfwAXiaE33xKPIZH8mkxVxhQ2HXchi39XgfgcAoGnilFbVMln8snpV6QOFndKOcW75298mf+/bgmecc9urlI7uQXIc6K21pfQnaGXkjRB2AACaUm2qKp2Pl9Vzg3LK5fwxY4i93m/QmvaD6JZgnWl1uwuUNXKUFwbAwW/Mg6231lboir5MqyJRDWttAAA0XJzcWXqa3SirzQaKk2csSrDdWoAc8fJBaItY/Rv3VkqzPxSEqRBtd9ATdnHYpW2+hrk6AAANFSf3mlhOn0AWe0mcVm30NTEp7D2GMM59UnOMc34XdvHwob5WdqcYV/Sh7Q4OjIvN6as0OOABAGioOO1zTcwQVUZf01aB5KqbcYH8ehL+/SAU+fXyV1NfI6/Qoe0ODvxZzkkH/IVhF3X4BQDAT2/ITc5udW7CTLJYHzXxmpi36pY3iDIxdarVhzvsnv8gO4GRxZ+VV+jQdgcHv9b2Ga3FTg4DANBMgXKNXlb0c5WcVq2HsMuM+AwvksV7/FaxSzF3rswVMvwrfnjNQD+3343PayGdqbsVOq1mx9Gpcw5CxQ4AzX5Tuua4VbF3Uobbfrn53adMRkXKcFHtpDQfhdO4XwdljAvFqKCItjs4lKiLOwcZ9qOwtqjpHC8W+T8prZ+oOamK+GQFgGa9KbeqNRuy2H/7reKUu74inCbDXqaMsdgPwk7r3NQ4413igUOMCpDtDg7hfnd21dnvaUP7IWEUdq9ST+v/SyZ7kjbFD5YR06jYAaCJApWcsEzO/nzYQvZCPCz2ghDSZgq7nKOT9jqyom8hk/9WVGFFnFQFRzrB2hV5mdLRiBayXXVP0C9acCAl9UeVWZRdVNoBBACgkW9KEfJygzaGkuz7QqD8OheWbUwl7M9RPqp2fhs8Y5dz9OOdtvtS/lmkxoHlUgg75Yw58mdnV6hEXXX5eti4Qlfkn+LwE5nseTLj3ImbRtgOADTsDemeVl1hdFPa/8dHSir25ygROabRFbs3R08b78ccHRzVz62IQe4xklrJad5QfIY4DyiUN9pJbK10eQea7tXg9geABledYu7V234QpfSfkVX706p1rtj/Qdm2hgk7neFdX1tCGV4oJDFHB0d9gnWjFrJddfcBhbI87fpxiv3X6ZQHZgOEHQAaV6Wn+IagtZFLhP2flOXvrrewey3GnGGQJa+vBeIBCPTbrrrx0dCJunvEKM/Pc2OlpaiLzoSp/58sGmCaA4AGVekbj34TmfoTQRQpT9gzQtjZsfUSdvlabdPGUGrq68lkPxSnNDFHBysU9c1ha0m7vhbKGzeX3orw2vAr9HM1mOYAoM5vRHcvPRk7T8TBFgMqUt6MPcNfpDRbXmthl4Lu5rqn+B1ORwNzdBABNO57ZLvTxTKN/yxdh3Vc/0Wy2N9ppTEOpjkAqGeVLpjkR1A6+seiyexigKNNnT12ohx7hdJt2VoKu2eMs/iHhDGuAGMcWLGoy67S97QQ7al762w3ye2ZXzjbM8X9OhRpfocG0xwA1OmNmHaFil0ij7aEoJVcElBToLSxthbC7gl6lq2R99FTel8Bxjiw0p9PkSqXiv6KNrYfFBZh90Q9FzmysFx/TjxcD3yPUEJ2KUQypMqXgGkOAGr6JlQHSMzY0WRGnxPtsbAIVV+XbhdSui0rg4xxllbFPXav5Z423kkZ9oqIqi10QdDBKgJoTBFSFPkzJfUjQiPqJetsBXWrwR4yJjcV/QH1njFWeHnwSQwAtXoTurP0DL9ezoeT4WonF4Wwi1hOcd3NcpzGd4zOeetF5qZ4G1n8GfFhDKc7WJNUuUTkVVo9OaqFJFXOW2dbaXQPFy+tVtx0oq7oaRpMcwBQozfgdqdKXxuLUZq9KE6rhrGd7J1tFffY08Z1Wr+PYMQPUbeKoK4pbyWL/xxOd7DmqXLp2GwtJKly/etsxsdKne+DvCeLwrtDafZnSo9/q9MxRMUOAFW9Ad29dIttC2OVPlDYRdqbFPY83/noNE3NMYcx6ri7tJSOvJEs9h1RefRB0MFaH3bp4Uu0kKTKuS5+yht3DyfqznisIDw8lNZv1mCaA4AaVekWfwdZ7LVCojXaydJ9mzPEytuDtDB+uDbESUj52mzWxtBqbWzBZF8QH1CIgAXrstaW5yu1sAXQWPyHImxmpDEVJeV8vUCWMVf8e9/aBGEHgMredBu9Kn2v306rNuDDtM/Jov4RZcfr2gBnvBR09/VJGjvEQwBW18D6BdDw0+XPWirYou453zdMPozM6F+k92SEcZ73YGPxb4h//yHcXAeACt58rpklHZ9PGV5slSp9vw9U8WGSYb8nk891hV0K+qmuedC4GbvoYAPy3z8Shkrdc753R2cID4trCCyrYyHGYqazeroRwg4Ao3vzneJW6fzBVqvSB12tkbGyPKWV7MySaVwHQQcbJOrXh2Gm7BULOZYZzeeKMM0V1HnWpykXPxy58AAwmjeeu8JmxhbLD5REaxu/vPQ5EYaR5e+Tr03W+AT1QNDBOjvf+9vvO7UQGOXKdb4PveImPo/YJ1GtA8Do5l5jpAEsIdzcWM9yhF3uDMt2vKl/W/6awB462Kj8d/4FLQS72v3Od37fqEVdrZ0WZbBTtzFNC9mNeQCob3vMjGUpzSHoA8JAZCCIxQjRr2Bj3e/GN7WA76l7JjlRNFj8ZwMz30f1eqSjD2pDbKUAAFDypqMt2phHZiw4kMzoT8jC/e+hPljwOoANzX+39B+HoQMof11jjCuk9H+JzlclD8dS2MVdBTOWQxseAIZ70y1xs8v1dZRDlQ6CvjkTbLJf04Y5gT7q4rXes20LK6nSB7wmImnucVpw1CF0G0xzADB4lS7eHFbkjWSyx8SbBlU6CPojUa6Q0J+klW85NNCi7pnk+LmjnacPapoTAVFJdolWknwJAID7hnMd70n+3rCcVgXBcBx1kVXtX2lN5C2hqNRzfGfVoq4inYtk8Rcpp0+QRcl25MIDQH+VLrgqfjiZ0WdklZ5ElQ6CfrnUVkjoL9BKPi6ool76NVOG/bia9vs+s3WV+vhZzNYBYLAnaIt/VOaXo0oHQf+IuitgPYYh36c7gleRlprkqAqT3H57/J6wx7og7ADgrpeIKr174lFksmcLKd0uYl0LBP0XRJNj0+V7dlsARd0tHNJ8aS2q9AHbATaZ0V/QgvjBMM0BEHXvzcauQZUOgv5twdPKaKd4r/4ggAE0nkkuxz9U7Tx90DZ8jhMl+Qe0EAT0AED1VfqqOCeLiZZYEaEqIOhDURdrbSvbFmoBTVGjM7wR32elqNeweHAeekTF/k9aFY06HiGY5oAWFHXX8Z5ht9X66RkEwRoH0GT15UEUdS9JLj319ZSK/lau6NV4XbbENHeXFoLDNwAw+jfadqdKT8emksVeFTnmqNJB0MeinuNmIEXdPbfaM2EGJaMFcuKW63D8xomQjauOBkxzQEuJ+kavHXZPrdthIAjWOv9diLrRHcQqlLqceXq3sUF81vTV6bPGO5OcZg/TAu0AmOaA1hH0TZ4TdR5ZrIBrYyAYgKMuGWOtVmI6C8znjRc6Y2yv95hPmeZiRF3G2RpMc0DLiPopbpXOviw+LFClg6DPRV3eVDd65cgsQKJei8tso47VTclo3b9RJv52mOaA8Au6a45bGV/oPDWjSg8bU3gNQiXqCb3PMYHdErT2uzdPz02cSGn2qutWr/O2gPN6sa0aTHNA6EV9q5wzjSGLfUvM6VClh4iJKNnLomQviihhh7iHa0/dZM/TSmOcG+scqHl6Xl/fSO9OQZrmWJGs+Hz5+2+AsANhFPQN7izdMMU9YlxhCxG7HAfwtTPJXt9G9nvGk70sAmEPW7We5R9R7+FgtODdKpksfWcj12aLrrkwwb5LN2pjaD1EHQijqAs3qHCFCndonWdbYBO4KEK0bQ7RfxxD9PHpZJs62ceOUxU8xD0Md9VtSuu/o+TRbwpCte7N09e1H0Qp/bF67KePKOyWQZRoO1kLoMEQAIZ/gzn3hillnECZGNruYZyjLxxP9MmZRHs6iO7tINo9j+i8yWQvjqAlHxrDnCFm6ycGoVr35ul5o52S0SI1OAejmNSLRfEgZOp/pDXRt7gJmlADIPiCLp7qb9XGUC9/A5nR31Ca2ajSQyjqx40n+4rpRPd0EG2dS7RrLtH9nUQ3zyb7hDayj0VLPujVui32sE32sGgn+75ST7nzdOOCZiVW9nkPQuwGDaY5IDSi7jrek/xMBM2ElKYj6hdPI7qvg2jbXKI75hJtn0t0VwfRfZ2qJZ9yW/Ko2gPbhk9zoryR0koy1X3dfrfYfzdrdVZcnCwm9CJlWB9l4rO0gGbnA8C+VbpoO62bfBiZ7GkxlxO7nPiADKGoC7H+wBSivfP7RV1wmyPuQux3ziP77ImqHb8YVXtgg2gs/g3N2Wbx6eeOar2fGDuaUqxm99MrN83JFbevys/DUyHqQJBF/SwvaOYinFYNe6U+juz3TSa6v2NfUS8V913ziB6YT3T9LLK7uWrJd8FIFySqypMTdfMFWkmYlK8+d9LaAVJA83ylHwKu5MNQPkaU1ldryIUHAl6lv47S495KFvtrIcXsIo62hFfURfW9aYJqtQ8m6qVVuzDS3d1B9oVTyF5SYqTDaxmkav1Bv1br/atsbLcfLkDKpDlhmkuxJwtLJh+GXHggmKLuuGPJ4lcKswiq9BYQ9ZPjRHuHEfVScd8xV1X1t8wmuzem2vcrULUHZG9dVOs2ZY13+61a92bpq+KHk8n+IlfZfFBMyDZ8jhMl+ZWo1oEgVunqtOrqaFQkURVSOqr0sLvfxYx8bdvwlfpAiqrdWYGzPzqV7KWo2oNVrbMv+61a72+9xyyn9e4LD4/4/JMPQxZ7mTLxKeJr/AZMc0BgRP0077TqZlmlJ5vb/gIbIOqijd7DVWv9jrnl063a93YQ3dZO9kltqNqDVK1b/pqtu458yvIdfmi9D37xjn1Jfo0wzQGBEPTtTpWemjCJLPaKOK1aQJUeflEXVXaWyVn5qET9jv3X38RqnMyRPx5Vu+/vrFv8G/L97oNq3Wu9Hy9b73/2S+t9f9OcQWTyNNrwQDBEfaNnUrkLe+ktJOrLI2SnmUqS2zG3MmH3qvb5RFvaZTvfXjAODnk/763Ls6w8ofngcIkInJEPGDl9lV/POnuRuyb7DaUjb5TBXDDNAb4VdGdGRPlYO1msQDit2jpc7hx1EaK8s0JRH1i1i1n7h6eq1r6o2k28zv4LoxGZ8JGHaUHqAOHqburnj9MtIIt90a+ivk/kboJ/VCuJ0QYA/4n6qV6V7us3FVinS20rov376NuqFPaBDvmVHAdi/Li3Ll3dMj721FI/TTPGfvLXTCxGZvRlSum2X8d+zjlbYZr7F+ViMdld2O7PIB8A5jiNMnyBFHRU6a0n6kujsm0uW/DVinpp1S7m9Pd0kH3+ZOWOX4JZu29EPakXC7KdHH2GcrE3N+twCSWcFdosv9hvBrmhq3VpmrsPs3XAn6K+1THICeMMqvTW5OII0a01FvV9qvb5RNfNlLN7mTWfRIa8b6p1IVBW9FPys6CrsRfcvKCrxfGDKc0eb/SZ1aqFPcuW+MGTAAD9byr3tGoylhABC7jC1qJcGCHaPLv2ol5atYsrcLvmkX3aBBUzuxzteB/tYL9GK+Oz5WfBHY1rJ1PWqdK7/RELWy5JiLowl5r6T6m3/SCY5gD/iLo8raqNJZP/iCyGKr1VuWg80Y2zVLu8HqLuZcg7Z10vm96/+gYTnT9W3DL8m7JqPqVx51m9sCuLfSdonz9etZ4wzm+mJwEA9q/SzdhqsgwIeiuvtS0cL9vjdRX10gx5N7BmtRMzi3Z889vw3TGRNHeW/ExYVv82PJ3jfP6sjB3vrNAGqkvomebS7DlK6xH3siWUBWiOoIsfQHGcoGvq6ykV/ZVYb0HrvcVF/ZqZKvq1nqI+cPVNmOjOnSx/f3sZTHTNbMMXXVd3isflZ8SO+gqUd2ZVnDYNqJfHq9YttlMrOUgDAM2r0lPsNATNQNSFeY2unKHm3o0Q9X1MdJ1EV88ge4VzXAbt+OZV6xlp/vramaItvlwFwtTl88fLxTCWBrFK32e+npCvm03pNhW7Czc80JQqXczSs0ceSin99yIlCVU6RJ2uaLCol1btInd+WzvZvYbTjoeJrnlteIMobXxMq6MbXrjF6QRtLKX4D4Lu5ZHVuiVMc9EfySCfLWjBA40WdXcvPWFcKNKRUKVD1GX7+7Lpjrg2WNQHJtGd57bjIexNccMnncozYyyuh7BT0nG8J41Tw/L54wX5JKOna01YDQRavUqX5w0jR5Kp/7mQYjYlUaW3NEW7W6yYXTqteaI+cKf9qhlq5Q3u+GYIlMo4t9ifRcqbVsNLbp7bvTd2NKXZX4TRrBCCzx8R5FNM6ba8A987+W3OnxMVO9AAUU87T8kZfjmqdNATdREI8+/TiO5roqiXVu3i6xCHYXpK3PFg49fcTPZj6j7iUK1Gt9fF4RbHHHd/2Lw8/aY5fgtMc0CjqnRnJ1SPkMX+6Twl47QqRF2J+kenyfOpTRd1wdudiNk9HWSfOVF1EnCnvbEildD75PGStP4QzXzPgfIzpIp5Mb1LU/8Nk50p1ueKISwopGlOHMTKGnM1JM0BDZulW+wzskr3ecYy2OD2+4enEu31iagPCKuxPzZNRtnK2+9oxzdW2MWsOKN/lhKTX19pK57e7Qh6pu04yrDXikm9UAxhQeF1OBL8f+hGbQyth6gD9RL07U6VntMnkMVeEqdVUaWD/aI+zn+iXtqOF3P2G2c5pj4Ie+Mrdi4iUR8iy3iza3Yrd92N5rqCbswhi/0tKPnu1bnh5XnWk9CGB+on6hu9Kn2XrNKTqNLBAaJ+kU9F3W3HCxPfHXPJXmtgzt4MYRc77Bn+M8oa7aUencEMYV7cLCnhpyw7ljLsr2EX9H2v37E/NPP6HRBmQd+kspwpE59FFusjnFYFBxP1D/pY1N2Kfbez9vZezNmbUoGmZUb8C5TjH3itO/LGfT5nztLGilWu0iQ6+bmT5O+jDHu5FQR9kOt312ola3wAUBtRP8Wt0qOfw2lVcEhR/8AUf4v6gBQ6+5JpauUN8bKNFPYipXRyolF/SRY7h3rjfL/PnEzszbSSraIM/y7lYyT+nVYKuCq5fvcqrebvQBseqL05rjv2LhEoUUCVDgZZ1AfO2a+fRXaXjn32Bh8ykVW7yZS4p9iLlOHfp7xxL+WNu8li/0Up/U+yXZ9WaXGt6N8puLG7Fv+KVsNdf6DVRX2rdzThv1Glg8OK+oUBEvV94mXnkt3DyV44DsLe4KpdeHNk5W45Ap+Vc3dyW+2tHj8thT1vEFlGt4ZceKBmbfdEfDnlOCHfHQyVqLvCLvbZ7+4ge0Oc7AXjVW48vq8Nr9yFmU6yRSvzIccV0jQXfYKyMw6VNzdgmgMqFnXhutysjaEE/4HYnUSVDoam/T7YPvt9nWSfN0kF6XTBQAf6zDSXiF6mlVzIBIDKZulZo5vSiIMFQyzqpQa6BzqJLpkOAx3oK9NcUZrm+EtkTZwoNwK2IxceGF2Frk6r9rYfRKnozymN06pgCFbaRmOgu3amOgizBMIO+so093nM1oHRi7rT3qEk3xi2owlgi4bPjLZqFwa6W9vJTjN1xhXCDjY7F16eZxXbAkZSQy48MNoq/aXeow6hlP6EMGmgSgdbStTdin1PB9GOOWSvNlRQDb7XYLNNcxazKaX/inr5G2CaA0Y3S0+y83BaFQxF9nu1CXTCGb8xjmhZ0B9teGmaYxeVfl4DwNBVuoplPEKGP4gqPYkqHSxD1P12erUezvhzJvavvKEdDzZp/U+cvCaTPU+ZCcz5zIZpDhhC1NMqX5hy7BJU6eCoRf1iIeod4RL1gdGyH5yq/qzIjAebXa1bfI+G+FhgmCpdnVbtjR1NZvQ58TSIAAhwVKJ+yTQvoS1Uol7K+zuJLp1O9qII2cvhjAebdvVOCXuOL9IQIQsMO0vP8Oul4z2B06pgmZQ3yseT/fHp4Rd1d+Xt6plq3W0phB1sUrUuLt6l9UdoxoID6TaY5oBSQd/uVOlrYzFKsxdRpYOjFnVRqV8xneiekIu6247fO5/ohlmqDY9ddrBZwi5W3JL6OTDNAfuK+kb3tCrfLqr0Iqp0sAJRpytntIao77PLPlv9+Y+HsINNMs1Z7FlKxY6GaQ5Qgr5JGyt/GCz+DrLYa+K0ahFVOlhB+52ubiFRd1vxzp/XzjohNbjyBjZ2tt7nmOa2wzQHaKUGC7LY/TitClYl6tfOVBfPWkXUS6+87ZznnG+FsIMNTppLyAjZIpmxd8I0hypdCXp3fL74oRBVOt4kYEVcNF7OmFtO1N1W/F0dRHfOI7vXUMKOnwmwkbN1cY8+xb5HJ2hjER/bwviGV6Xzr6BKB6viwgjRzbOJds9rPVF3hV2kz+3pIHt9HLGyYBN21w2ipHGK/ExPqswRoBVX2CxjiZzJQNDBarg4Ik1jLSvqXvpchzTQ2adA2MHGsZjUi0WT2WSyP1F35EgndwSmuZYSdfFN36yNoQT7LmUYqnSwcnbpZC+NEm1pb21RL42VFcJ+2gQIO9gw9olqPW8QWewzMM216iw9G8tSGnGwYA1EfUXUEbQWF3VX2Hc6efFnTnDy4vFzAta9WreFL4oyvI/ysfbSz3og3BX662iLNkamEKX1/6M0TquCVXK548K9w6lS7wC9vPi9nWSfLQ7B4MIb2KDZekasuLFvyM96OOFbQNSXOEdb0vo6kUaEKh2sep1NZKCbuqrSd0DQ96Er7O+b7Ah7FD8zYP2FvdsgShu98rMebviQV+kiI9iKvJFM9rg8rYoqHaxW1JdFyM4w5f6GqA8t7OdO7j/dip8dsH5Jc+I0qzDNPUW9kw+jW5ELH37He4Kdg9OqYM1EXRw16eYqXQ0iPrSwi9Ot50HYwQbM193zrAl2tVYSBQ6ErUoXXBU/nMzoM7JKT6JKB2sg6osjMnRFGMMg4COfboWwgw0zzVnsFeo2psE0F0ZRP8up0tP8YnlaFVU6WAuazjGT9XGiezvhfC9X2L1WPH6GwLqb5r6sIT42hDvpokrvnngUmezvOK0K1lTUF0XkTras1CHq5bfi3wdXPNgAYZe7620ZtOHDWKVb/FOySsdpVbCWon5cRK5t0d4OiHrFrnj8LIF1EXVlmkuxx2jp0W+SRmmY5kJSpa+Kc7LYv1Clg7UX9XFknz+JaO98iHolwn4WKnawzqa5nCFMc/8uNeFkVOvhcLxbbAuqdLAuon7sOLIvmioFCqJeobCfMUG9jviZAutgmiumpGnuBermcVnkbUcufDAFfbtTpadjU8lir1ICVTpYj0p9PNmXTJN55xD1CuhGyp6KrHiwjrN1seKWYQ9gth5kUd/oVunRe+F4B+u20nbceKIrZ6g9dYh65Vnx93aSfbJz3S2Fny2wtiRX2HOx5RoOvoy8A+67r8k92pLn88hiRVGl4wcbrAsXjif69CyiuyHqVV93u6eD7BPa5GsquyD4+QJraZpLM6JU9Od0fPxgN7sECj6UiJ4+9yBffT2neLP0L4tdRVTpYN0obqnfMhtnV2sh7CJq9+4OstcYEHawPm34HCdK6+dLfUipWyCAm9B2hiOcPbFTyOJH+KVq98xx3bFFKioQgg7WieLs6vIo0VacXa2psO+eJ6N3IexgzUXdYjYl+E/oFsdzhWrdEc4u59pZjn9aUP51wh9PPbTV+WZZ7FuUYajSwfpRXGhL6UQ756m5MIS5NsJ+tzqOY1tMJfZhxg7W5tiLrcSdvUbZ+GSpF7vghO8XdIt/SKb15Cbrrtu86V+bc2aPUkaa8lyaI/DDDNb1mEuOKRGCINeO2x1h39quXuslEHawRsKe0PuUYc44S2rF8hZvwZcI+um0Jk5k8T3yf2/xgaCL6nyLNoYWaAdQmj1ClqzSYZAD6yfqQmxWGSr3HWJcW96ujHN082w54pAnbiHsYK0y4TPsS1I37mjhSt0T9LSxVq6IpZlNmdjy0vl6M/G9Jc7XlzJOoFwMbXewQcdc2nDMpZ4Vu4jfvX6WytgX4g5hB6tswZMYmaX05ygbOdKvG1yNE/RsbAVleJ9cDUhEf0vr+Rv88KLIBwuR67uWv4HM6G8ozWxU6WBDjrmcidz3hgj7lTPIXjiO7C6cbAVrUa0bRHlmaSX3QVpH0N31sKTRThb/l3CTy/aFya5Rf7/5MwnP8Z7kZyJoBmxoROz7pyD3vRHmufvnk33xNCd1DsIO1mCubhmb/aJhjRNLx/xGKyJRstiTZIoKPdJHCVakTGyOH55ynLWEMbRi8mGUZk+LqzyFJKp0sEERsRdPI7oPlXpDKvYHOuVDFA7AgFUH0VhMFKa/pMVOF7oVWvDehbMTjzqE0vr/qhCXyGuy9Z5kj/hlz887rZpjHxJPX0VU6SAiYsN9i/3MiapLgh12sNK5elK3C0lWpB59RkustkmxdtJ2KMMfoKxBxYTep9oWBlHauLx01t7kKv11lB7/VjLZ3wopZhdxtAVsFBeNI7oREbENF3aZE9+GnHiwBqtt/H0tsdrWv7pmXEk9hmhXvNbvHGQ25ccf44vWe9o18LGr5IMHqnSwkWlyy6JEW9oREduMnHgRJ7uSI5wGrG61Leustu0IcaXev7rG14lwGfFEI2/SijmEnKnrv6H17Qc1ew7hjQe6IzqZ7PlCSkeVDiJNrpXiZEXqnIlwGrCa1Tb2LC2LviW0c3Uvzz0bOYYy7FVxXL7Y5UTreY5BfYsfHIOe493it4gqvZDU+/DDCjY0TU6kFt6DNLmmGef2dMhjOqJjIglhBysxzHW3rQjlaptb+b66bOJRZLHfCUNc6a63167I62u0Jme9C1e+rNLz8clksVfEadUCqnSwkaK+OEL2iW1E9yF4pqnCLjYPPjUTO+xgNXP1q0vHuaEyxolfixZ/cOC5UrdVUTD1l6k3zpvtFqSN3mnVu+Q3BVU62PB1NgTP+GmHnS7BDjtYwVxdVOoZ9v3QXWwrmaNfRd3K6T5om8JiP3b/4M16AWiTu8IWm0MWK4gqHT+gYFOCZz44lWgvKnXf7LCfjx12cPRzdVmsnjSBhWa1zZujZ1hGXDZzjXFDXLbZpirkJrbeT/Gq9C8O7CiAYMNEXdz6vmw6dtT9xL2dZJ8aVxU7dtjB0bjgfTBWrtkc3al6DbLYs5TSi4NlppfMHk5vpknOM8et5AukoKNKB5vFheOJPo0ddd+tuu3pIHt1TD10wTgHljtXz8a2Sm1JBVjU5QzhNG0sHS9PlX6LMmzIqreQ0G1brLNZxrua6RKkrY5BzuLfQJUONnVHfSl21P256qb+2juNC2EHy3HAp0IQGUsr3FOl/JOUj8knluHmDsVE5AVaxcaVVvgN/XpPdqr0VCxBOY5b6WDznO9iR13EJQtB3wEx9d18/d4OmfQnNxRWYNUNHH6uLn6lJOujNfEpgZ2r98+lownZehARsEOshBXc0BlTf5SWmk17kqFbtTHUq42lFPtf8WSFKh1s6jrbKkPdUYeQ+o+3O+daL5uuju7AEQ+W04LPGBv8EH9e2T76Fm0MLZ38NrLYH+RVs2Gq3pI4va+If//KZlTpG5yHEDO2WtzBhaCDTTXJiTvqp07AjnoQHPEXCEf8ePzcgmXM1fWdUmdOD1gIDS1z2u4J/f5ybo+XmOR2N8P5Lmfot2ljaEH8YEpFf0Xp4R9CQLAh62wX4o56IHhfJ9kb4jj+Ag4/Vxfd6JT+KK1rfgT66ATyVKfiTfPTqHvoOfqgop43rm+GO7B/lq5vcmbpqNLB5rbfsc4WvOMvPTj+Ag4/Vy8kokVapb8jMHN1r4WdnTCJLPYCpfRCOdGq/aLOP9xoUZdVupilZ2ccSin9STkqSKJKB5tMnFwNlrCL79PWdrKXIyMeHKkjbZwSiH11KY7rtbF0ozaGkvybo1kH6//Dxs5vuKi7e+kJfmE5owIQbMg624qoUwVinS1QjniREX8cMuLBYXTO4jsDsa/uzdGT/FyyjLLa7oO039/byD+sm8VL+ciRZLK/iDvuqNLBprfexXU28X7Yg+tsQcyIty+aCuMcOPS+uhmAfXW6w0mNMydMokz5bfemi7pzMYcy/HJ5WhVVOugX5/v6NmS+I0oWDFsOvPyV9dGqCZN8O1eXle5GbayTwvb1SlLYmjFTd8/AUp6PJ4v9U8bX4rQq6AdRF+3b8yary2AQ9WAa5+6aR3YexjlwqBx44wTfztXdfTuy+Dni+tpo2u6DGAiubJion+YdbblJztITOK0K+mWdbTzZH5+uZrQQ9WAKuxid3AbjHDiE1nUbtzT7cNnw1W63PNbyfKXVbsme+s5G/EFpu/N15/QJZLGXxWlVVOkgnO9gzRPnrpqBG+zg/nN1i/2v5+ny01y9v0pnX6jm+IlqSTCRKPfVRpgHxLjA+bp3yll6ElU66BMuV+53KQy7II6Bd8TfL26wT1bGOczXIeruffUUe5F6+Phm3TkZXhgzfCXlqzOZCce5yn5nv6el8YPrKey0yf2647PIYn2o0kFfOd/F1a+VXIXOQBiDT3GM595Osk8wcKoVlCRRxIpqPWskmnmRdPBY1Vz8cDLZU9UGtnhpO0m9QD18Wj1dgd6hmTT/D5xWBX3pfN80Ac73UJ1qVQ9o8nuM+Tqq9f5clo/75rhLyU76dSJWtVgDYZQteGkg4OvkQ0Md/qCeOS5vvJsyHDvpoD9Nch+eClEPYzDNdbOkXwLBNHDASwe8xR8qXQlv/hx9dXwWZVhfMaEXizVoX/efpuP31uuKDW119ukt9lVU6aBfM9/p2pkwyYUymKbDCaYZh5/1Vp+rq+Muf6LuIw9teghN/5109t9CGIs1EkZlIBB/UPY3Wh19S63/oF6VnuLLnaMtqNJB/8XDLhfxsO2Ihw1zMM3JcczXW32unpCGOZtW8rlNDaHxDrakY6uqNccN24LPGBtrPWuQ63frtLGU4j8QJgVU6aAv42G7EQ8b7vn6XKKd88g2mTJFQthbe66ed7SuGSE03jWz3vZDyIw+Ic1xNa52painpQv+EVqrjZVmvBpU616VnmU9lIlB0EH/muROmyDvc6NKD7Gwi/n69bPIXhjBfL3lzXJ8S9NCaEqumX20njfH5XJ+JkaUYKtKuwNVO/V72w+iVPTnlK79wwgI1swk9xGY5Fpjf72D7A86h19QrbfuWluG/7ApATRectyqaLTeOenOzrpNafYELTjqENpSXbVOS1ynfnQjTquCvqYwyX0aSXItw/s6yT6pDfP1lg6hif6LuuNvb7hZznO8p9ntIoGtWOecdNmGzxlESXaT/H2XVtaa8Kr0tUcdQin9d/UYGYAgkuRA7K+DFZjlVOhaj7GooSE0XgJbbsJMkcBWqNEKWxl/4D5hxqN022r5+1+sHVj5yCB2Pk6rgr42yS2OkN1ryPQxiF6L7a9/aibZxyEfvnXNcvxc1U1u0Fy9ZIXtC7VcYSujWhftiSJl2MtksWPl13BM+cLuheUn+RGUjv6p2tQ7EKzrPF2cWz0X51ZbNh/+vMnKU4FqvRVFfVfDzHJuO4By8eNkWEuisaIoTXOiPZFh/6SsI+wp7YByZg+UdmbpGXYpZumg7yv148YTfWKGynyHqLdePvw9HTLzH/fXWypZrii3vTL8YVfT6j5Xd6/HkMW+3qwENvkHF6E0Fn+JMkbvwAeOYY19vbGjyWTP1dPYB4I1CZ1ZFiXa0k60G6EzLTlfF+bIW+eorIIVaMO3lFkuzV6gTOzouos6neFdM+tqdgKbEnZdtClEMM2NlJ76b16L/Rxt7MAXouQk7KdllY7TqqDfQ2d6EDrT8m14cX/9Y9Oc++t4b7RIC75xZjlZ7W7WxlAX+74fEtjEU418AcQMwmS/ph7es8/Xm9QOEGIujH1S7FcbbWSxF3FaFfT/PH082WdOxH46hF3FyG5AjGzLzdW7jbPrapbzqvSkYVI6JhflfXXhRjzZyKqdfYt69FW0rv2Q/f4MVnQ7qnQwEJW6qMw+Pl05oSHqrU0RI7tjnvq5wJpbK5nlbq+rWc5vVfpg7XjPZGBxorT+O8oan6ZcrItWtR1OFp9DFnuNkqjSQZ8zIdrvUaLbME8H3RjZTqJrZqpqHWtuYTfLqWQ5i32nbjN1MaNWs3T/VelDiruo3MXTTppRsSvy12Iy8hdhroOgg5ing4Fswz/QSfbZE7Hm1hJmOXmd9K+0Nn54XYTdc45b7NuUCcY1M7F/LtoYnsArQccPDRiAVbZxZL93ojJJoUoHXYpUwbvmkZ3BNbewi7oMWxPibtXhDKs3S18ZO97Z7S4G8UVChQ4Gaj/9Suyng4O04UX35gbnmlsCbfjwz9Vja2p+hpW2unvp/MFm7aWDYEvtpy+PEm1rJ7oT83RwEGEX19wumII2fEuIunFFTR3wIiddtt2zfB5luFgfQ7ULgvXOe1/bpu6nQ8TAYdPmYkibC7NZLiszWD5XmrNSvahv9AJbdsvWewKrYCBY31W2cWR/YArm6eDIaXObZ6uHwC604UMZFysc8Cn+M1rn6HC1Zjm6wzHHpWVgy0uUwFwaBOvOReOJbsT9dLCcoy8d8gHQXjBeBRbh/RO6uNi+LvYCmTWKi6Uu5/hJml+DKh0EG7TKZunS4Uw7IVwgjr5A2GVc7Luqjov1rsOsjh9OJvuLc6IUVToI1tX1HkE0LIg2PLivWS7HT6raLNd/opRvwolSEGzgKttVWGUD0YYHS0Xd+ERVoi7n6ILrtbFkskdEIlsQd9NBMFBcHpXrbLKlugtiBaIND1H31trur6r97v6LlI8dT2kOQQfBRlTpiyJknxxXq2yo0sFKQmk+M1uJOkJpwuOAF7dMMuzhCzQnL6YSs1z/3XG+BwY5EGzUKtt4si/FVTawyjb8+ZMQShM2o1ya/Z0sfkRFok7u08CqaJRM9gKlsMYGgg1LkRMfzEiRAyvlTmWcs3PIhg+NqKsM+CLlojMryoB377aSpV9EWQNVOgg2qvW+rg2ud7AGJ1o7iK6bJfMO8P4KSbJchonb6impzZtGMVf3DHKLzQPIjPwcBjkQbGDr/RK03sEateH3dpJ9Fk60hmyt7X2jdsB7BrmccRyJAIwEBB0EG9Z6xwEXsFa8U7Ti5ylBXxbBeywcon7TqK+1uWU9WXwbDHIg2GDXO1rvYK3b8FdMl9kHeK8Fvf3OiSz+ZTe+fXQJcuv4EWSyvwnHHQxyINigwJkrZqD1DtanDb8+TvZCtOEDvdYmDruY/Kd04igOu1BKO0DO0zPGWtxMb/KHPF6H1gqcSemyVYqsd7Dm1fpdHURb2sleGiV7BXbXg7zWVkywZykXe3P5ou6U9JRhX5R30yHqzZmtrsAaSks9wIkK6nRkvYN14u3O7vpFU1WELD5bArvWVkzoBUobU6VOf2yEFry3m56N6JRiL4pzb2i9N6FiE5nNMuYRb75WEnW6dqZKA4Oog/WKkN3TQXY3x+560FvwFl8itbp7hLU20Xp3XO9nYTe9WXPVcWSfM4lobwfZFlNRjzjMEO7vuTizmudK0CE+YL1Nc9fOhGku8Bnw+nqp1ceO4ICnLU6lbrH/xjy9CUzo8mwi3TSb6IH5RNvm9As7nqrDvZv+wSlEe+ejSgcbECHbSfamCTDNBVrU+aUjijptdwS9J87J1F9G673JK023O4cZbp+rKnUIe3j9E0sjRLe1E+3GbjrYgGr9TudzZQVMc8EVdeOOkUV9udN6z+tnYje9iXPVT83sv6G93RH2re3q/8ccLNwPctshOmCjVtw6yP7IVCTNBXVX3TQeGtEo57neLf4QWu9N+HBfHJHmOCnoA12r4u/d1q6qOgh7+B7krpnR/yAH0QEbaZrrgWkukEa5BP8/umk4QXcDZ7qNcWSyf6H13py5Kl0ybfDgEVfYb51N9goIOwxyIFiju+vCNLcQprlArbWZjIpd+l+o+8hDhxb1tNN6F4EzWVTpjV9jUyJNu4YJHrndca7ePFutvUHYw2GQ+/BU7KaDzTXNnYKkuWAF0OhU7Iq+SmYbH1rUT/ey3vdQltuYpzf6w30c2edOluEQw364u8L+mdlkL4uqAw14IwaTjknJu5sOkQGbUa3vdpLmlsE0FyQKYaduNm/41vvKIw8lU/+jKO0LCbTeG7rGtiRCdOscFeW4rYw34n0dRDfOUpGPEPbg5hG8d+LID3IgWPdqfT7ZF06BaS5QZjlxV71txfBnVrNtC8XddJxZbYL7ef0o3c+usN8wS7XhIezBfJC7pcwHORCsJ3eqbpGd1vFZEqS1tm6+bvh5et64HKtszajYxhNdVcFlrm1qLYWum0n2YlTsgXuQ2xAnug9rbKBP2vDis+Sy6ajWgyTqOX7RkO13dZWNfU9U6jDJNdj9LNooYq61s8LWmXgzfmqmEorlEPagtN7p07OQ8w76a8Xt3k6y1xhqvRafI0FIlbthf0Hf5eym98Z5ASlyzXE/XzhFCfO2KmZi4t+/eoZKnXNOeOI19un3XHyPTmhDlQ76c8XtulnIhQ9MpW7s2V/UE+4BF30VAmeaMFddGnXiQaus2Fxhv3IG2YvGkd0FYfd9aiCqdNCvK24bxIobqnXfp8rlVKrc4KJuGpsxTw+AQW7EN2QH0eUz1JM21lP8mRq4xpBtTogI6Mtq/S4n5EoYcBN43/o6VS7Df+hur+27ynaLNoYS7CfiHxL/MF60BibIfaICg1w5wi4MLyJMogvC7jtT5NU1/p6DYD2q9bMnqvwMVOt+DKApytVzkz1G3ZE37D9Pz/M4demvYp7e4AQ5k6mrXDvr8aacT3Sp42SFsPunSu9FlQ4G5IrbtrnKn4OOn2+jYgtd+t8oefSR+7fe83wl5umNr9js99UxeGSbI+wfm6Z+Lwi7f2bpqNLBIAi7CKS5AIE0fo6KLST1FygVifeLuuXtp1+PeXqDDXLHR4g+M4vo7jp+wLsV+0enoWL3g3/iJDjewQBxlwilmad+hkUGBt7L/hJ1+Wv0NUroc/afqWfZt0XkHCr1RpqlYqpia8R87IH5RBc5d5OTEPamPMQtGifT/+B4B4MWSCNvri9Ate5XPaGUvmhfQTePfhul9H9gnt5gg9xHp1a3mz5aPtBJ9EEIe7Pa7vapE6T5CFU6GLj42LvmkW0xJFb61AHf18Wy++a959qOkylyOODSGHbp8hqSuIokL3M1smoToiKONiyAsDf0EpubRYCMdzCo8bEXT0O17tejLgl2shL1pBs6w9+HeXqjd9PbarebXomwnw9hb1xXZhzZ501S3gZU6WBQ42Pv6iA7y1SsNYTdX6KeZOcNMMnxXRD1BrfeL5veXAe0EPZzJzvCju9L3b7XTruSds1TpiMIBBjUal0YPC9Bte7PSj16Sf88XdPGUIY9gtCZBrZiu3T15LuzyU/eQtjfO5HsBePwfQnzAxwI1mq2vrtDHp9Cte4vUS8m9ev7RT0TO7qQYv+CSa6Bu+mbJqjW+zYftNT2dpJ9FoQdR1tAsJy99U6yz5moPscg6v4R9YS+XaNu1yTH3yNTaWCSa1xE6DUzie7xSeXmCvsZE9TsF9+nGpkho3JtkW6eDXMcGB5RF59bV82AqPtupq4/oNGxrknOOAXz9AbGwqb1+sTCVivs93WSfdoEZ90N36uamOPeP0WlBaJKB8MURnPHXPXQ2oX3ui9E3ZKV+oP9op7nN0LUG9h6P3OiP1rvg71ZhbCfCmGv+vssLlt1cxUysxNCAIasWr+3k+x1bWqLB9W6L/bUi0n9mxp9zDnkktH/C5nvLdp6H/hm3eW8YTfGIezVJMctRHIcGPKEuQ9PRR68n86vJvQfqJW29gUHkqk/5lx6gfO9noLu19b7YMJ+T4e88Y43bYVt93MnIzkODK+oi1sVn5mtjKB43/vi/Goxqf9UifoqNq6QiL4E53uLt96HEvaT2iDso3W7i7a7+NDDTjoYZt49D6ttPjq/WkzojylR72mbTykGQW/11vtgwr67Q4qTfaIj7Ca+j2W53W+ajbY72AIteGcV9jh8NjT//KoU9d8rUc/pq2CSa5Trnfm79T6csPcaePOORJGy9ZGpiIIFW2e17coZ6OT5QtR1Kiaiz2iO8/3DEHW03kcUdnGhaXVMGsAg7ENcYFvvhMzgQx9sBVGXh6ja5WEqrLb5QdT1vzmibtwKUW9Q6/2TM4LReh9K2O+cR/ZKrgQMwr7v+pqpE+2cR7R7LtruYOvw3g6y1xhy7IRqvcminoz+U4l6mn9JijrW2erYeo+qgx475wV3Z3mbutAkjpIIIxiEvWSOfnyE6MZZyHYHWzAytoPs8yYjXa7JpKSs1F+Se+qUYD/GIZcGnFk9dULwWu9DrbLsnEN2jimnd0sLe1TNEz86TaXG3Y4PerAF5+rXzFQP+RD15op6MvqyRotjhxW6on+UO+pwv9f3StcVIbnS5Qr7jrlqnaVVhd1U31fpk8A+OtjykbE65upNr9Sjr2qU0GOFhI7rbHVtz6r2e7+xJARv5O2OsG+fS7blCHuqxR7URGWy1lCVyg58uIMtTBEtfUIb5urNr9T7NDJ5pwyDT0LU6/bhL37QT3Jc0WGatwphd3axZdXaKsLuBsyIWEZpjMMcHURkrP2BKVhtazKLCb2oUUpPovVe/9a73F3eG8IPf1fYt7SrP++SkAu7+LMti6jOy63tCJgBQXccd90szNV9Iepd+gZxhxXO9zoe9hAJY5tDfE/7dscsc1u7GjWEVdhTzhbDkhKnO+boIKg2enbOc94j+Nxvovu9oBWS+kcg6nUUgaUl5zfD/KZ2hf2W2WSvCKmwi9U1cXnt6plE96FCB8F9qnUxVz8Jc/Umz9RfE0a5ayHqdU6Re99kte4UdhG4XQVR0M2zVUUbpiMPUtDHE102HRGwIDjUXP1CzNWbLOqvaJTU74Co1zlF7lMzg5kiV42w3zRLRUcGXdhTjqCLlcRLIeggOOy++rXYV2/yStvLWjER/QJEvY4pcsmAp8hV+gYXwn7jLLKXRpWxLBVsQbcvgaCDYFn76iuQA98UUVfZ789rxaT+TaTJ1SmYRKTIrY8HP0Wu4hlbB9H1s9R8PWjCDkEHwQpy4DvVNUfM1ZuU/a4/Kyr1H8uVNoh6fVLkwrrKNoo5G103U73JlwfkjZ5yzuQujKgUwPvhcgfB0eXA45Jjk06v/kmI+i+xp14nilW2m0K8ylbuHrsQ9k/NcIQ96m9hdy+uibW1a2aEs0LfPodo2xz1K8QIrPVc/aoZOO7SFFFnolJ/Sismo09A1Ou0ypZhKpSh1d/srrBfPYPs48f5V9jdVLyuKNGNs8O5tibEfMc8ov9cSLR1Nn42wdrfV9/art7jmKs3VtRNKeqPi0r9T8h9r4M4HBdRhz5acZ4+nLBfOYPsRePVvDrls+/ZwnFk57n8UAptsIz4s909n+jRbvXXGCuAteaeDrJ7eLhWWv0v6kUp6onoz0Wl/k+Iep3m6ZdNx33tgcIu5tNXTFftuRVRf3yvxPnUBeOUqVFUGneHVNDF0ZlbZhF94ViiZ09S4n7bLByjAWvso5lP9ukTMFdvpKh36UVheC8m9R9p4qg64UWp/VW2pREZm0q750HUBxP2j09X+6xd0eYK+jIVKmO/f4o6uLNrbni/X0K8b55J9O0VRM+uJ/rqUqLNM1U7Hj+bYC23Xv59GubqTRB1Suj/Iyr1VyDqdZin97RANGxVLtn5RJdMVytjzRB2d+VQHGa5yjHE7Zgb7gcw8UAlKvNf5oieWUv0i6z632jBg7U+7iIyKoQ/BZrQ6Er9K0LUX4Oo1+HO9tkTWyMatqqKfT7Rxc4TfaOE3d0/F+32NYaaK+9tgZW1He48vZPoqTVEj68kenIN0Z5j0IIH63jcJQpNaIyoF0SIHCX1B0T7HUly9YiG/cSM1omGrVbYPzK1MRW7u662MCIzquX3564W2UEXLfZbZhJ9eZGq0n/TTfSHXqKvoQUP1oHiuMsJOO7SBFHfLhLlYJCr9Tx9WVTeF5emK4j6yML+QCfRRY6wJ6P1EfOESIdz3O03zGqNdvvASn3zDKIfpoie7lXu9ydXE/0cLXiwPuM1+7xJqgsHs1zDRL2Y1K8XlTqS5DBPbz7F6t8HppC9oIbCnnIoZnuiYjh/kpr37WnBDorYT799DtFj3US/W0302Mr+FrxoyYvWPFrwYC1DaMT6Ki62NbZST0UvgVGu5vvp48k+C/vpFfH+TqILaiTs0tkeIfvYo8nubVPJfsLjsHNu631fdjgGufvepVrujzuCLqr1Z3qJ/msJWvBgbUVdbP3cOluNuxLQhkaJeiEZPVe0318gPEnVdj/9cuynVyXs50+qXNjF92CF02pP6epc6r2d4d09L3eeLkRbzM//4LTepag7lfrPskS3zsTPHljbB8m7Osi2WHBuPoRjpn6CqNT/gfCZGs7TRWb4rXOwn17Nh4EQ9nMnK4f6qObmugq8ELvnF0wh2jVPdUx2zMX3Qpjk/i+jRPzRlf3VuqBww+9GCx6scbUuLrata1PjL4h6Q2Ji+5LRlKjU/wZRR967L4X9vRNHFna3MhdrhOL1F6OPrSrVKtRBMqONhhUPOGKW/sQAQd+nBT8DLXiwDhfbYJar+y11V9gT0fcIUX9KXHeBqNcozOTUOObptRL2vZ1SpPcTdtcAt9xps4vKXIi5SPATDwN34lTqftGwXzyO6A9r96/S3Ra8qOJvQQserLFZ7orpMMs16OxqQfjjVkTeIdrvv8aVthqJeqvfT6+HIIl9100TlHibJR0RIfRi3HHuJLU+KCpzd+ccr/2AVbaZRN9N7DtPH8jfr1EPQ6Kqx+sG1sQs10G0ebbaPIFG1F/Uu6L/IDM6TqNE9MdS1Luw2lY1F41XO9B3Q9Rrmk4lhP20CWQfc7S68NbN1cPTDie8RuQBQMyHzgEQQv3rvGq/DybosgW/luih49GCB2v73t3lJstB2Os9Ty8k2JPU/dZDxOnVb4nMWIh6lVzuzDZ2OD/MeFPXjrtUnrSYz9HVM1VbT1Tm7noaxHz4VbZ75hM9vWZwQXdb8MIs9xO04EEkywX2mIvJH6FubawIn3nQEXXExVZjkhM/tL2GWmXDm7k+AiXE3DUhQsjLX2UTJrhnhmm9uxQJc7vQggdrnCx39kSY5eq+zsaJMvxrmkAxqd8tl9Yh6tWHzrx3Mo641PtDAq/t6FfZfmINvso2WAv+wUXq30ELHqzJWlvJGVaIen1EPaH3UZYT5fl9StQT0Rsg6jUKnfk4QmdAn62y7RSrbKv2X2UbqgX/iIUWPFg7URedtetmqZVTtN/rK+o5foMU9UJC/yhEvQZcHFFRpLsh6mAAVtkGoxB+YaYTO+1owYO1EHVhYr29Xa2ddkEn6irqGf5BJerJ6CaIerUmOWUCkR+GMMmBflpl+37CucpWhqiLf0a04P/fQvVAgBY8WAsKk2uGqVVUVOt1bL8bJ0hRp4Seh/u9Bia5tW3S6Yk3MeibKmnrbKJHe4ZeZRu0Bd9L9LCpRB2vI1iruNj1Tlws5ur1c7/n+VIl6snIsQieqdYkNw4mOdB/q2wDr7I9XmYL/onVahaPFjxYKwe8uOVw3DiIej121FVMbJEy7B1K1E0+qdClv4j89ypNcpfCJAf6bJXt60uHT5EbrgX/n2jBgzV0wF86HQ74OqbJFbuiz5N59Fvd9vubC4nxf0ZUbBU8PkJ0I5LkQB9RnFIVJ1VHWmUbqgX/Y9NJl8NrCdbAAf9pOODr1no3RfCM/hh9aMGBStTnzDmQTP1nmKtXkSTXhSQ50GerbCLH/cnVo2u979OCX+WcrEULHqyBA34LHPB1vaNusW9KPde01ylhz+pfFYk0cMBX0HpfEiF7JVdpZ3gTg35ovYu2uWifP7N2dFV6abUu1uC+dBxa8GBtPB53ziM7zbxNIehHzYNn7pRafqx2gBL1PL9T/B/iH8ALNUqT3MKIPDaCc6ugf1bZZhD9MKXa6JWKuvh3f5RCCx6sDe/tkDHayICvW/DMJQNF/VKIehXxsB+cgnOroE/ane1E2+Y4bfRVlbXf3X/3t6uc63dowYNVtuD3OieUF2KtrU6ifuK+op7jJ0HUK2y/Hzee6JMzVPsdog76YZXts++pvPU+sAX/hWOdFjxeX7AaUe8g+wNTlFkOol5LUZdnVymvHyu1XFxpUzP1toXSKJeAUW7UXBIhukXEw86DqIPNF/WbZxJ9u2v0q2yDibpIovthUq3HQdTBakRdFD1XTJfrv2i/13adrZCMvELZOJNa/jFtjFOp6xMoGe3DrnoFzveErtydcL6DzaZolW9pJ/pVvvwUuZFa8I+v6m/r4zUGq1lru2EW2Ysi0I1ar7Olok9Qdurr93W/m0e/idL6H7GrXoHzfbUB5zvon9b7Pe8cfYrcSC34/0ALHsRam9/vqPcLuvMXlGHfxmGXUZrkxFPnqXC+gz5KkfuaSJE7obrW+z6i3kv0fbTgwSopOpm756nPzeWo1mu8zrZVarjlmuQctxzlje0wy41S1MV86P1wvoM+SpH7eQUpciO24Feqn2+04MFqeE+HzPTAtbaan1w9V91xGSjq3bHzIeqjF3Vh/kDmO+iLFLndHURPramNmA9swX/uPaq9j2odrLQFf18n2SfHVYcTDvjaXWfLsuVSwze5zndX1DNGgtJov4+Ki8ZL8wcy30FftN4fWuSssnXXWNR7ib6bQAserE7UxbW2syfiWlstne+J6GvUw+JSw3e5znfHAk8r45MKyUgfJeGAL4vC7LEsqtzGd2KdDWwyb5lJ9IilKvVHV9a2WhdO+sdWEt0+RwXb4PUGK91Vv2gqrrXVRtSV8z2t/44WxQ8e3CiXnvp6SkV/Kx3wOOxSxjqbaiHJ/XSss4HNbr2L++dCfJ+osaCXnmP97LvRgger21X/xAzlRYKo18b5bvGHpH7vcKp0F984Q/XiKaN/EYddRrHOtgbrbKBPDrh8aaGafT9aD1HvVi3473SpjgBEHax0V909wQodqZXz/Rp1Qt0xyblwXXOU0y+DWW4U62ynYJ0NDMEBl3Jb8I/2EN0+Gy14sDJRF13NW2arggg6UhtR7zbWDi7qzt+gbCyLSn0Uh1zOmyTNHxB1sKkHXMSv1R5wKYciNvYBtODBCrlLpR7aKxBAU61JTvxKiahNeaN9H5OcJ+q7XLNc26RCAma5ckWdLp6KdTawuVW6aL2LxLd6td4HtuBFrvzNaMGDFf683lUSQINd9cqd7yoe9k+0Zsah+5jkPFF3zXLr2g+ilP4ozHJlzNTFjvpVuM4GNrv1PpPo+wnngMvK+lbqogX/67wy5m3H6w9WwD0IoKmdSU7/qqPf+1bpnrCf7pjlLLYHc/UyeHyE6EbsqINNbr2L+bZYN3tidX0FvbQFf/+70IIHKw+gOalNfn7CAV/tDXX9U/vEw+4n6p5Zjp8DUceOOhiQAy6fe3f1t9NH24L/1nIE0YAV7qp3kr1pAtkLIepVV+o5fdWgJjlP1M9yKvXu2DGUisrj63gBhzm5msLJVbDZ8/SZRN9ZUf3t9NG24H+TVw+0aMGDlaTKnTsZqXLVzNNltR7to1xs8qAmuf3m6qmp/0ap6J9xhnWYebqYB3VzOR/CmxVszgfkHJXwJtbMfteg1rtL8RBx3zvRggcrS5X7IFLlqr6hntQfpQsXHDioSW4fYXdSaSjD/x9W24YR9cURste2Ed3TiTcq2LzWu1gve7q3sYLutuD/Z5nTgp+H7wdYvqiLbaF/nwZRr3aebrF7S71wQ4t6lzdXvwhz9ZGCZ+LS9IF5OtgUURdrZWK9rJGtd5e/X030qxzRlllowYOjj4q9ElGxNUiSO2+fc6tDiro7V88a7yRTx1x9yB31cfLaEIJnwKZ9OG6d3ZzWe2kL/l604MEKRP3amapSx0pbJaKudtTzsWNKNXtoUXfn6vnIG8lkT8m5egL76vuJusgu/sAUOR+CqIPNab2/q/Gt94Et+G+gBQ9WkP/+mVlqpQ16UlnojBn9I60cInRmUGE/w9tX34sW/DBpcpdMQ5oc2KTW+wyiby9vTuvdvdomWvC/zKkHDLTgwdHkv9/aTvZSRMVWvMqW0b8kD7GNNE/fb66e18+AqA8h6iJN7kqkyYHNar23q2S3ZrXeS4No7pmPFjw4uvz3bch/ry50hl9U1jx9vxz4VfEphQTrsxPIgd/P/S4q9WtnQtTB5rTe729i6720Whedgq8vRQseLJ87FYWuyLwPaMro5ulpRpQx3lXWPL10ri55izaGEuxhspADj4hYEK73IVrwv0ALHqziqAv0ZHQGOZP9gY4/6pCy5+n7teDT/Cq04AeJiF0akXMhOR+CqIONDJzZOqe5rveBfHIN0R7Rgm9HCx4sj3d3kJ1hZC/DUZdRt96z/IFS71v5ou6utq1sWygqdYIDfl9RXx5VYr4Log42uPX+WSfr3Q+C7rrgv7YELXiwfIpLbd241FbZfrp+ZmnhXb6ou6ttiaPfRCZ7GqttA3LfxYH6nch9Bxss6kI4v9ugM6vltuCfXE308yzRrbPxPQLL4z0dZK8xyF4CUS93lU0JOytQtzFt2Lz3slbbMmwXZbmNFrwr6uq6kJgLod0INq717pxZfbyBZ1bL5VNriO7uVK58vCfAEUW9k+wT2lTcNkS9vLx30TFP8Z/RekeXRzNP90Q97czVe2JZyjDkwLvOdzEHyjBlksMbFGzYRbZZRP9xLNEf1vqjSi9twT/TS/RfogU/Ay14sIz8906y18dxU33Uee+xz4xqlW3IFnwu9mZKRf+Kq2240AY2ufX+g6RaZfOVqDtmuZ9liG6die8VOLKo39dJ9oa4uqEBUS+vUheFpGUkR7XKNnwLnt+NFrwj6mIOtMZQO+p4k4KNar2LlbHfriJ6YpW/Wu+lLfjdTgse3zNwOFHf2ykPYkHURxENm2J/FQV2xa330ha83FnPGd1k4RSrd3b1BJxdBRvcev/Scf5rvQ9swX/leLTgwfJE/bQJZC+EqJcVDStb7/yzFa2yDdmCX8ePIJM9S6kWb8GbKnjGXtcm50JYZwMbws2ziB42iZ7q9amoOy34/8sQ3YIWPDiCqN/fSfYZQtTHQdTLjoY1Tin1ulUn7JvcAy/8rpZvwbuifnJcPm1C1MG6U7Szd3X4J2xm2Dvra4ju7EALHhxB1Of///a+AzyO8upanzH5v7QvjRQs7c6sJHdwkS0ZDLhLliXtandVrGJjTO89IY0QSKElkAK4SxZywTY9QAglgYTihrExLrJkuYPpoduacv7nvu/MaiXZqtv33ud5H4FssCzNzJlz77nnwLxskIywZlDvvPXudlLr/QuUDVQsot2v76BuG9GUu4osFbyR1KBOc6DzMoXYg0GdT3hb79mynf3MVGk4E01b2G614GfJr3U+G9Hw6QLUr2BQ734qm/qvkAF6mxZ8WdrX4Hbut1TwRlKD+oUDmanzicwhRfmbftneboxhlt5oieU2e7kFz4dBPaQucuq1AoPdIWi9B4Dd2ouDT/1TUnvB0wVI4o6LGdT5REAgR23sFeMkoMd6690+NCao5xY8Hwb1PrvIFTopwKUFVY7BvXaR67IFX5Z5Gjxirm4mL6gPECIPujAZ1PmEt/U+UkabHqqObZbevgX/jyncgufDoN7n1jvtpisv9XmNrdM41rkpJ8CjbKZM16ScrdugfgmDOp8wH9pLXzQK2FkqI07jgaVzC55Pd0H9cgb1qLXeO9jGejOuS9oWPIM6n0gmsj18hnSQi5fWu/Clt1rwFHjELXg+DOq9b717lSMoVTMF7taGsPUexNb7SdtYNRUe5VMyYkm6nXUb1Gmm/hDP1PmE2RZ2XWH8tN6D2Tq14J+aLE1zuAXPh1faeqd69yr/FJi7OAyAHgD2S9rYxiYfW2dQ58O2sN1owVdLsxwyzeHUNj7HA3U2n+m89e5XLwpb673jznr6NHjU5Jur26B+Eavf+YRRIEcMl5juW7Pii6UHt+DpZYRb8HzYJrZ3hjMe56cocw0Ii0jumIK5G1JOhFvZnnSCOXuljUGdTzgPicy2eKXoLB5B3W7Bk189t+D5HCuljQNdOmPpJrzKgwJzl4ax9R4Ado8tmHP9OOla8Lb5zAXsKMcnjLvpK8dJQN89Mz6P3YLf6LYCXvhny6cdUz+X89SPH7PqAsrVYiLQTeFsvXdwmPNl/ggex3+TSjBne7/PzWCmzifMu+mz45OlB1rwFVITYGsE+OfLJ5ipz8lgUO/YejesmNUDKDr562FvvR9bMKcshN+VPGzdjl6dk8FMnU8YHnhjgMWjgYY42k3vjK1TVOxjZ1kteP758rHO6hyYs1zyWepmMO8gkPOqfxT4WhgBlm7X+ovs5DbHKHgVnRzmjGRg6zaoV7vEhck3KJ+Qtt4J/B4/y8pNL4tzUC+T63ivFgL3jWRQ59N6VuXArEqHmcugbh/CT8JRwlOUDxwZclvYbrF1a3cOXvVZ+FSTduuSAtTpQqxMFxcm36B8QrubPgLY5I7d3PTe+MA3lMvuA3e1+NjngRyYZSrMPAb1DrvpxY5/hzSRrUegfqnF1ktVL7zpyaGCpwuQLsQyVVyYfIPyCdkhgRxlke+vjH8wDz7kiPfQGdIhj9k6H7oGVuTALFZg5jOotwF1ar2Xq+cIXPVHsPV+DD/4r8Aj1tvMhAd2ugDpQvQq4sLkhxSf0AnkRgD/yo1/gdyxWvCvFISnBc/3X/yd+8cK/wKyQTXzGcwDu+kkkCt2vI2CId+KqEDuuH7wxekXCsFcMrTg6UIkX95l2fxQ4ROi8JYxwKKs+Apv6UkLvpFa8GOkEDBUYTdLsmR3g+/B+Dr18udnznDALGBAj7pA7vhs/YffgNu5Hx7FJFl+Qv8Q6EKc4ZAPlnq+SfmEgG0uGAU8eibwVjXQVJZYoG6z9UfOCk0L3g67eehM4LEJwH28Bx9X62zLs4GFWTCnM6gHWLoUyGkodQ0PW3hLr9i6T/lpUqy30YWY5xAXprhAWQDEJxQCuY0JJJBrv9pGc/UNRXIHvy4EowoC8pfzgffmAI+cKb9/S8fwtRQvoH7vaLlFxCy9VSDnU54UOLooyoDehq2XpZ0Ej/I+3IqQ5if0D2NamrgwGdT5hEYgF+cOct31gq8LkRc8MfVtfvmyQC9C5JN/36lyjMHXVGyD+soc4O5RMCenskgu4CCnAiWZBcEC9OgDeyBrXbkDJSqMRGbrdCFOThUXprhAGdT59NVB7sXp8Rex2tMWPHnBPzOlb2zdttFdMQ44WAU0zQSaZwJvzwKez5ViPAb22AZ1WgW+bQTMiQzqAtCLSSCnbsW0lP42QY4NUE9J6Se+oGpnGjzKJ4Y7gc1o6EKcmCouTHGBMqjz6UvE6pIxEpz2VCYuU6eXFRIA7iiRLLu2r1sCedZLkKU/sIGdPk+teQb22AV1Mu369XCYk1KT3iI2sMZWol4iSXEUBXKdxrJ61bvoC01Ytk4X4qRU4FfD5QXKoM4nWSNWe3LoxYWEgDQDX9BLwRy9DCwaJV8O2m8JNFvJcNT1mMfAHrthLjkwfzJUtt89SS2QI593E8WOt6K+xtYlWy9OcLbukUzdvH6ouEAZ1Pn0ei1rwUhgqw/YX5X4oG4nt232ymjZ2l603onlP2JvCRzrxaEcODxLiugY2GMT1B86DeYVg2BOGpDcoC7W2FyAX7klJll6R7bu/CN9wQnJ1gVTHwDz8kHiAmVQ59Prtaw1Z8g28u6ZyXPo77umFw5z3d0SaLJa8S8XAPNGMbDHHKiPg3lhcmepizU2tzCc+USQYDlL7xeboG6z9VI1FV7lY/rCEy6W1c5UP58z1fn0cTa8viixBXLHY+uveyzBXHb3AX3RaGDF6bKr0Z1WPwH7S8zYYzKhrTq5E9oCLN2r3CNw86IYUbwfF9gLbCW8ZOsJt7duh7pUcKgLnz6ssdUnoM97T2brj/YgkpV+z309fAmiVjzN2P+TL/9b3mOPjbMyB6ZPSdowl9Y0NueXKHEOFCS4NkZZegDUay227nZlwOs8Qm45CcXWbf/3Yiewgq1i+fAaW6+U8GSJu6gb7XF7VLF6vGT5PX6BmAW8kCfX3ZZm8/UXbYvYpWNhFiSvm5xRZFvCKvcLvDw3xll6ANgXBWJZH6G/QMJ5wtMFme+Qrfd6NqDh04NDnuV0vexO8DW2rlg0vdBQe/zeUzt/MSbQX2CZzRyo7PlLkN2Kf3YqA3ssuMnNHy07nclrCWvAq7SgzDU8Llh6h1jWkvQp5JaTkH7wU9OAe0YDKxnU+fRE7DUSeGaqtcZWlpygbh9qwz9u+bfff6zvWbYEfepq0PeLXgZ68+fY625PTgbuZa/4qLrJ/Wlk0rrJ6a0sfYXAx/PjhKW3s4/th2JlHbwillVPOAOaO9mAhk8P09gWJ2gaW6/sYyuk8I3W1Ahsa63UtTqro0GA/vQU4NCsY6+w9RTYD1l78vNGMrBHy3jmN6fIlWBPErP0cvVUgY8XxRuoWyHvKHVVk3VsQoG6bUBz4zA2oOHTfZZOwrAnJiWH2UxPoln3VwPPTpMKdwJ3Yu7ktvfvfOnv3hyiWb74s6qAladbBjjcio+48cyPhyYrqNssvT5mglt6HfQyLfN/UaTsQrFg60ZC7apfybvqfHrA0u0gkv2VDOod2uPVwK4yYL1b7qLbc/fmMIj0KN7WXpNjxh5BUB8H86KBMCcn1456EEs/Cl/mUIGLNXEI6sEuOfArF4v1tkRh6x45UzfnZgCreVedTzcz0x87KzSt5ERVxe+tkEEtdKg1H44XHwJ0UtHTyxWp78l7n4E9MueBHJhVLimUcyclS18cV4r3ztj6F3N/+A24nXvI6zYh2DpdkLRnWapK8QffsHy6soQla9Q3fDJilVl65+DeGIFd+ber5d47Z7FH5twv1e+CEOWnJSNL/xQVmWpcKd67NKMpTL8kodbbaK1thkM+sOt5Nseniz3rh8+U82EG7thZq3trNvBcbs/c7fj0rvW+LBtYlAVzenLtqAe5x90ZF+5x3Wbri1L6wZv2NXiU3QnD1oukXSz+wrnqfLrB0rd4O/cs5xOdWT7N7emFaz4De9hz1O9KrnU2o8hpGG7FhFd5D8UDvh/THu89BvZci60XZZyLkgSZrdsK+FtOYQU8n+6xdJ6lx6a7XXOFBHQWzoV3ne3G5MpRN+y89ML06xKGpXdg6yNSTkSxupWU8Ih3YLdA3bx6CPAQgzofZunxCeyWcI5+RhSFy+Ev4YtcvXxQ0oA6daNFXrpbaURx2tewQNqnpyRS4TzLZa4404dSF+Ie1KmFRElDczI4rY3P8RXvneV/84mhkJkgj3hm66E/q3JgzspImnQ26kYLnPOr5XHpHtdtYF9shb141f/Ap8R3Gz4Q7KJIT+P7+cbl096zfCSw1c+K93iarz90hmVMw9cwK9/7AOg+scL2gsC7CxIU0INnCvClj4dPNVCYALP13DQRUoDl3ILn08497m8TeS893ubrjeXA4jFyf52vZQ5y6cUhXINX0THTNVbg3cUJDOrBbQh4leVxv+Jme8D//hT2gOfTlqWTscmOEgsoYg3EyoMOA3obYxpi668Uchs+1Mr3W0dIe9gEb71rtjjOq84XOHdJggN6m7z1snSXWMh3O424zVu3xXLXsFiOT7sktn9M6VuyWFjBqwTYMxdongXsLmMw7zBft4Jf5nMbPjQiuRyY1w5OeJGcXGFzmihW3kX1kB+IQLNEWWHrEtgtmzwUKr+O6xU3WyxX7ZIrG3wT8xF56WNiOC+d7FeLYRy6AWg+B2gsYSBvf6i70kBt+NHchg8FqK8ZB/OcDGmtncigLoxm0gGPepFc4Zar3MkB6sTUF6b0Q97JXxeS/3g2pMm35ih1LJaLGjOmOFM6tTHwtVDbltLFDsXqClsFsKsQ5nt3Sbbe6GcQP1Ybntg65bhzG77vIrl6EskpCS2Sk+I4BXArr9TPTjnB3vZKqmqdraselMb5bH3KAODP7CwXtbWxVadLgxcyD4mq0cxoYOU4qXZvjmVRmBv6xyuBPbMZ1DtTw1OwzAOny58rA3svRXI5wLzRsqOZ2P7uBOoavOljBK5dmISg3g7YH6cVACMegd0jxXLmz4aJvGAG9QiCKIE45W7vqwA2e2UOd7SsPkkcR0Yzr8e60UwZ0OiD/uVzQHMVt987U8PTz5Guq/lsStMnJ7lbTklokZxui+MKHH8UeDY9idruxxfNqZnwKp/pbqdhxJtoziM94M25mSIvmEE9QoC+xJp3ksJc5G5XAPdnyzZ8tMRxT0yK8RU2mqd7gT1nQ9M2ya9TgHoFg/jxRHP086TVRBbN9TJD/TSYlw2EOSkx5+kB5ziPswn+Ed8UY+VEc47rNVsvUq5HSZwa0uRLlyQBKjxXj4AYbYxIfBJRpgTou8qk0pwU59FI3LLFcQQCeytjGKhIAFYE8+DV0MxGoKmUQb07orldpfJ6Y7beuwz1MlVGVbsTmKX70mcktHNcj0Vz56WcgEme/vA418et09yUVJ6rR7LNvcEtAb0pyDhku18GqETy4WuL414tbP16YhakqoCGPJjv3gYNe6QgTMzUGdQ79YanF8ZnplovjHwP9sh0JoHjVgOAXuioZUA/ntOc35FNYgO90KnHVRveMqExb+C5enjPGAmgpEpuvwNu+3eTYG5hhFqltnPcI2fFib97FbAzF8Z/l0LDXgu0GNS7PLSaSC9A1CFaksX3YU9MZ25LTNMZvchuuyv7Ua1+NyEDW/pab8yw41mVO1CiinD5uNtXn22Fu/BNHQYAzZZM6clJwNvHmFvbwqaNbmBehEA9btruQTP1hukwvngaGnYDu6uFaI5BvRuiOXph/Gcus/UezdNzYF6RmMlsAZbuzShglt5VG362+lV4lDfhjbM2PLWX8h3yYl6WzWw95Ktro+V6UVfrYrSGtOq0CLD1McC8EW3HALEO6LtLBDPXWjaImbrZfLYUzjGod4+t08caZuvJPk83ipwaEU8UOBcmvdq9S2C/0I5ndY0nQ3y9KI7a8LYP/K0j5BoHg3oIle5WwEZDaede6o1W0hYBLQFuXZi7BgEr2HgAJvq+eWDuuxCauRO62QBz73nic+LXGLh5th7qefoCK8SlILHU7mSkg2JlD3KHfAuLuO3eNbDbbfhC9XfU3oib3XUCdVrbuHggr7aFnBGP6hkjPlgNrBofHrZOgE5z9NXj5Z/THC/AVCVa7+bhm6GjEbqxE+a+SxnUe6OEX2yNXfj+7MQaNvH20y2TGU3Eqvpc0wROXcBt9+614eemnIDqrK/A43g9btTwgXx1J+erh5oRPz3l2HP0Tk1DikNvGmIb3tDHppkxmsDWmUguD8ZHS6BjF3RzB8wDV4sVNwb1HszWaW/9Cd5b73qePg7mhQOlh0eigLoAdBdQ5LotmIBydQfYl8hkG3hdY+BVjhrxooani3dyKnD3KDFPYrYeAgBdPg7YX9kzRmybhpCoLlR763WWMI4iVbf65YtDUzwlnJFIrgDGF/+AbmyV7feDPxGfY1DvictcFbDFcpnj+7QLv3dnwvi9t3q7q2txXcqJFErGbfeeAnu+1Yb3KdehLF0k4MRHCz4V5pUcxRqSffQFI4E3fb2zXSU1OrnMBbPrvs71Saz3midOhHHtneRKxEuIpm+Crm2CbjbBfPtXQMMMyeIZtLt/xHiHxJhZzNaPxdKJ0Nw9UhCcRGDpou3uduoiKrxk4GBWu/elDe+2gN2rPEXz9Zhvw9MFTEpPeqNbyVGsfW67P5vbeyFaoA3v6Vsb3mbo8yzDm7fiDdBtkZwb5v7LoFHr/eha6GiC+c6tYs7OoN5DwRx1gV7KD68YM97z068ZIgmOO0Ha7mXpQLHzvKQOawkRsEtv+JmuAfAoh+FRjJiPaHUHuctxC753h5j1Cmq79zHtzDakoShUCntZOqbnLxf0tVDL/XVPnAJ6kEjundugoxn60ZfFR/P9u4GGXBnswoDdsy5QY7ns3rBg7tirbOWJscqmF1BGOs3RlWW8vhYqYL+kbUQrqQ/1WJ6v2y34KwZxC74vNrCbQ5R2Zs/X/5UngZ3+/3XdYOd1YyQ7r88BtpfEYcu9XfudRHKfPCBFckdfkUz9g/nCYY6Zei/Z+qMsmOvA0lfkAPdaUauFcb6PXiBa7oDHte2I/yQOawnLmptbuRv+9Nh2mwuo4BVpQsMq+B7aro4E/jYhtGlnzRZjfzlfPoQpg73WYuJ1Y4NOtvw8rcLRC8DjE4A9FZYoLp6BqAzY5YF29CUpkjv6qgB34+N6YOd0Fsr1SgVfDawv4p31Y7nI3TA07lfZSJhNqaHwqZ/Do5zK62vhmK9fmHICfpJyItzKqzG/5maxddw5UvofM1vvfvoaHWpt7gsx0IhW/GzgTT+w5gwpwqOZKIE8gTh9pAc0fX7NeGCTR75Y7I2ntbXjieSKYe49B5q5XYrktLVipc349GFrps6g3ieHuRp2mAucVeNgznRJph7PoE5z9FIX4FPnCAwq4LZ7WObr0m0uPR0+9UO4nbE7X3dbGesXDgQeYiOaHmWSU5ucZteNYVgXa7JWkki9TLGtz08DHj0LeOhM4PGzgH/mAdv88tfjnp0Hz9NnwHz7RujYDV1bL4+xDcYXzwAN+WwT22s/+Gp5/SzkFnyg9T4v/lvvQhhHNrCF6jwG9HAD+6XWfN2jeGXkXQzP12c4pBc8tXOXMWh3ecili/LoiQHtCfPDmD6SCI9aqMTGCcSpPU//vr+y7e9LBFAXpjO10klOW2eB+lYYR/4N7CpigO71XL0aeLlAJgcyqMvW+0/ju/Xeuo/ueAXnZH1FdIh5jh5mYC8I7K//FmWu2J2v2y34G4dzHGt3M8npAXkoTCz9WOBOf07jzNZMdvvfEwqAygVwG0f+Kdh5gKnrW6C1rLcMdEqYrffm+qER0Y4SydT5Po571Tt1fkG+7l71EGakOYI7xFwR2F+nj7pXjd39dXtnfaYq5+p803fO0pfl9Nw5jk+35uloPhua/qY1T99ondeg6W8AzbM5qa0vh8Y55Hq4OCu5WTr5cvxllBw7Fsatrzux9Bb41LOCO8Nckdxfr3R8Dx6l0YppNdg2llk6n2PN038ZNE/fGDgaGmDuu4hDXfqas/7UJGu1LTt5QZ0MZ66MX8MZaTBDwjjXhTxHj/b+uidtlFg7iEXhnL2zfhEL5jpl6bQLvpdZevjm6XXWPH1tEKivh06Z6gevBxoKGdR5rt43r/dl2SLMSqzzuuPQYIaCWgrVPzOgRxvY7fx1n1JB6we0hhBzwS8FDpjTHa0tZgb2jnawL05nlh62ebobxpEX5X56G6ZuWcUe/j1bxfaFqZPgkjYmFoxMXpa+Oge4fURcsnTB0P0u6EXK33BfSj/aRWdhXKwI54pdN6E8BoVzdJGTGvSGoSyY6/BAyJJ76U1Be798QryfPtfaT9/Y9tj+7x/MY1e5Pu2rV8jgIPt6TjoHSCtmdW5m3MWsSqW7CniUTaj8wTfESJeFcTEinLMT3YqU5WQlG1PAThf5dCtnnR3m2rnHjQKeniznkszSw+P3fvg31jx9XTtgXyviV8k6Fg153H7vc2rb+OTbV7d30xdmwcxzxJVArlXprhyEJ1MR+FHLgB5bwL4gpR/OyvxfFDteorevmAP2ianAzbze1uYNn1qW1LqkFmYjg0PoQZ383h8U4N0R1C0Dms/ZgCYkYrknk1AsZwvkro+v3XQCdN2tmEKL5XdmswVsrAL7IttxLuNH8Cq7LUW8HlPrbWWqVMEzS5esZvV46dzG4BD61jvtnjf6obVsEDvp7ZXvrbvqa4Emv/SH5+9d78Vy5IQofOCzk0sgtyIHpleJm910sbpWJNruBrxqMQvjYh3YLwg4zp0Kr/JfuGNo1c02o7l1hBSW1CQ5qNMDkDKpD3HrPSz56Q2FMA9cDU2o3td3nKnbu+rmNqB5Du+q94WpU/t9XZEMI6pLMoHc70+JG5ZOImqDdtHJ073YJbPRz0g5kZEzXoRzHjWXjAR0uepmxgSokydyZTqb0VAIxuLRQEO5XGVjcAjDKlsuzA/uFWK4jq33Vrau0Vrbgat4ra2vCvgtPgnqyXQfr86BWR0f4S3E0IN20W8QGFHIDD0eFfGzRAa7O0Y84m22fnsSs3W79f7wmZLhMDCEZ5WtoRDGl8HWsMcCdVLAN8N85zZea+sLqO+17GIXjUoelv6A7SCXGhcCORQ6WwSge9U7bYzg1bV4BXaf8zrbIz7qO+zBbH11DrfeeTc9jKts50IzdxwHzINBvVGY05BJDTP1Xp69FTIumNYza5JE5PrQOGGqZU6KA5ZOgF4uYlQX2/4mDOjxDuxe160E7EYsKOJttn5bkrJ1eiAQo9lRJgMxWPUeFtW7+d6dx1llO4YC/ot/sAK+L4ecEGlXvS4JdtXtNbYFY2DmpsEsiBdzGdcKsSV1PgN6/K+6tQL7AmFOUxBlYCdQp5uh3FLC1yUZSydnvZXjZBAGA0J4mHpDPozPnoBu7Oik9W4r4DdDa9kINJUCjZzW1utDYUT12Ykf7GKvsV0xCOakATHN0iWgq9A9zodRmXIC5snMEEbGRAB2y/pPd7tWwp8R/R12e2/9llOSa2+d1n1ol/fvbDgTvta7D2iuhma80S6V7fjArmEXzP2XAo1ubsH3Ja2NbKATGdRrpMc7fTTzHTBnOGJ5F71F6qkcT2FW1ldsLxNGxEQC9vlkTpPSHx71cXp7I+FE9F3mFGBFErnM2fP09UVSJMet9zC5yP22G613+6yzxHLsAd9nUF9pRbDWJTJLPw3mdYNjeo0NBOj0jPc6n0O286sCAxjQExDYF1pxrRPJdU55FiUxAOy2J/xDOXLWnAzAbs/TeZUtjK33x6GbXbXeg0Dd3AXj4+WWBzz/XBjUj3OIpdeOlQw9Rlm6YOj0bC9WnoEv9Wv2s58RMIGBXXyc/qOvw6u8QG9zWjRn7DOSLMHNjlndz8AR1ta7vrWbrXdbLLcV2tGXrFx1Hon0GtSXJzCo2yz9GmLpsTlL122G7lOeRo7CDD1pgN22ky099ZvwOv8jhBTRAna6MSanwrzYyluvTYL99Ed4Pz38rffmbrbeWw+tv5l7zhXrcCyW6+1MfVxiztTFLD0npmfpYm2NGLrX8RQmpv8vM/QkqxfPtexkcwd9C17nK1EF9iJrxe3ukVINX5PAIjmapz87lUVyYWu9T4fxRXdU7wk2V28ql8p9+hhN9fv9Cap+t/fSrxwUkyxdqNxLhbHMY/AO+38pnLiW5IxdAnv0GHvwituqBF5xo7/XfSOBVwrYdCbs2emv9YilixcAimH99CErhjWOmHpTiQB0861fWsE0UdpT35Oge+qBvfQsGdpSGIOATsYyfnUF8qz1Zc5ET2Jgt+YtKDmFWvEvWMDeEi1DGvMXwxJXNCeU7yOAzV6OWg2L13sezPfv7oHq/Rj76tomaTEbN/vqZM86Gfp/l8L8cFH0ugwE6NQlqElARzmbpV84UI4K3TEVziIB3euaH9hy4j10rgCwTxj9DXjU5wWwR0MVT3OqPAewMEu+GSdiG55m6uSRzU5yofd631UE48gLXXi9d9WCb4L51s+Ahhlx0IKvBHZOE1+vhndh7r8CaCyKvHo/kb3fbY/3v5LHe+ywdKPAaRoUn0pe7v506eW+lI1luIKB3Zq/4FzHV+F1Po4SJfIGNfQGTOEIczKANQkomqO2ZO0YyWj2sBArtK33Qpj7LxcmMrq2oReAboM6rbatsFbbqmIb0MkK98CV0NAETX8DaCqLToehfUpbXYJ119bkwJzlgjk1NjzeKUqbWLowlvGovxDPbbZ+5TomsFtzGORMOBElygPCUjYawE5OczcNl05ztQkG6iSWI0BvZjAOdcyq8VG9AOWet96DWvAateBfB5pmyvW4mGzBV0qf+n0XQNO3iHGD8fnfgYaC6Hy9wXnq8xII1O289N+OiBmjGQJ0uBUKZtHhd52fwuEsXN0BdnsuA2/6IgJ2o8CpRzTdjdrw+bS7Pjax2vCBHXV2LAv5bvrumQKMCZR713oPZuu7YR7+TYyq4CsleDfPEfN/XX8DutEA479LrJS5KHy9JPgk4ee/8ixQz06M+7V+LLA8W7heCvdLd9QBXUexAPTP4FfdKUGBXVxcXQH7/9B8RvyzT71dxLYWOXWa40SlDZ9IQS7LOcglLIls79zaq930YxvRbIfx5TPWXL089gB9TzW0lvXQsQP60VflS8jbN0fvJYSYOq1oPjlJ5hokAqjX2nawQ2OCpQuFu49MZdS34E8/nQGdq3fAfr61y+51/YTmN3qR06T2T8SAfUICqeFtUH/gNOAgg3poBXIFML58rg8CufZnAzQ0SuHZrsIYacFXWQz9bGgt6ywL3HWWac5O0YqXbnhRcio8UA2sHi+FoHUJssI2fzTMaSSOc8RE0hq8yusoUjMY0Ln6BuwXWsDuyzgXPkWjeQ61gSJyQRc4xE2Fe0fHvykNPegWMaiH3mymEOaBawQI914gdwy2jp0wPn0YaMiNAVC3Zui0g09fn7HdAnRaw9siQB6NtJ9eEp2vb4+9o56dGDvqQhw3DubsDKl4d8fAyprP+TfkD/mWeBZfIJ/JXFy9B3c7j92nTIdP+ZjmOhEBdtuUpsRKcqvnHHU+x3CQ+/Rh6GgIQes9+LzWGscaVbZeIccL+y+DZmy2uhHrggxzdsD47G9W6z1KIjlyktvmBxaOTgxxHAl0bzklqm13o8Bp6IVOU6yslap/DYiYl7KpDFfIgd01Bj5lL813IqKM91hJbongDS9CaxjUQyeQc8Pce77wbO+5g1x3Zus7LcDMi87fjxT4O6bCPHiDdMkztrZ7cVkr9uqND+6L3goegTqJ5F4tlG6J8d56Xz426ilsQhDnUcjylRTuV6S0msowoHOFC9hTnfApr1omNZFZeaM1t5vjfM2NQJ28scmog1faQmK8YnxUK4AttCy9dbaum7ul/aoA9soIAnqJNJZ57w/WaOFYqn5i6mSW89PomeWQ8p1Eck9Pjn+RHD1XHhwH8/zMqDnHSUEcAbryDnVGxfP2Ul5Z4wonsFvzHMw4+evwqauFMr7AqevhXnmbYc3X7xkVv/N1e95o22oyOPeBpXsFiGnGFuhilW1jGI4VyaptAJpKgaZI7K1XCmc8Er0ZH9dblrebjiMAfA2avk2st8nvR5SuKVrRXBHnkau1Vtv9N1bbPdJgTiJkIYgjy1dlA3zOgSyI44ocsAfNdVDqug2l6eKtNqzKeHu+TnuaxHaXj41PYKcH385SydYZoPvA0nNhfjCvlz7vPd1bb4Tx6YNSNBe2FDSr3U5tdBLEkd2t+Lutj+0MeLqOd5VKEWhtnKvda6LTdqf5OdnPWvPzpZj8w2+IZ2s+AzpXpJXxtnjDr8yFT/mS5kBaOAV0dvb67Axg9bj4ZAULRgJv+jjQpc8svQKaaElvDtEaW1dq+N0w3/8rsHMK0FQR2r8PvaQQMFMW/Du/h2Zus1bW1nf+skGpcp+sjl6qXPA8PZ7tYYPV7hFuuwt2TvNzn9ICr3pV4Plax/NzrmgBu9uas/vVM+FT9oVdQCeEcwNErjEejjPhnEhpGwmsL5K2mgzqfWDp8yPA0tsejebr79wG7JxqMfaKvoF5c5X0ahfsfA6Mzx61/k6vd+PvZTnfvfdHC9SjJZKbBfxtgjVPj1eTmRzhhyF8MdyRW1cL2j/fA79zIs/PuWJPQFeQ6oDf+QJKlfDP2Uk496vh0pgmXtrwJCIiUH8hj/PU+8LS99AsfWsYZ+nHO5ugkTDt/T9JIKavpbmyh+BeIQGY9soJjBt9MN7/q2TnYi1vfTc7D+ulQc6Ba8SuflRMZ8R+eqW8rhdnxWfbnfQ591gmMwWOyAWy2OtqPvVRlA36odQpcbudKxYFdFkTToTf+ReUuhBWoxq6ASelArePkAKXmjhh6sRo/jZRMhxm6r1UvC8No+K9q8CXjTJA5ZM10s1u5zTL+KXKOjbIV7S21gO/Vi7W8MQLQVMpzHdul+5w3Wbn7V4wjC3WC4IvOsls5CK3yQPMi0OWXmN5uy/LhulXpF7HHdF2O9m+/izw/LyUDWW4YhHYg+ZAcs6ufm4Z1Whhma/nO8TNSG/aIk1pCRvQJDRL31UEk5LJzJ1h2Evv6Yy9UQSqmO/eKSNPCajJAIbyzBuLJdCKj0Xy8xS2sqsQ5r6LYXy4EFrLRulVb7zRi5eT9cKExvjyn1IpH42fh+33/lScrrKJtvs4mBcOjIjJjGWxrYt2u09phC9jUkprBjrPz7niZM7uU3LgU98U++zhaMfTjZhH3sxOqb5dGQc77MQQlowBGstZAd/T05AH47PHhIVr+MVx3VDFGzL2lMDd+GQFzMO3iEx37D0HaJ4lPpITnPn2TTA+qrEU7Q2yy0DucLbVa4//7LVSkf9xvWU6E63We4V8UV2SFX8sneboNw6LyPqaAHOKS6XuZYmyHKVpJ4nn43Rut3PF45x9aua34VeW0fwoLGtvBOxTrVU3esCsjPFWvBDLjZBtywMsluuJ97n51i+EGUzoPN5D0Y5fB13fLJToxLw1NEDT34SmvyE/Ur47tdfJQEboADb2AcyDQb1ZKOWjksxm56dviMP89ForI/1Po+RzI4xzdCIxtA0k0tW8ykfwZczldjtXfAN70IULv+tysfZWrIa+HU+K+KmpMMtUoJ522GMY2G2x3LNTZfuSxXLd2N/2i3a2mD8LYFwfI6DeDtzF2WCNBuyzIejXQvd1B3zpaUYfaaYuWu/VwCNnxlcqGz0T6NmwdKx8bkx3hK3tLth5YPfc9Tw8jsGsbudKnHb8pXaEq3Mc/MpmlFgudKHMZ7d32CvTZfhLrAI7PQAXZgGrOK2tZ+K4moivsMXmoWS216Fpr8m1OlqJi7RIbl+lNFAShjNj4ksY90AOzEpX2PbRA85wxYKdf4ly109sEOd2O1digbu1roEzT/omStT5lM8ecnW8xwL2ahewMoaBvdaKYaUH4z6eq3fZdj9wjWxfJzWYB4vkdsD44mnL7z0Kqve3ZgPP5cZf65183S+yhHGecM3OnXJ27nO9DH/6mACxqWcxHFeit+M9zkr4lHdDLqKzgX1WDAO7bULzUj7vq3fadveJ1nvstt2jcaxktg8XSkV9pOfpwdnp8bKbbivdbxgqDWbCOjtXv4Df9UtkpZyYwt7tXEnXjvcPVFCiPibmTlJEpycFYxct+FHAQ2dIUGcQ73jIB70hV9igRmcnPYaZOjnJvf2ryCez0csnXa+vFMRPzKpQup8m89EnEaA7wqNsl77tL8CfOSrwrGOrV66kAveg+RJ8rsvhVT8RFrOhYu2eoBk7iediTRUvWvCjgB1WC55V8O3m6FNhvncHdOxhht7BrnYHsPd8uQcf6fY7+SssHyfHR7EO6kus5LU/joQ52VK6u0PnCkcnoGyfqV4VmJ0XpPRnMRxXcgJ7bUo/LLZCYXzqqShR/yXeeAtDxNptYCdVfJ1lCVkbYyr4f+bKGWVjlFvdMTVHz4N54Fq5DiZiRxnIW0VyW6AdXWu5yJVFdpZOLJ1yC2glsy5OVtfIApZU7vmhAfSAEI5c4chIpsS1BsWuDJ6dc3EFg3ueJaKjm6I8/Tp41c9CxtptVbxfkTPAVTEE7PT11OcA+6MlliuXbmgi9SxWAL0A2Huu2POWbmvM0tuAurkDxqePWvvpEX4Zo2TBB04HFo2ObVBfYr3AL8yCOcMyqHKHcE1NhrA0waeWB55hPDvn4moH7PXCLvF/Wlm76zk5aw+BQt42qClyAveOFirYmGjF22yd2M+haBjRlALNc2C+9UuhMhcAHzXWbgH6nmppoWps4zn6cURyIgI2kslsNktfFwcsvbbVgEp06kLg6d6m1U5eGyXKHShJ/454Vi1K6UcdR36Cc3EdD9yD3nhR6roSxcoHlkLe6JMbndu6wac7xIxNpLvVxohgbs34KAnmyE+9APrHK6H/d6mMFBVt3Uh3DqokoO+ugnb0VejYwYB+vGQ2in89+BPr+xWhn1Nz8Cx9dOwDOpnLeBX5Iu8OgV+7x7Z4dT2BEufIwPPpInaF4+LqOWsvT3ehVF0tWl4eRaQc9bol77ZcpKakATcNl3nsdWOjy9prreS2zd4o2MZWSLFVcxU0HIDx6eMiPUyw9t2VEWLtcoZOPulydW0nA3qnyWxvAs1nWyOTisgp3mn9MpYV7zag142BWaJKh0lPH+fmbsVutW+Hx1UWDOYshOPi6itr97vK4HM2i5usL0I6txXbSgYU1w4B1oyTTlM1UWbrD58pH55N0VCa58L44D5oeF+IsMyD17XmhYeNDVZY6WZTYR64Gpq+hVvuXZrObIV25N/ALrfUQ0RkL70SaK6wZtVZMc7QQwDowXPzYpV8NG5AadrXAq32Gm61c3H1DdhJIb/IUsgXqd9FiXInvMrRgJCu1y15hzSimJsJLMuRwpolycrWJXhT2phubIduNsH4eJn8dTI4IfbeXBUiZmhljDd6pFvcu3eJEJTeRZAm01knQmOMTx6wTGciwNLJhpbyCZ6ZGrvucbWtWy2mv/eALp4lhU7TWlE7Ar/rHlQ6HNxq5+IKF7gH3VQoTc9Cifq0mHP1tSVPyvgSFViQJXdaa6PI1leNl+lXu6PF1udbdqzrhCBL016H+e4dFgDnAY1+S5xV2bs/Q4C5V3i5Y+9cGJ89KTPFxdoaq9y7BHUynXnvD5ERydGL5YFKYHuJvDZj0eN9ibW2tihLpDQKQHf3AswDIjhxVqFCPTXwrCnmnXMurvABO628BYO7Rz0bXnW3aJX11pHOYynjSUB32wjpPhWNObttHbsuGkr4ILYuGPPrQXnhzUK8Zr5zu2Ts1JZvKJTKecEWq4KAvqKViQc+XyX3qem/EdnfVTA+XADN3B4juehxJJJDI8wDVwKNRZERydF1SK6HC2Iwia3GAvT7Rsv7uIeiOM1WtHtV2WovVf8OrzqB5+ZcXNEA95qglnxJ+nfgc90Cn/KxpZI3ewzutoDOnrPTw2J5FFg77a3fny3nmHuiydZ3B0WFrpOtccHcX4PxUa0FLH7JuIk1kl0pRYCS6E4ct1Rn0y61mM0Xw9x/BYyPlkITLwpN1osDA3r3DyWzbbZewHzhbb8H28HGYtu91nKKu3uUNJXpwdpaKzO3zWPUFzAzc0bg2cJzcy6uGGnJlzgHokRdbrfRerwC57bm7BMHwJyV0epIVRuFvXU7a72pPApsvUoCrwDddnnh+mYJyGYjtJa1MD5ZI2bi5sEbYO6/DNhznjCOMfddDPPgtTDfuU3M5rWjL0OnuXkAzHl23nOR3DYYXz4P7JoR/mthb6UUbNaMiU1xHHXTbh0Bcxp12LoH6ATmWoE1M/eL829UDCxu0wW8lOfmXFyx0ZIPVsl7MyfD53pezNuLlZ6L6egBMSVVOFHh9hHAwxFux9PscsFo4E1fFERzNltfcJzs8vWtDJ7U6maD/H3UosdOaOY2eYwdAvjFr9HvEQlrGxjM+2Q60wjjozpLJFcZ3iAdeqF8/Cwp3qyLoXZ7nZW29rNhUgvThfWrvWceEMBJMH8RVS5Pm+fHVQzmXFyxB+5BKnnx7zNdZfA4twT223tiOSva8WnywXHVELkuEyl1vBDNjQZWjpOGH80zY4StbzwOwK+1/nnDMX59bVAbn8G5zyK5w7+x7GHDJJJrstrurxYC940QO98x026ncdjqHJiXD5Jjsk7CWQJ75vZqmuze/R3V6nQGcy6ueAP3S1sFLjgn6yvwuS6FV23qsXkNPTAKrTl7qSqCISImorPb8M/nRqENb7H1D4/H1vlEJZkNDcC+i6ReIRxMnTpClBbYUA4sGSNPLPm43z9GjMXE/Xic+FRr5KYHTGOKlSModdWjNPM0BnMurngH98uD5u3Fw/4PpeqPUawckEr5HoI7ze5IXXvDUPmAiUTaG7Xh548M2l0vi0G2zidiyWzaRqCpBGgsCY9IjjpCtE65enzsqN1rrfn5PaPkytrkjitrgRY7id+KAw5w78Cn3o2y9GGBZwAJ4HhmzsWVAPP2YHAvSzsJJeqN8CmHewTuwS50M1UZCkPe8feHkbXTQ9VOw2qeGeHMdWbrMZfM9vmTcssgHIAuTGZmyxhgoXbPjv78vF7Oz3HzcPlSTQp3TztWbrfYhWEMdeLULfClXwNf5o8C9/yC1nhnLi6uRAL34iAxnSf9ZJQ4f41i9a024N6VoM5Oe6OHzPXE2rNbFfI1YWrDE1u3LWSbIzxb3zOL2XqMJLMZH84P7PmHHNDp2nrdI6+1aJvM2O32lTkwL7Pm5zPk/NxeV23Hyo/Arz6CcpcHc4Ne4GnPnFfTuLiSDNyrB/8APtcv4FUPthHUdQbuwaydZu13jwIePA1Ylh0+YCf29FyuZFMRm69Xij1048OF1ioas/WoMXUSyYl43BmhBXV7jt5Ybq2vRTEnPaButwxlytTA/FwvEvdk66zcK8B8G0rUX8OfOaTNPc4OcFxcDO6iLe+jmbuzyRLYBEQ3XUa5TkkTjEI8mB4Mk5CO2NO8UTJ3/e1Ihb7YbL0amlhJY7YeNZGcuUPY6gpjn1C238UcvQpYdZo1R8+O3ux8RQ7w4DjgxuHyvpqaBt0dtI4mPdnfhk9dihJ1OqYF3b/WvJzBnIuLwb0tuM8c8U34lItQrG6G1yVNbAqtlt+x5u5CIe+EOWmAaBHiV8OBVTnhacmTGpk8uLf6pXCuqYzZerKI5I6+YgF6WWj30d+eBTw1OXpz9Jogd7iasTDPyYA+cYCpT0/T6d4KgLlffRJlajlK005qc/8WpvSnVVZ+knFxcXUO7ueknICygeXwqf8OmFbQTO94ojp7r32CJaS7a6QU+awIIbjbwjn6Z2qXRsSYhtl69EVyDTA+fdjaT68Ibfraf6bLjPSl2dFl5zefAj3fYeiTB7RmmHsUEyWuB+F3ndnmXr0k5QQSvzIr5+Li6h64X9527QXlrrNQ4loGj/JFu7m73gHY7fU3Wr25IBNYOEaC+7IQAju1SSkqljKuI6KIZ7YeXZHcbpjv/zl0yWxNVlDLRnd0hHGB2flpIl0NczN0/ayTdRQ6gJJ0ur8+gV9dAn96FrfXubi4QgfuV7V9iGDmwMHwq7fCZ4nqio/Tmrf3aCcPgJmXBvPqIa3z9lCswFGblIB91enA/krp093IbD1hk9nMJpgHr7OS8Sr77hhHHZ5tfgmo5OteF+FW+2rh82DiZ0M1M9cBUDqibLPvht95MypdGYF7jtfRuLi4Qg7w1Oo7P2hVpsrxPcx0XQC/+kqH1nywat6et1NADDnT/XQYsDw7NOBux7SuOUNaye6tCDOw22x9MbP1iJ5N4kUKzbP7nswm8tGrLaV7kAdCpMB8eY6JNeN0/HGkjpkuINcp7huUqC+iTDmH9CyBe+xcXkfj4uIKN7gvTekXHBwjPleRfgb8rkUoVj+0VfME5ALgCy32TuA+w0p/o93aG4cDK7KlOKgvSnkb2B+ygT2cjJ3ZenSS2bZCO/ICsItYennfV9f2VAD1OZFzjFsy1sSysToeztGwMAu4eBAg2fkBlLv+gplqdpv7qSClP91n/LTh4uKKbmu+wuFAaca18KvrA+w9aPYu2vO2mI6U8l5FKuVtcO8tc7eBncxpwg7szNYjHuJCIrlPVvYtma3RilKlUc0DpwMLwqx0rxlroiZLx/KxmuhK1WcDPxkGzHAcQV7ak5iZXoUrMr/d2f3ExcXFFb3W/CXthHUVmafBr94Lj3IokBDVqpwXqzpi1m6DOzH3+nZt+Z4APCVpiVb8ePngFuK5sjCy9dnQjDeYrUckma0Z5ju39z6ZTQC6JagkT/dwra7VCiA3UJuliWv50dNlsuHPhmnwq69iYur1KHEManOfXJhyAuqZlXNxccUqe/e3a81XOr6HUtds+FxPwOP8sk17vsip6W6nIcCd1uDI0/rnw1pVwct6uApnu86ReI5arATuTeFk60uYrUdCJIddMPdfDjQW9Zyp2wydOjg0ohGAHgZGTkBO/1/yZ3h0vLxmf3/qWlRn/AyZPxre7j7px6yci4srvgC+PqUf+U63+ZzPORClruvhU9fCG4iFlMEUbqem56UZYuZO9rPXDJHKZNrfJQ/spd0Ed1sVTy8E9h57U5jYevNsaPqbzNbDajrzOjRtkwXQ/p6J5EIN6LUBEDcsEDewchzwyGnAw+Il9CgeGLcRS7JvwkWDsjrcE+6U/szKubi44p+9027torYPM1S5xqI0/Rb41U20FmeFUsjAiulpmj5xgKHnpZnmxQOBv4wCVo+Ta0Ddac3be+z0z9v9ch855F7xFlv/iNl6eEVy22B8+QzQUNBzQKd2+/4+AHpNEIjXjdVQP1YXL5iPnC5b62Qas3DMu5if9RjuzboYfxkzuMP1X+fvjzoGci4urkQE+NqUfsRWOoB+1cBx8KX/BkXqFhRaAE8z+EIHyF1LnzRA16tdJn4/Qj5IKeyiK5c623mO2P4mtxUCw2w9LpPZPqqxRHJV3d9DFyr3SmBVN2foNcEgPlaC+IqxmminExOnszwH+POoI7hjxAb85pS7cO3QfKQO+C4DORcXFwN8/TEAfl5KP1Rkno4y9dfwqRvgUXSUWmlUuWkQjlvFTg3XDTaES92DXbB3AnYyFiHHsBenS0vQ5pkhVMYzWw+/SG43zMM3d18k12TtodM/U2t8/jEAvaYdiC8dq2PZWA0P5OjimiIAXzNO/nd3jDBw47BduHLwMszKnIvskzI7XMs7LzsBC4sFkPOcnIuLi9vzpJ5vt/sufq1aPRWlrh/Dp74IryWyK1KAyanQp6WaODddw+0jdCzLNgPsfWk7gK+z0t3I25tCO+iBTywuJEEwFTJghNl6+JLZ0ADsuxBo9HQtkrMz0XeWAvdb2oradgBOc3DZRtewJscQgkwCcNJg/DUL+OUwDVcN2oG5mcvgdV6Esd8fiZSUr3R8KS3uj0svZ7EbFxcXV5cAX3wMgK9MdwkVfalyP3zKHhF4ke8EpqWJWbx+7WAd80bLB/XqHDOQ6x5g79bKG7VjCdAPhUpAZ7P1GmbrIZ+nb4HWsg5oKgV2l3Q+P99F8anVwCYvsHg0ATpdA4Zooa/O0fBgjiFYOLXTiYHfkwX8+hTg8sEfY27mWpSo8zF1wBwM+s4wpKSc2OH6a7r8BEwvFkI3BnIuLi6u3gC81aJv/xDFOepXUa5MQJXrdyh1/QczHJ8JcC9wArMzpKENqZMfHCdB/n4xJ5WMff4ooGYMsNkrIzf73I632frZzNZ7A9xH7bO23XkZuvYmjE8fB3bkyZ9R+yN/BiYOVBr4YI6ON9waVmRpWDXWFOybZuCLxwJ3jQZ+MRz6xYO+RFV6I3zKI8hLvQE5A3LxzR/86JjXH4M4FxcXVxhBvl7a07Y3uZFt+qEOzHSVwqvci2kD3jTOHKALJn/JYOAOa6b64DhdMDZibwtHmaId/3yeZOx9bsdXCiFXcrP19V2AtH3Wy9+vvwbdeB06tkLHduhokN877IGOvWKWruMTGF/cD+wtAA6dbeJwtYH3Zuv4aJaGj2Zr+GCWgcPVwKEq4OmpwO+Hyxe6KwZDPzv9M5Sp21DofBCT036OnJMLMPD/1GO10sU15PX3F7nkDOJcXFxcUWDxVpu+A4uf7+6POQNPRbHzfExNW4rJA3boBWktuGwwcPcoyd5op3g1gftIDQ+erqOhzOzbPrvF1vckElvvDkCvtcB8owRocwt0bIOOHdDRKJzgJEDvg4790HHA+vdGaNgGTX8D2hevQvv4WWjvPmZqh5ab2v4Fhrb7D7qx8xeasekaTX+xQMdT40w8NkG6wdXkAHePAW4aAVw+BPqs9Bb4lAOYmvo8pqbNx8TUSzDuR5Mw6KQBSOn4AphiOyAWpfTnPHIuLi6u2AT5fscV290w4UQUDhiCSY7ZyHUsRJlrCy4f+DnuHCXV0Q+MlUKpLcXA4dkamis0NJQZAujJZrbbpxLYEauz9VCw6N1BLNoG6P3W5xugGW9Ca3kN2qcvwnj/SRgHV8HYvQTGjrtgbPo1jFeuMY1/nWsaz1YYxt/dOh6fQqMRDatGaKgfZmBxBnCvAvwhFfhdKvDLAcDVPwTOdwJlCswZAz7HtAGNmHzy05hw8jyc/sPLMfb7+Rj0/UH4dsrXjntt2AB+sbRjZRDn4uLiijcW31mrnl4AvvcdB85ILUKFejOuH/40bj3lLfxlJPBSLvDf2cAHc4DDs4BDs+ijhrdmaTg0S8eBagP7qyWrp0PCrIOz5Dk0G9hfChyaC42AUN8UOyxa7w6L3h9g0QTkARb90bMwDj8CY189jF33wdhyK8x1P4X54qUwnpllGk94TeORPBNrxhtYOUrHslN01A/WUJeuodapYbGiY77LxHwX8GcX8Id04NZM4FcDgRsGApdlAnMzgFKXobvVj1Go7kK+6znkqTXIG/gLTFFnYnLa6ZjqSHvfM+z/Hffnfn9KP9E+D2LgDOBcXFxciQry9MD3dmTy1u/5JqoysnF15nlYNX4xDlZsxnb/R9joAbb5gO1eYFsxsLUI2FQAbMg3sC5fwyu5Gv49VcfzU0z8Y6KJv08BVg2B0fxXCZBHu8HWjwYB9JG18nz5attjf/7oBuhHX5PtfWMLdJNAeme7WfS+AIvWsFushGl4E5r+GrQv/gPto7/DOLwGxv5aGLv+BOONm2Gsu840XjyfWLRpPFFk4tFJhr6KLFBpXXCohvsHaqhTNdQoGpYoGha7NCx0GZifAdwzEPjzEOCPQ4E7hgO/OwX45SnA9cOBy4YB5w0BZmZCd6tH9BnK+8hXtiPX+U/kKssx1fl7THaej8mOGZjoGIHcASdhUNZXOv151gWBN7NvLi4uLgb5QLs+198f6Oj8JX5P6YDvoujkbFQ55uJs5z041/UsLnDt0y9MP4qriGUOBn41DPjNcODW4cDtpwB3jTRxZ4aO2jP0FjQYLfprZsuRtW2OTie4zY0tQW3uXRaDttvbh6DjLbTgMFpw0GzBHrMFjWYLtpsteM1sMV80W758wtQ+Xm1o7yw2tH1/MLQdvzSMTVfqxsvn6PhnqY4n83Q8NF7H8lE66obpWDJQxwJVx70OA39xmPiTA7iL2t4KcLtLsujfDQJ+OxS4aSjwi2HAj4cD11ggfcFQYM5goCwTcKdDn+E4Yk5zvI9pjl2Y6ngV0xyPY1raYkxOuwWTUy/GpAE+TBtwBma40lE48FuY7u7f5c/IZt3uNsybwZuLi4uLq5tATwxwobc/Pvf27+T3fRUZJ7swYcB0TE27GnlpNZjmeBFTU/frU1I/x3QH4EkHsvsDz94O4H0A2wE0AWgGsA8mDsDEfhhkf4odMPAGjJb1MD54HsbeR2FsrYfx8r0wnvodzJU/hrnwAuDOMuDX+cDPzwSuHQ1cNhC42AmcdzJwzveBOd8GZn8LqP62PFXfBaq+B1T9EKg8GahMAyqcQIUKlKtAaTrgzbBAWTX16cpRPU/5VJ/q+ECfkHYAE9K2Y7JjHfIcz2G64yHkpS3BtLQ7MDXtp5iWdgGmO0owI20q8tNGw5OuonjI/x08v3OG3eH77Q0C7SDGzcDNxcXFxRV6kEfK/6As5QTcNLG/OLjpuF7eKBv2DXjUwfA4C+FJvwqTv7/YuGLiS/rhZw5oux/Zq29aekB/9g/v6A/8/CN93sUfG7dWfqb/vOhL48pJLcbcsS1G+ZAWw5veYhSmtRi5P2wxJn3XMCZ91zQmfqfFmPSdL42J3/nMmPi9j43JJ32IKT9415j6o7eNaScfNKalNhu5aTuNXOcW5CnrjTzlJSNPed7IVf9u5KqPIM+5wshTFht5zj8ZuWm/03MdP0Ne2hXIdczRclNLMT1teku+40wUKKOQl5aJsszv49zB38RNw77S6+8bfc8mpvRvc8T3kUGbiyvS9f8BjyTXy0Ndx4wAAAAASUVORK5CYII=;" vertex="1" parent="1">
                    <mxGeometry x="95" y="1905" width="62.67" height="80.07" as="geometry"/>
                </mxCell>
                <mxCell id="104" style="edgeStyle=orthogonalEdgeStyle;rounded=0;orthogonalLoop=1;jettySize=auto;html=1;strokeColor=#B5739D;strokeWidth=2;" edge="1" parent="1">
                    <mxGeometry relative="1" as="geometry">
                        <mxPoint x="92" y="1953" as="targetPoint"/>
                        <Array as="points">
                            <mxPoint x="37" y="1953.14"/>
                        </Array>
                        <mxPoint x="-37" y="1953.14" as="sourcePoint"/>
                    </mxGeometry>
                </mxCell>
                <mxCell id="105" value="FIDA buy and burn" style="text;html=1;strokeColor=none;fillColor=none;align=center;verticalAlign=middle;whiteSpace=wrap;rounded=0;fontStyle=0" vertex="1" parent="1">
                    <mxGeometry x="65.95" y="1993" width="120.77" height="20" as="geometry"/>
                </mxCell>
            </root>
        </mxGraphModel>
    </diagram>
</mxfile>